<svg width="730" height="353" viewBox="0 0 730 353" fill="none" xmlns="http://www.w3.org/2000/svg">
<rect x="1.07353" y="1.07353" width="727.853" height="608.824" rx="16.1029" fill="#FAFAFA"/>
<rect x="1.07353" y="1.07353" width="727.853" height="608.824" rx="16.1029" stroke="#EDF2F7" stroke-width="2.14706"/>
<path d="M81.3412 89.5132H75.6381C75.4754 88.5779 75.1755 87.7494 74.7384 87.0276C74.3013 86.2956 73.7574 85.6755 73.1068 85.1672C72.4561 84.6589 71.714 84.2777 70.8804 84.0235C70.057 83.7592 69.1674 83.627 68.2118 83.627C66.5141 83.627 65.0095 84.054 63.6981 84.908C62.3867 85.7517 61.36 86.992 60.6178 88.6287C59.8757 90.2553 59.5047 92.2427 59.5047 94.5911C59.5047 96.9801 59.8757 98.993 60.6178 100.63C61.3701 102.256 62.3969 103.486 63.6981 104.32C65.0095 105.143 66.509 105.555 68.1966 105.555C69.1319 105.555 70.0061 105.433 70.8194 105.189C71.6429 104.935 72.3799 104.564 73.0305 104.076C73.6913 103.588 74.2454 102.988 74.6927 102.277C75.1501 101.565 75.4653 100.752 75.6381 99.8367L81.3412 99.8672C81.1277 101.351 80.6652 102.744 79.9536 104.045C79.2521 105.347 78.3321 106.495 77.1935 107.492C76.0549 108.478 74.7232 109.25 73.1983 109.81C71.6734 110.359 69.9807 110.633 68.1203 110.633C65.3755 110.633 62.9255 109.998 60.7703 108.727C58.6151 107.456 56.9174 105.621 55.6772 103.222C54.4369 100.823 53.8168 97.9459 53.8168 94.5911C53.8168 91.2261 54.442 88.3492 55.6924 85.9601C56.9428 83.561 58.6456 81.726 60.8008 80.4553C62.956 79.1845 65.3959 78.5491 68.1203 78.5491C69.8587 78.5491 71.4751 78.7931 72.9695 79.2811C74.4639 79.7691 75.7957 80.4858 76.9648 81.4312C78.1339 82.3665 79.0945 83.5152 79.8468 84.8775C80.6093 86.2295 81.1074 87.7748 81.3412 89.5132ZM95.6361 110.664C93.3487 110.664 91.3664 110.16 89.689 109.154C88.0116 108.147 86.7103 106.739 85.7852 104.93C84.8703 103.12 84.4128 101.006 84.4128 98.5863C84.4128 96.1668 84.8703 94.0472 85.7852 92.2275C86.7103 90.4078 88.0116 88.9947 89.689 87.9883C91.3664 86.9818 93.3487 86.4786 95.6361 86.4786C97.9234 86.4786 99.9058 86.9818 101.583 87.9883C103.261 88.9947 104.557 90.4078 105.472 92.2275C106.397 94.0472 106.859 96.1668 106.859 98.5863C106.859 101.006 106.397 103.12 105.472 104.93C104.557 106.739 103.261 108.147 101.583 109.154C99.9058 110.16 97.9234 110.664 95.6361 110.664ZM95.6666 106.241C96.9068 106.241 97.9438 105.901 98.7774 105.22C99.611 104.528 100.231 103.603 100.638 102.444C101.055 101.285 101.263 99.9943 101.263 98.5711C101.263 97.1377 101.055 95.8415 100.638 94.6826C100.231 93.5135 99.611 92.5833 98.7774 91.892C97.9438 91.2007 96.9068 90.8551 95.6666 90.8551C94.3958 90.8551 93.3386 91.2007 92.4948 91.892C91.6612 92.5833 91.036 93.5135 90.6192 94.6826C90.2125 95.8415 90.0092 97.1377 90.0092 98.5711C90.0092 99.9943 90.2125 101.285 90.6192 102.444C91.036 103.603 91.6612 104.528 92.4948 105.22C93.3386 105.901 94.3958 106.241 95.6666 106.241ZM108.105 91.3125V86.7836H128.6V91.3125H121.021V110.206H115.684V91.3125H108.105ZM132.136 118.989V86.7836H137.565V90.6568H137.885C138.17 90.0875 138.571 89.4827 139.09 88.8422C139.608 88.1916 140.31 87.6375 141.194 87.1801C142.079 86.7124 143.207 86.4786 144.579 86.4786C146.389 86.4786 148.021 86.9412 149.474 87.8663C150.938 88.7812 152.097 90.1384 152.951 91.9378C153.815 93.727 154.247 95.9228 154.247 98.5253C154.247 101.097 153.825 103.283 152.982 105.082C152.138 106.882 150.989 108.254 149.535 109.2C148.082 110.145 146.435 110.618 144.595 110.618C143.253 110.618 142.14 110.394 141.255 109.947C140.371 109.5 139.659 108.961 139.12 108.33C138.592 107.69 138.18 107.085 137.885 106.516H137.656V118.989H132.136ZM137.55 98.4948C137.55 100.01 137.763 101.336 138.19 102.475C138.627 103.613 139.252 104.503 140.066 105.143C140.889 105.774 141.885 106.089 143.055 106.089C144.274 106.089 145.296 105.764 146.12 105.113C146.943 104.452 147.563 103.552 147.98 102.414C148.407 101.265 148.62 99.9587 148.62 98.4948C148.62 97.0411 148.412 95.75 147.995 94.6216C147.578 93.4932 146.958 92.6087 146.135 91.9683C145.311 91.3278 144.285 91.0076 143.055 91.0076C141.875 91.0076 140.874 91.3176 140.05 91.9378C139.227 92.5579 138.602 93.4271 138.175 94.5453C137.758 95.6636 137.55 96.9801 137.55 98.4948ZM160.75 118.989C159.998 118.989 159.301 118.928 158.661 118.806C158.031 118.695 157.527 118.563 157.151 118.41L158.432 114.11C159.235 114.344 159.952 114.455 160.582 114.445C161.212 114.435 161.767 114.237 162.244 113.851C162.732 113.474 163.144 112.844 163.479 111.96L163.952 110.694L155.459 86.7836H161.314L166.712 104.472H166.956L172.37 86.7836H178.241L168.862 113.042C168.425 114.283 167.846 115.345 167.124 116.229C166.402 117.124 165.518 117.805 164.471 118.273C163.434 118.751 162.193 118.989 160.75 118.989ZM177.199 117.007V105.662H179.059C179.557 105.276 179.974 104.752 180.31 104.091C180.645 103.42 180.919 102.632 181.133 101.728C181.357 100.813 181.54 99.791 181.682 98.6626C181.824 97.524 181.951 96.299 182.063 94.9876L182.734 86.7836H199.66V105.662H203.29V117.007H197.953V110.206H182.627V117.007H177.199ZM184.732 105.662H194.384V91.2363H187.522L187.156 94.9876C186.953 97.4681 186.684 99.5928 186.348 101.362C186.013 103.131 185.474 104.564 184.732 105.662ZM222.64 96.2075V100.736H210.166V96.2075H222.64ZM211.874 86.7836V110.206H206.552V86.7836H211.874ZM226.254 86.7836V110.206H220.947V86.7836H226.254ZM236.302 102.734L245.68 86.7836H251.352V110.206H246.015V94.2404L236.668 110.206H230.98V86.7836H236.302V102.734ZM256.162 110.206V86.7836H261.683V96.238H263.695L270.74 86.7836H277.389L268.712 98.2813L277.481 110.206H270.801L264.382 101.377H261.683V110.206H256.162ZM285.073 102.734L294.452 86.7836H300.124V110.206H294.787V94.2404L285.439 110.206H279.752V86.7836H285.073V102.734Z" fill="#1E1E1E"/>
<rect x="364.738" y="53.0325" width="312.229" height="83.3471" rx="24.2618" stroke="#EDF2F7" stroke-width="3.00588"/>
<path d="M407.377 106.005C405.84 106.005 404.473 105.742 403.278 105.215C402.089 104.688 401.15 103.955 400.46 103.016C399.769 102.077 399.403 100.992 399.36 99.7605H403.374C403.409 100.351 403.605 100.867 403.961 101.308C404.317 101.742 404.79 102.08 405.381 102.322C405.971 102.564 406.633 102.685 407.366 102.685C408.149 102.685 408.843 102.55 409.447 102.28C410.052 102.002 410.526 101.618 410.867 101.127C411.209 100.636 411.376 100.07 411.369 99.4296C411.376 98.7678 411.205 98.1842 410.856 97.679C410.508 97.1737 410.002 96.7788 409.341 96.4941C408.686 96.2095 407.896 96.0672 406.971 96.0672H405.039V93.0143H406.971C407.732 93.0143 408.398 92.8827 408.967 92.6194C409.544 92.3561 409.995 91.986 410.323 91.5092C410.65 91.0253 410.81 90.4667 410.803 89.8334C410.81 89.2143 410.671 88.677 410.387 88.2216C410.109 87.759 409.714 87.3996 409.202 87.1434C408.697 86.8873 408.102 86.7592 407.419 86.7592C406.75 86.7592 406.131 86.8801 405.562 87.1221C404.993 87.364 404.534 87.7092 404.185 88.1575C403.836 88.5987 403.651 89.1253 403.63 89.7373H399.819C399.848 88.5133 400.2 87.4388 400.876 86.5137C401.559 85.5814 402.47 84.8556 403.609 84.3361C404.747 83.8095 406.025 83.5462 407.441 83.5462C408.899 83.5462 410.166 83.8202 411.241 84.3681C412.322 84.909 413.159 85.6384 413.749 86.5564C414.34 87.4744 414.635 88.4884 414.635 89.5985C414.642 90.8296 414.279 91.8615 413.546 92.6941C412.821 93.5267 411.867 94.0711 410.686 94.3273V94.498C412.223 94.7115 413.4 95.2808 414.219 96.2059C415.044 97.1239 415.454 98.2661 415.446 99.6324C415.446 100.856 415.098 101.952 414.4 102.92C413.71 103.881 412.756 104.635 411.54 105.183C410.33 105.731 408.942 106.005 407.377 106.005ZM423.57 106.037C422.532 106.037 421.596 105.852 420.763 105.482C419.938 105.105 419.283 104.55 418.799 103.817C418.322 103.084 418.084 102.18 418.084 101.105C418.084 100.18 418.255 99.4153 418.596 98.8105C418.938 98.2056 419.404 97.7217 419.995 97.3588C420.585 96.9958 421.251 96.7219 421.991 96.5368C422.738 96.3447 423.51 96.2059 424.307 96.1205C425.268 96.0209 426.047 95.932 426.645 95.8537C427.242 95.7683 427.677 95.6402 427.947 95.4694C428.224 95.2915 428.363 95.0175 428.363 94.6475V94.5834C428.363 93.7793 428.125 93.1566 427.648 92.7154C427.171 92.2742 426.485 92.0536 425.588 92.0536C424.641 92.0536 423.891 92.26 423.336 92.6727C422.788 93.0855 422.418 93.5729 422.226 94.1351L418.618 93.6227C418.902 92.6265 419.372 91.7939 420.027 91.125C420.681 90.4489 421.482 89.9437 422.428 89.6092C423.375 89.2676 424.421 89.0968 425.567 89.0968C426.356 89.0968 427.143 89.1894 427.926 89.3744C428.708 89.5594 429.424 89.8654 430.071 90.2924C430.719 90.7122 431.238 91.2851 431.63 92.0109C432.028 92.7368 432.227 93.6441 432.227 94.7329V105.706H428.513V103.454H428.385C428.15 103.909 427.819 104.336 427.392 104.735C426.972 105.126 426.442 105.443 425.801 105.685C425.168 105.92 424.424 106.037 423.57 106.037ZM424.574 103.198C425.35 103.198 426.022 103.045 426.591 102.739C427.161 102.425 427.598 102.013 427.904 101.5C428.217 100.988 428.374 100.429 428.374 99.8245V97.8925C428.253 97.9921 428.047 98.0846 427.755 98.17C427.47 98.2554 427.15 98.3301 426.794 98.3942C426.438 98.4582 426.086 98.5151 425.737 98.5649C425.389 98.6148 425.086 98.6575 424.83 98.693C424.254 98.7713 423.738 98.8994 423.282 99.0773C422.827 99.2552 422.467 99.5043 422.204 99.8245C421.941 100.138 421.809 100.543 421.809 101.041C421.809 101.753 422.069 102.29 422.588 102.653C423.108 103.016 423.77 103.198 424.574 103.198ZM442.968 105.706V89.3103H449.853C451.795 89.3103 453.329 89.6982 454.453 90.4738C455.585 91.2495 456.15 92.3312 456.15 93.7188C456.15 94.6368 455.83 95.3876 455.19 95.9711C454.556 96.5475 453.692 96.9353 452.596 97.1346C453.457 97.2058 454.211 97.4228 454.859 97.7857C455.513 98.1487 456.026 98.6254 456.396 99.2161C456.766 99.8067 456.951 100.486 456.951 101.255C456.951 102.159 456.713 102.945 456.236 103.614C455.766 104.276 455.079 104.792 454.176 105.162C453.279 105.525 452.19 105.706 450.909 105.706H442.968ZM446.586 102.664H450.909C451.621 102.664 452.18 102.497 452.585 102.162C452.991 101.821 453.194 101.358 453.194 100.775C453.194 100.098 452.991 99.5683 452.585 99.1841C452.18 98.7927 451.621 98.597 450.909 98.597H446.586V102.664ZM446.586 96.0992H449.927C450.454 96.0992 450.906 96.0245 451.283 95.875C451.66 95.7185 451.948 95.5014 452.148 95.2239C452.347 94.9392 452.446 94.6012 452.446 94.2098C452.446 93.6477 452.215 93.2064 451.753 92.8862C451.297 92.566 450.664 92.4059 449.853 92.4059H446.586V96.0992ZM466.991 106.026C465.354 106.026 463.949 105.667 462.775 104.948C461.608 104.229 460.707 103.237 460.074 101.97C459.448 100.696 459.135 99.2303 459.135 97.5722C459.135 95.907 459.455 94.4376 460.095 93.1638C460.736 91.8828 461.64 90.8866 462.807 90.1749C463.981 89.4562 465.369 89.0968 466.97 89.0968C468.3 89.0968 469.478 89.3424 470.503 89.8334C471.535 90.3173 472.357 91.004 472.969 91.8935C473.581 92.7759 473.929 93.8078 474.015 94.9891H470.321C470.172 94.1992 469.816 93.5409 469.254 93.0143C468.699 92.4806 467.955 92.2137 467.023 92.2137C466.233 92.2137 465.539 92.4272 464.942 92.8542C464.344 93.2741 463.878 93.8789 463.543 94.6688C463.216 95.4587 463.052 96.4052 463.052 97.5082C463.052 98.6254 463.216 99.5861 463.543 100.39C463.871 101.187 464.33 101.803 464.92 102.237C465.518 102.664 466.219 102.877 467.023 102.877C467.592 102.877 468.101 102.771 468.55 102.557C469.005 102.337 469.386 102.02 469.692 101.607C469.998 101.194 470.208 100.693 470.321 100.102H474.015C473.922 101.262 473.581 102.29 472.99 103.187C472.399 104.076 471.595 104.774 470.578 105.279C469.56 105.777 468.365 106.026 466.991 106.026ZM484.146 106.026C482.502 106.026 481.082 105.685 479.887 105.002C478.698 104.311 477.784 103.336 477.143 102.077C476.503 100.81 476.183 99.3193 476.183 97.6043C476.183 95.9177 476.503 94.4376 477.143 93.1638C477.791 91.8828 478.695 90.8866 479.855 90.1749C481.015 89.4562 482.377 89.0968 483.943 89.0968C484.953 89.0968 485.907 89.2605 486.804 89.5879C487.707 89.9081 488.504 90.4062 489.195 91.0823C489.892 91.7583 490.44 92.6194 490.838 93.6654C491.237 94.7044 491.436 95.9426 491.436 97.3801V98.5649H477.997V95.9604H487.732C487.725 95.2203 487.565 94.5621 487.252 93.9857C486.939 93.4021 486.501 92.9432 485.939 92.6087C485.384 92.2742 484.736 92.107 483.996 92.107C483.206 92.107 482.512 92.2991 481.915 92.6834C481.317 93.0606 480.851 93.5587 480.516 94.1778C480.189 94.7898 480.022 95.4623 480.015 96.1953V98.4689C480.015 99.4225 480.189 100.241 480.538 100.924C480.886 101.6 481.374 102.119 482 102.482C482.626 102.838 483.359 103.016 484.199 103.016C484.761 103.016 485.27 102.938 485.725 102.781C486.181 102.618 486.576 102.379 486.91 102.066C487.245 101.753 487.497 101.365 487.668 100.903L491.276 101.308C491.048 102.262 490.614 103.094 489.974 103.806C489.34 104.511 488.529 105.058 487.54 105.45C486.551 105.834 485.419 106.026 484.146 106.026ZM501.56 105.706V89.3103H508.445C510.388 89.3103 511.921 89.6982 513.046 90.4738C514.177 91.2495 514.743 92.3312 514.743 93.7188C514.743 94.6368 514.423 95.3876 513.782 95.9711C513.149 96.5475 512.284 96.9353 511.188 97.1346C512.049 97.2058 512.804 97.4228 513.451 97.7857C514.106 98.1487 514.618 98.6254 514.988 99.2161C515.358 99.8067 515.543 100.486 515.543 101.255C515.543 102.159 515.305 102.945 514.828 103.614C514.358 104.276 513.672 104.792 512.768 105.162C511.871 105.525 510.783 105.706 509.502 105.706H501.56ZM505.179 102.664H509.502C510.213 102.664 510.772 102.497 511.178 102.162C511.583 101.821 511.786 101.358 511.786 100.775C511.786 100.098 511.583 99.5683 511.178 99.1841C510.772 98.7927 510.213 98.597 509.502 98.597H505.179V102.664ZM505.179 96.0992H508.52C509.046 96.0992 509.498 96.0245 509.875 95.875C510.252 95.7185 510.541 95.5014 510.74 95.2239C510.939 94.9392 511.039 94.6012 511.039 94.2098C511.039 93.6477 510.808 93.2064 510.345 92.8862C509.89 92.566 509.256 92.4059 508.445 92.4059H505.179V96.0992ZM518.432 111.854V89.3103H522.232V92.0216H522.456C522.655 91.6231 522.936 91.1997 523.299 90.7514C523.662 90.2959 524.153 89.9081 524.772 89.5879C525.391 89.2605 526.181 89.0968 527.142 89.0968C528.409 89.0968 529.551 89.4206 530.568 90.0682C531.593 90.7087 532.404 91.6587 533.002 92.9182C533.607 94.1707 533.909 95.7078 533.909 97.5295C533.909 99.3299 533.614 100.86 533.023 102.119C532.433 103.379 531.629 104.34 530.611 105.002C529.593 105.663 528.441 105.994 527.153 105.994C526.213 105.994 525.434 105.838 524.815 105.525C524.196 105.211 523.698 104.834 523.321 104.393C522.95 103.945 522.662 103.521 522.456 103.123H522.296V111.854H518.432ZM522.221 97.5082C522.221 98.5685 522.371 99.4972 522.669 100.294C522.975 101.091 523.413 101.714 523.982 102.162C524.559 102.603 525.256 102.824 526.075 102.824C526.928 102.824 527.644 102.596 528.22 102.141C528.796 101.678 529.231 101.049 529.522 100.251C529.821 99.4474 529.971 98.5329 529.971 97.5082C529.971 96.4906 529.825 95.5868 529.533 94.7969C529.241 94.007 528.807 93.3879 528.231 92.9396C527.654 92.4913 526.936 92.2671 526.075 92.2671C525.249 92.2671 524.548 92.4842 523.972 92.9182C523.395 93.3523 522.958 93.9608 522.659 94.7435C522.367 95.5263 522.221 96.4479 522.221 97.5082ZM544.176 106.026C542.533 106.026 541.113 105.685 539.917 105.002C538.729 104.311 537.815 103.336 537.174 102.077C536.534 100.81 536.213 99.3193 536.213 97.6043C536.213 95.9177 536.534 94.4376 537.174 93.1638C537.822 91.8828 538.725 90.8866 539.885 90.1749C541.045 89.4562 542.408 89.0968 543.974 89.0968C544.984 89.0968 545.938 89.2605 546.834 89.5879C547.738 89.9081 548.535 90.4062 549.225 91.0823C549.923 91.7583 550.471 92.6194 550.869 93.6654C551.268 94.7044 551.467 95.9426 551.467 97.3801V98.5649H538.028V95.9604H547.763C547.756 95.2203 547.596 94.5621 547.283 93.9857C546.97 93.4021 546.532 92.9432 545.97 92.6087C545.415 92.2742 544.767 92.107 544.027 92.107C543.237 92.107 542.543 92.2991 541.945 92.6834C541.348 93.0606 540.882 93.5587 540.547 94.1778C540.22 94.7898 540.053 95.4623 540.045 96.1953V98.4689C540.045 99.4225 540.22 100.241 540.568 100.924C540.917 101.6 541.405 102.119 542.031 102.482C542.657 102.838 543.39 103.016 544.23 103.016C544.792 103.016 545.301 102.938 545.756 102.781C546.212 102.618 546.607 102.379 546.941 102.066C547.276 101.753 547.528 101.365 547.699 100.903L551.307 101.308C551.079 102.262 550.645 103.094 550.005 103.806C549.371 104.511 548.56 105.058 547.571 105.45C546.582 105.834 545.45 106.026 544.176 106.026ZM563.871 101.212L568.739 89.3103H571.856L565.227 105.706H562.526L556.047 89.3103H559.132L563.871 101.212ZM558.161 89.3103V105.706H554.435V89.3103H558.161ZM569.742 105.706V89.3103H573.436V105.706H569.742ZM586.723 105.706V92.4486H583.222C582.333 92.4486 581.65 92.6549 581.173 93.0677C580.696 93.4804 580.461 93.9928 580.468 94.6048C580.461 95.2168 580.685 95.722 581.141 96.1205C581.596 96.519 582.247 96.7183 583.094 96.7183H587.94V99.5363H583.094C581.785 99.5363 580.653 99.3299 579.7 98.9172C578.746 98.5045 578.013 97.9209 577.501 97.1666C576.988 96.4123 576.732 95.5299 576.732 94.5194C576.732 93.4662 576.992 92.5518 577.511 91.7761C578.038 90.9933 578.785 90.3884 579.753 89.9615C580.728 89.5274 581.884 89.3103 583.222 89.3103H590.342V105.706H586.723ZM576.135 105.706L580.714 97.2947H584.525L579.935 105.706H576.135Z" fill="#65788E"/>
<path d="M618.353 90.4119L626.941 99.0001L635.529 90.4119" stroke="#65788E" stroke-width="2.14706" stroke-linecap="round" stroke-linejoin="round"/>
<rect x="51.5294" y="209.383" width="103.059" height="103.059" rx="51.5294" fill="#F0F4F9"/>
<path d="M113.794 242.314C110.636 240.487 106.969 239.441 103.059 239.441C91.2009 239.441 81.5882 249.054 81.5882 260.912C81.5882 272.77 91.2009 282.382 103.059 282.382C114.917 282.382 124.529 272.77 124.529 260.912C124.529 258.268 124.052 255.736 123.178 253.397M92.3235 256.618L99.8949 262.675C101.671 264.096 104.247 263.885 105.769 262.194L122.382 243.735" stroke="#1E1E1E" stroke-width="3.22059" stroke-linecap="round"/>
<path d="M180.993 222.941V216.015H182.229C182.649 215.661 183.043 215.158 183.409 214.505C183.775 213.852 184.086 212.971 184.342 211.861C184.598 210.751 184.775 209.327 184.873 207.588L185.312 199.674H196.868V216.015H198.99V222.913H196.282V218.412H183.702V222.941H180.993ZM185.559 216.015H194.159V202.108H187.874L187.581 207.588C187.502 208.912 187.371 210.101 187.188 211.156C187.011 212.212 186.782 213.145 186.501 213.956C186.227 214.761 185.913 215.447 185.559 216.015ZM207.667 218.695C206.282 218.695 205.09 218.4 204.09 217.808C203.095 217.21 202.327 216.372 201.784 215.292C201.247 214.206 200.979 212.934 200.979 211.477C200.979 210.037 201.247 208.768 201.784 207.67C202.327 206.573 203.083 205.716 204.053 205.099C205.029 204.483 206.17 204.175 207.475 204.175C208.268 204.175 209.036 204.307 209.781 204.569C210.525 204.831 211.193 205.243 211.784 205.804C212.376 206.365 212.843 207.094 213.184 207.991C213.526 208.881 213.696 209.964 213.696 211.239V212.209H202.525V210.159H211.016C211.016 209.439 210.869 208.802 210.577 208.247C210.284 207.686 209.872 207.243 209.341 206.92C208.817 206.597 208.201 206.435 207.493 206.435C206.725 206.435 206.054 206.624 205.48 207.003C204.913 207.375 204.474 207.863 204.163 208.466C203.858 209.064 203.705 209.714 203.705 210.415V212.016C203.705 212.956 203.87 213.755 204.199 214.414C204.535 215.072 205.001 215.576 205.599 215.923C206.197 216.265 206.895 216.436 207.694 216.436C208.213 216.436 208.686 216.362 209.113 216.216C209.54 216.064 209.909 215.838 210.22 215.539C210.531 215.24 210.769 214.871 210.933 214.432L213.523 214.898C213.315 215.661 212.943 216.329 212.406 216.902C211.876 217.469 211.208 217.912 210.403 218.229C209.604 218.54 208.692 218.695 207.667 218.695ZM219.155 214.578L225.349 204.358H228.295V218.412H225.614V208.183L219.448 218.412H216.474V204.358H219.155V214.578ZM224.178 199.601H226.429C226.429 200.632 226.063 201.47 225.331 202.117C224.605 202.757 223.623 203.077 222.385 203.077C221.153 203.077 220.174 202.757 219.448 202.117C218.722 201.47 218.359 200.632 218.359 199.601H220.601C220.601 200.058 220.735 200.464 221.003 200.818C221.271 201.165 221.732 201.339 222.385 201.339C223.025 201.339 223.483 201.165 223.757 200.818C224.038 200.47 224.178 200.064 224.178 199.601ZM237.635 218.695C236.275 218.695 235.104 218.387 234.122 217.771C233.146 217.149 232.396 216.292 231.871 215.2C231.347 214.109 231.084 212.858 231.084 211.449C231.084 210.022 231.353 208.762 231.889 207.67C232.426 206.573 233.183 205.716 234.158 205.099C235.134 204.483 236.284 204.175 237.608 204.175C238.675 204.175 239.627 204.374 240.462 204.77C241.298 205.16 241.972 205.709 242.484 206.417C243.003 207.125 243.311 207.951 243.409 208.896H240.746C240.6 208.238 240.264 207.67 239.74 207.195C239.221 206.719 238.526 206.481 237.654 206.481C236.891 206.481 236.223 206.682 235.65 207.085C235.083 207.481 234.64 208.049 234.323 208.787C234.006 209.519 233.847 210.385 233.847 211.385C233.847 212.41 234.003 213.294 234.314 214.038C234.625 214.783 235.064 215.359 235.632 215.768C236.205 216.176 236.879 216.381 237.654 216.381C238.172 216.381 238.642 216.286 239.063 216.097C239.49 215.902 239.846 215.624 240.133 215.264C240.426 214.905 240.63 214.472 240.746 213.965H243.409C243.311 214.874 243.015 215.685 242.521 216.399C242.027 217.113 241.365 217.674 240.536 218.082C239.712 218.491 238.745 218.695 237.635 218.695ZM245.013 206.719V204.358H256.87V206.719H252.287V218.412H249.615V206.719H245.013ZM259.506 218.412V204.358H265.334C266.92 204.358 268.177 204.697 269.104 205.374C270.031 206.045 270.495 206.957 270.495 208.11C270.495 208.933 270.232 209.586 269.708 210.068C269.183 210.549 268.488 210.873 267.622 211.037C268.25 211.111 268.826 211.3 269.351 211.605C269.876 211.904 270.296 212.306 270.614 212.812C270.937 213.319 271.099 213.923 271.099 214.624C271.099 215.368 270.906 216.027 270.522 216.6C270.138 217.168 269.58 217.613 268.848 217.936C268.122 218.253 267.247 218.412 266.222 218.412H259.506ZM262.077 216.125H266.222C266.899 216.125 267.43 215.963 267.814 215.64C268.198 215.316 268.39 214.877 268.39 214.322C268.39 213.669 268.198 213.157 267.814 212.785C267.43 212.407 266.899 212.218 266.222 212.218H262.077V216.125ZM262.077 210.214H265.362C265.874 210.214 266.313 210.141 266.679 209.994C267.051 209.848 267.335 209.641 267.53 209.372C267.732 209.098 267.832 208.774 267.832 208.402C267.832 207.86 267.61 207.436 267.164 207.131C266.719 206.826 266.109 206.673 265.334 206.673H262.077V210.214ZM275.571 223.682C275.162 223.682 274.79 223.648 274.455 223.581C274.119 223.52 273.869 223.453 273.705 223.38L274.363 221.138C274.864 221.273 275.309 221.331 275.699 221.312C276.09 221.294 276.434 221.148 276.733 220.873C277.038 220.599 277.306 220.15 277.538 219.528L277.877 218.595L272.735 204.358H275.663L279.222 215.264H279.368L282.927 204.358H285.864L280.073 220.287C279.804 221.019 279.463 221.639 279.048 222.145C278.633 222.657 278.139 223.041 277.566 223.298C276.992 223.554 276.327 223.682 275.571 223.682ZM295.25 210.305V212.684H287.757V210.305H295.25ZM289.98 204.358V218.412H287.244V204.358H289.98ZM299.532 218.695C298.227 218.695 297.086 218.391 296.11 217.781C295.134 217.171 294.378 216.323 293.841 215.237C293.304 214.145 293.036 212.88 293.036 211.44C293.036 209.988 293.304 208.72 293.841 207.634C294.378 206.542 295.134 205.694 296.11 205.09C297.086 204.48 298.227 204.175 299.532 204.175C300.843 204.175 301.984 204.48 302.954 205.09C303.93 205.694 304.686 206.542 305.223 207.634C305.766 208.72 306.037 209.988 306.037 211.44C306.037 212.88 305.766 214.145 305.223 215.237C304.686 216.323 303.93 217.171 302.954 217.781C301.984 218.391 300.843 218.695 299.532 218.695ZM299.532 216.353C300.416 216.353 301.139 216.131 301.7 215.685C302.268 215.234 302.685 214.636 302.954 213.892C303.222 213.148 303.356 212.331 303.356 211.44C303.356 210.543 303.222 209.723 302.954 208.979C302.685 208.229 302.268 207.628 301.7 207.176C301.139 206.725 300.416 206.499 299.532 206.499C298.654 206.499 297.931 206.725 297.364 207.176C296.796 207.628 296.378 208.229 296.11 208.979C295.842 209.723 295.707 210.543 295.707 211.44C295.707 212.331 295.842 213.148 296.11 213.892C296.378 214.636 296.796 215.234 297.364 215.685C297.931 216.131 298.654 216.353 299.532 216.353ZM329.142 216.051L328.886 222.438H326.206V218.412H324.458V216.051H329.142ZM309.005 204.358H311.685V216.042H316.544V204.358H319.225V216.042H324.083V204.358H326.764V218.412H309.005V204.358ZM334.45 214.578L340.644 204.358H343.59V218.412H340.909V208.183L334.743 218.412H331.769V204.358H334.45V214.578ZM349.17 204.358L352.272 209.83L355.401 204.358H358.392L354.01 211.385L358.429 218.412H355.437L352.272 213.16L349.115 218.412H346.114L350.487 211.385L346.169 204.358H349.17ZM373.424 218.695C372.064 218.695 370.893 218.387 369.911 217.771C368.935 217.149 368.185 216.292 367.66 215.2C367.136 214.109 366.873 212.858 366.873 211.449C366.873 210.022 367.142 208.762 367.678 207.67C368.215 206.573 368.972 205.716 369.948 205.099C370.923 204.483 372.073 204.175 373.397 204.175C374.464 204.175 375.416 204.374 376.251 204.77C377.087 205.16 377.761 205.709 378.273 206.417C378.792 207.125 379.1 207.951 379.198 208.896H376.535C376.389 208.238 376.053 207.67 375.529 207.195C375.01 206.719 374.315 206.481 373.443 206.481C372.68 206.481 372.012 206.682 371.439 207.085C370.872 207.481 370.429 208.049 370.112 208.787C369.795 209.519 369.636 210.385 369.636 211.385C369.636 212.41 369.792 213.294 370.103 214.038C370.414 214.783 370.853 215.359 371.421 215.768C371.994 216.176 372.668 216.381 373.443 216.381C373.961 216.381 374.431 216.286 374.852 216.097C375.279 215.902 375.635 215.624 375.922 215.264C376.215 214.905 376.419 214.472 376.535 213.965H379.198C379.1 214.874 378.804 215.685 378.31 216.399C377.816 217.113 377.154 217.674 376.325 218.082C375.501 218.491 374.534 218.695 373.424 218.695ZM387.785 218.695C386.468 218.695 385.318 218.394 384.336 217.79C383.354 217.186 382.591 216.341 382.048 215.255C381.506 214.17 381.234 212.901 381.234 211.449C381.234 209.991 381.506 208.717 382.048 207.625C382.591 206.533 383.354 205.685 384.336 205.081C385.318 204.477 386.468 204.175 387.785 204.175C389.103 204.175 390.252 204.477 391.234 205.081C392.216 205.685 392.979 206.533 393.522 207.625C394.065 208.717 394.336 209.991 394.336 211.449C394.336 212.901 394.065 214.17 393.522 215.255C392.979 216.341 392.216 217.186 391.234 217.79C390.252 218.394 389.103 218.695 387.785 218.695ZM387.794 216.399C388.648 216.399 389.356 216.173 389.917 215.722C390.478 215.271 390.893 214.67 391.161 213.92C391.436 213.169 391.573 212.343 391.573 211.44C391.573 210.543 391.436 209.72 391.161 208.97C390.893 208.213 390.478 207.606 389.917 207.149C389.356 206.691 388.648 206.463 387.794 206.463C386.934 206.463 386.221 206.691 385.653 207.149C385.092 207.606 384.674 208.213 384.4 208.97C384.131 209.72 383.997 210.543 383.997 211.44C383.997 212.343 384.131 213.169 384.4 213.92C384.674 214.67 385.092 215.271 385.653 215.722C386.221 216.173 386.934 216.399 387.794 216.399ZM395.439 206.719V204.358H407.297V206.719H402.713V218.412H400.042V206.719H395.439ZM409.933 223.682V204.358H412.604V206.637H412.833C412.992 206.344 413.221 206.005 413.519 205.621C413.818 205.237 414.233 204.901 414.764 204.615C415.294 204.322 415.996 204.175 416.868 204.175C418.003 204.175 419.015 204.462 419.906 205.035C420.796 205.609 421.495 206.435 422.001 207.515C422.513 208.595 422.769 209.894 422.769 211.413C422.769 212.931 422.516 214.234 422.01 215.319C421.504 216.399 420.808 217.232 419.924 217.817C419.04 218.397 418.03 218.686 416.896 218.686C416.042 218.686 415.343 218.543 414.8 218.256C414.264 217.97 413.843 217.634 413.538 217.25C413.233 216.866 412.998 216.524 412.833 216.225H412.669V223.682H409.933ZM412.614 211.385C412.614 212.373 412.757 213.239 413.044 213.984C413.33 214.728 413.745 215.31 414.288 215.731C414.831 216.146 415.496 216.353 416.283 216.353C417.1 216.353 417.783 216.137 418.332 215.704C418.881 215.264 419.296 214.67 419.576 213.92C419.863 213.169 420.006 212.324 420.006 211.385C420.006 210.458 419.866 209.625 419.585 208.887C419.311 208.149 418.896 207.567 418.341 207.14C417.792 206.713 417.106 206.499 416.283 206.499C415.49 206.499 414.819 206.704 414.27 207.112C413.727 207.521 413.315 208.091 413.035 208.823C412.754 209.555 412.614 210.409 412.614 211.385ZM426.828 223.682C426.419 223.682 426.047 223.648 425.712 223.581C425.376 223.52 425.126 223.453 424.962 223.38L425.62 221.138C426.121 221.273 426.566 221.331 426.956 221.312C427.347 221.294 427.691 221.148 427.99 220.873C428.295 220.599 428.563 220.15 428.795 219.528L429.134 218.595L423.992 204.358H426.92L430.479 215.264H430.625L434.184 204.358H437.121L431.33 220.287C431.061 221.019 430.72 221.639 430.305 222.145C429.89 222.657 429.396 223.041 428.823 223.298C428.249 223.554 427.584 223.682 426.828 223.682ZM436.905 222.465V216.042H438.048C438.341 215.774 438.588 215.454 438.789 215.081C438.997 214.709 439.171 214.267 439.311 213.755C439.457 213.242 439.579 212.645 439.677 211.962C439.775 211.272 439.86 210.485 439.933 209.601L440.372 204.358H449.924V216.042H452.084V222.465H449.412V218.412H439.613V222.465H436.905ZM440.976 216.042H447.253V206.701H442.824L442.532 209.601C442.391 211.077 442.214 212.358 442.001 213.444C441.787 214.523 441.446 215.39 440.976 216.042ZM464.024 210.205V212.575H456.412V210.205H464.024ZM457.181 204.358V218.412H454.5V204.358H457.181ZM465.937 204.358V218.412H463.265V204.358H465.937ZM472.019 214.578L478.214 204.358H481.16V218.412H478.479V208.183L472.312 218.412H469.339V204.358H472.019V214.578ZM484.58 218.412V204.358H487.316V210.251H488.633L493.272 204.358H496.657L491.213 211.193L496.721 218.412H493.327L489.091 212.794H487.316V218.412H484.58ZM503.93 218.695C502.612 218.695 501.462 218.394 500.48 217.79C499.498 217.186 498.736 216.341 498.193 215.255C497.65 214.17 497.379 212.901 497.379 211.449C497.379 209.991 497.65 208.717 498.193 207.625C498.736 206.533 499.498 205.685 500.48 205.081C501.462 204.477 502.612 204.175 503.93 204.175C505.247 204.175 506.397 204.477 507.379 205.081C508.361 205.685 509.123 206.533 509.666 207.625C510.209 208.717 510.481 209.991 510.481 211.449C510.481 212.901 510.209 214.17 509.666 215.255C509.123 216.341 508.361 217.186 507.379 217.79C506.397 218.394 505.247 218.695 503.93 218.695ZM503.939 216.399C504.793 216.399 505.5 216.173 506.061 215.722C506.623 215.271 507.037 214.67 507.306 213.92C507.58 213.169 507.717 212.343 507.717 211.44C507.717 210.543 507.58 209.72 507.306 208.97C507.037 208.213 506.623 207.606 506.061 207.149C505.5 206.691 504.793 206.463 503.939 206.463C503.079 206.463 502.365 206.691 501.798 207.149C501.237 207.606 500.819 208.213 500.544 208.97C500.276 209.72 500.142 210.543 500.142 211.44C500.142 212.343 500.276 213.169 500.544 213.92C500.819 214.67 501.237 215.271 501.798 215.722C502.365 216.173 503.079 216.399 503.939 216.399ZM513.277 218.412V204.358H519.105C520.691 204.358 521.947 204.697 522.874 205.374C523.801 206.045 524.265 206.957 524.265 208.11C524.265 208.933 524.003 209.586 523.478 210.068C522.954 210.549 522.258 210.873 521.392 211.037C522.02 211.111 522.597 211.3 523.121 211.605C523.646 211.904 524.067 212.306 524.384 212.812C524.707 213.319 524.869 213.923 524.869 214.624C524.869 215.368 524.677 216.027 524.292 216.6C523.908 217.168 523.35 217.613 522.618 217.936C521.892 218.253 521.017 218.412 519.992 218.412H513.277ZM515.847 216.125H519.992C520.669 216.125 521.2 215.963 521.584 215.64C521.968 215.316 522.161 214.877 522.161 214.322C522.161 213.669 521.968 213.157 521.584 212.785C521.2 212.407 520.669 212.218 519.992 212.218H515.847V216.125ZM515.847 210.214H519.132C519.644 210.214 520.084 210.141 520.45 209.994C520.822 209.848 521.105 209.641 521.301 209.372C521.502 209.098 521.602 208.774 521.602 208.402C521.602 207.86 521.38 207.436 520.935 207.131C520.489 206.826 519.879 206.673 519.105 206.673H515.847V210.214Z" fill="#65788E"/>
<path d="M183.891 296.14V288.943L205.093 255.444H211.095V265.691H207.435L193.162 288.309V288.699H222.757V296.14H183.891ZM207.728 305.412V293.945L207.826 290.724V255.444H216.365V305.412H207.728ZM246.55 306.095C243.297 306.095 240.386 305.485 237.816 304.265C235.246 303.029 233.204 301.337 231.692 299.19C230.195 297.043 229.398 294.587 229.301 291.822H238.084C238.247 293.871 239.133 295.547 240.743 296.848C242.354 298.133 244.289 298.776 246.55 298.776C248.323 298.776 249.901 298.369 251.283 297.556C252.666 296.742 253.756 295.612 254.553 294.164C255.35 292.717 255.74 291.066 255.724 289.211C255.74 287.325 255.342 285.649 254.528 284.185C253.715 282.721 252.601 281.575 251.186 280.745C249.771 279.899 248.144 279.476 246.306 279.476C244.81 279.46 243.338 279.737 241.89 280.306C240.442 280.875 239.296 281.623 238.45 282.551L230.276 281.209L232.887 255.444H261.872V263.007H240.377L238.938 276.256H239.231C240.158 275.166 241.467 274.263 243.159 273.548C244.85 272.816 246.705 272.45 248.722 272.45C251.747 272.45 254.447 273.165 256.822 274.597C259.197 276.012 261.067 277.964 262.434 280.452C263.8 282.941 264.483 285.787 264.483 288.992C264.483 292.294 263.719 295.238 262.19 297.824C260.677 300.394 258.57 302.419 255.87 303.899C253.187 305.363 250.08 306.095 246.55 306.095Z" fill="#1E1E1E"/>
<rect x="285.529" y="254.324" width="133.118" height="52.1765" rx="17.1765" fill="#EAFAE5"/>
<path d="M300.559 278.265L311.294 267.53L322.029 278.265" stroke="#83BF6E" stroke-width="4.29412" stroke-linecap="round" stroke-linejoin="round"/>
<path d="M311.294 293.294V267.53" stroke="#83BF6E" stroke-width="4.29412" stroke-linecap="round"/>
<path d="M345.449 290.168C344.131 290.168 342.96 289.942 341.935 289.491C340.917 289.04 340.112 288.411 339.52 287.606C338.928 286.801 338.614 285.871 338.578 284.816H342.018C342.048 285.322 342.216 285.764 342.521 286.142C342.826 286.514 343.232 286.804 343.738 287.012C344.244 287.219 344.811 287.323 345.44 287.323C346.111 287.323 346.705 287.207 347.224 286.975C347.742 286.737 348.148 286.408 348.441 285.987C348.733 285.566 348.877 285.081 348.871 284.532C348.877 283.965 348.73 283.465 348.432 283.032C348.133 282.598 347.7 282.26 347.132 282.016C346.571 281.772 345.894 281.65 345.101 281.65H343.445V279.033H345.101C345.754 279.033 346.324 278.92 346.812 278.695C347.306 278.469 347.693 278.152 347.974 277.743C348.255 277.328 348.392 276.85 348.386 276.307C348.392 275.776 348.273 275.316 348.029 274.925C347.791 274.529 347.453 274.221 347.013 274.001C346.58 273.781 346.071 273.672 345.485 273.672C344.912 273.672 344.381 273.775 343.893 273.983C343.405 274.19 343.012 274.486 342.713 274.87C342.414 275.248 342.256 275.7 342.237 276.224H338.971C338.995 275.175 339.297 274.254 339.877 273.461C340.462 272.662 341.243 272.04 342.219 271.595C343.195 271.143 344.29 270.918 345.504 270.918C346.754 270.918 347.84 271.153 348.761 271.622C349.688 272.086 350.405 272.711 350.911 273.498C351.417 274.285 351.67 275.154 351.67 276.105C351.677 277.161 351.365 278.045 350.737 278.759C350.115 279.472 349.298 279.939 348.285 280.159V280.305C349.603 280.488 350.612 280.976 351.314 281.769C352.021 282.556 352.372 283.535 352.366 284.706C352.366 285.755 352.067 286.694 351.469 287.524C350.877 288.347 350.06 288.994 349.017 289.464C347.98 289.933 346.791 290.168 345.449 290.168ZM355.935 289.912L363.904 274.138V274.01H354.654V271.174H367.417V274.074L359.457 289.912H355.935ZM368.969 290.113C368.414 290.113 367.938 289.918 367.542 289.528C367.145 289.137 366.95 288.661 366.956 288.1C366.95 287.551 367.145 287.082 367.542 286.691C367.938 286.301 368.414 286.106 368.969 286.106C369.506 286.106 369.972 286.301 370.369 286.691C370.771 287.082 370.976 287.551 370.982 288.1C370.976 288.472 370.878 288.811 370.689 289.116C370.506 289.421 370.262 289.665 369.957 289.848C369.658 290.025 369.329 290.113 368.969 290.113ZM380.063 290.168C378.703 290.168 377.496 289.939 376.44 289.482C375.391 289.024 374.568 288.399 373.97 287.606C373.378 286.807 373.086 285.901 373.092 284.889C373.086 284.102 373.256 283.379 373.604 282.72C373.952 282.062 374.421 281.513 375.013 281.074C375.611 280.628 376.276 280.345 377.008 280.223V280.095C376.044 279.881 375.263 279.39 374.665 278.622C374.074 277.847 373.781 276.953 373.787 275.941C373.781 274.977 374.049 274.117 374.592 273.361C375.135 272.604 375.879 272.01 376.825 271.576C377.77 271.137 378.85 270.918 380.063 270.918C381.265 270.918 382.336 271.137 383.275 271.576C384.22 272.01 384.965 272.604 385.507 273.361C386.056 274.117 386.331 274.977 386.331 275.941C386.331 276.953 386.029 277.847 385.425 278.622C384.827 279.39 384.056 279.881 383.11 280.095V280.223C383.842 280.345 384.501 280.628 385.087 281.074C385.678 281.513 386.148 282.062 386.496 282.72C386.849 283.379 387.026 284.102 387.026 284.889C387.026 285.901 386.727 286.807 386.13 287.606C385.532 288.399 384.708 289.024 383.659 289.482C382.616 289.939 381.418 290.168 380.063 290.168ZM380.063 287.551C380.765 287.551 381.375 287.432 381.893 287.194C382.412 286.951 382.814 286.609 383.101 286.17C383.388 285.731 383.534 285.224 383.54 284.651C383.534 284.053 383.379 283.526 383.074 283.068C382.775 282.605 382.363 282.242 381.838 281.979C381.32 281.717 380.728 281.586 380.063 281.586C379.393 281.586 378.795 281.717 378.27 281.979C377.746 282.242 377.331 282.605 377.026 283.068C376.727 283.526 376.581 284.053 376.587 284.651C376.581 285.224 376.721 285.731 377.008 286.17C377.294 286.603 377.697 286.941 378.215 287.185C378.74 287.429 379.356 287.551 380.063 287.551ZM380.063 279.015C380.637 279.015 381.143 278.899 381.582 278.667C382.028 278.435 382.378 278.112 382.634 277.697C382.891 277.283 383.022 276.804 383.028 276.261C383.022 275.724 382.894 275.255 382.644 274.852C382.394 274.443 382.046 274.129 381.601 273.91C381.155 273.684 380.643 273.571 380.063 273.571C379.472 273.571 378.95 273.684 378.499 273.91C378.054 274.129 377.706 274.443 377.456 274.852C377.212 275.255 377.093 275.724 377.099 276.261C377.093 276.804 377.215 277.283 377.465 277.697C377.721 278.106 378.072 278.429 378.517 278.667C378.969 278.899 379.484 279.015 380.063 279.015ZM399.795 286.398V285.41C399.795 284.685 399.947 284.017 400.252 283.407C400.564 282.797 401.015 282.306 401.607 281.934C402.198 281.562 402.915 281.375 403.757 281.375C404.623 281.375 405.349 281.562 405.934 281.934C406.52 282.3 406.962 282.788 407.261 283.397C407.566 284.007 407.718 284.678 407.718 285.41V286.398C407.718 287.124 407.566 287.792 407.261 288.402C406.956 289.012 406.508 289.503 405.916 289.875C405.33 290.247 404.611 290.433 403.757 290.433C402.903 290.433 402.18 290.247 401.588 289.875C400.997 289.503 400.548 289.012 400.243 288.402C399.944 287.792 399.795 287.124 399.795 286.398ZM402.183 285.41V286.398C402.183 286.88 402.299 287.323 402.531 287.725C402.762 288.128 403.171 288.329 403.757 288.329C404.348 288.329 404.754 288.131 404.974 287.734C405.199 287.332 405.312 286.886 405.312 286.398V285.41C405.312 284.922 405.205 284.477 404.992 284.075C404.778 283.666 404.367 283.462 403.757 283.462C403.183 283.462 402.778 283.666 402.54 284.075C402.302 284.477 402.183 284.922 402.183 285.41ZM390.27 275.675V274.687C390.27 273.955 390.426 273.284 390.737 272.674C391.048 272.064 391.5 271.576 392.091 271.21C392.683 270.838 393.4 270.652 394.241 270.652C395.101 270.652 395.824 270.838 396.41 271.21C397.001 271.576 397.447 272.064 397.746 272.674C398.044 273.284 398.194 273.955 398.194 274.687V275.675C398.194 276.407 398.041 277.078 397.736 277.688C397.437 278.292 396.992 278.777 396.401 279.143C395.809 279.509 395.089 279.692 394.241 279.692C393.381 279.692 392.655 279.509 392.064 279.143C391.478 278.777 391.033 278.289 390.728 277.679C390.423 277.069 390.27 276.401 390.27 275.675ZM392.677 274.687V275.675C392.677 276.163 392.79 276.609 393.015 277.011C393.247 277.408 393.656 277.606 394.241 277.606C394.827 277.606 395.229 277.408 395.449 277.011C395.675 276.609 395.788 276.163 395.788 275.675V274.687C395.788 274.199 395.681 273.754 395.467 273.351C395.254 272.943 394.845 272.738 394.241 272.738C393.662 272.738 393.256 272.943 393.024 273.351C392.793 273.76 392.677 274.205 392.677 274.687ZM391.313 289.912L404.196 271.174H406.483L393.601 289.912H391.313Z" fill="#83BF6E"/>
</svg>
