<svg width="940" height="440" viewBox="0 0 940 440" fill="none" xmlns="http://www.w3.org/2000/svg">
<rect width="940" height="480" rx="11.2007" fill="#FAFAFA"/>
<path d="M53.0422 58.809H49.3232C49.2171 58.1991 49.0216 57.6588 48.7365 57.1882C48.4515 56.7109 48.0968 56.3065 47.6725 55.975C47.2483 55.6436 46.7643 55.395 46.2207 55.2292C45.6838 55.0569 45.1037 54.9707 44.4806 54.9707C43.3735 54.9707 42.3924 55.2491 41.5372 55.806C40.682 56.3562 40.0125 57.165 39.5286 58.2323C39.0446 59.2929 38.8027 60.5889 38.8027 62.1203C38.8027 63.6781 39.0446 64.9907 39.5286 66.058C40.0191 67.1187 40.6887 67.9208 41.5372 68.4644C42.3924 69.0014 43.3702 69.2699 44.4706 69.2699C45.0805 69.2699 45.6506 69.1903 46.181 69.0312C46.7179 68.8655 47.1985 68.6235 47.6228 68.3053C48.0537 67.9871 48.415 67.596 48.7067 67.132C49.005 66.6679 49.2105 66.1376 49.3232 65.541L53.0422 65.5608C52.903 66.5287 52.6013 67.4369 52.1373 68.2854C51.6799 69.134 51.0799 69.8831 50.3375 70.5327C49.595 71.1758 48.7266 71.6796 47.7322 72.0442C46.7378 72.4022 45.634 72.5812 44.4209 72.5812C42.631 72.5812 41.0334 72.1668 39.628 71.3382C38.2226 70.5095 37.1155 69.313 36.3068 67.7485C35.498 66.184 35.0936 64.3079 35.0936 62.1203C35.0936 59.926 35.5013 58.05 36.3167 56.4921C37.1321 54.9276 38.2425 53.731 39.6479 52.9024C41.0533 52.0737 42.6443 51.6594 44.4209 51.6594C45.5545 51.6594 46.6085 51.8185 47.583 52.1367C48.5575 52.4549 49.4259 52.9223 50.1883 53.5388C50.9507 54.1487 51.5771 54.8978 52.0677 55.7861C52.5649 56.6678 52.8897 57.6754 53.0422 58.809ZM62.4632 72.601C60.9319 72.601 59.6094 72.2828 58.4956 71.6464C57.3886 71.0034 56.5367 70.0952 55.9401 68.9218C55.3435 67.7418 55.0452 66.353 55.0452 64.7554C55.0452 63.1843 55.3435 61.8054 55.9401 60.6188C56.5434 59.4255 57.3853 58.4974 58.4658 57.8345C59.5464 57.165 60.8159 56.8302 62.2743 56.8302C63.2156 56.8302 64.104 56.9827 64.9392 57.2876C65.7811 57.5859 66.5236 58.05 67.1666 58.6797C67.8163 59.3095 68.3267 60.1116 68.698 61.0861C69.0692 62.054 69.2548 63.2075 69.2548 64.5466V65.6503H56.7356V63.224H65.8043C65.7977 62.5346 65.6486 61.9214 65.3569 61.3844C65.0652 60.8409 64.6575 60.4133 64.1338 60.1017C63.6167 59.7901 63.0134 59.6343 62.324 59.6343C61.5882 59.6343 60.9418 59.8133 60.385 60.1713C59.8281 60.5227 59.3939 60.9867 59.0823 61.5634C58.7774 62.1335 58.6216 62.76 58.615 63.4428V65.5608C58.615 66.4492 58.7774 67.2115 59.1022 67.8479C59.4271 68.4777 59.8812 68.9616 60.4645 69.2997C61.0479 69.6312 61.7307 69.7969 62.5129 69.7969C63.0366 69.7969 63.5106 69.724 63.9349 69.5781C64.3592 69.4257 64.7271 69.2036 65.0387 68.9119C65.3502 68.6202 65.5856 68.2589 65.7447 67.828L69.1057 68.2059C68.8935 69.0942 68.4892 69.8698 67.8925 70.5327C67.3025 71.189 66.5468 71.6995 65.6254 72.0641C64.7039 72.4221 63.6499 72.601 62.4632 72.601ZM71.7401 78.0304V57.0291H75.2801V59.5548H75.4889C75.6745 59.1836 75.9364 58.7891 76.2745 58.3715C76.6126 57.9472 77.07 57.5859 77.6467 57.2876C78.2234 56.9827 78.9593 56.8302 79.8542 56.8302C81.0342 56.8302 82.0982 57.1318 83.0462 57.7351C84.0008 58.3317 84.7565 59.2167 85.3134 60.3901C85.8769 61.5568 86.1586 62.9887 86.1586 64.6858C86.1586 66.363 85.8835 67.7883 85.3333 68.9616C84.783 70.135 84.0339 71.0299 83.086 71.6464C82.138 72.263 81.0641 72.5712 79.8642 72.5712C78.9891 72.5712 78.2632 72.4254 77.6865 72.1337C77.1097 71.842 76.6457 71.4907 76.2943 71.0796C75.9496 70.662 75.6811 70.2676 75.4889 69.8963H75.3397V78.0304H71.7401ZM75.2701 64.6659C75.2701 65.6536 75.4094 66.5188 75.6878 67.2612C75.9728 68.0037 76.3805 68.5838 76.9109 69.0014C77.4478 69.4124 78.0975 69.6179 78.8598 69.6179C79.6554 69.6179 80.3216 69.4058 80.8586 68.9815C81.3955 68.5506 81.7999 67.9639 82.0717 67.2215C82.3501 66.4724 82.4893 65.6205 82.4893 64.6659C82.4893 63.7179 82.3534 62.876 82.0816 62.1402C81.8098 61.4043 81.4055 60.8276 80.8685 60.41C80.3315 59.9923 79.662 59.7835 78.8598 59.7835C78.0909 59.7835 77.4379 59.9857 76.9009 60.3901C76.364 60.7944 75.9563 61.3612 75.6778 62.0905C75.406 62.8197 75.2701 63.6781 75.2701 64.6659ZM86.9981 59.9824V57.0291H100.363V59.9824H95.4205V72.3027H91.9402V59.9824H86.9981ZM106.139 67.4303L112.255 57.0291H115.954V72.3027H112.473V61.8916L106.378 72.3027H102.669V57.0291H106.139V67.4303ZM126.021 77.4934V51.9378H129.631V77.4934H126.021ZM126.021 72.601C124.901 72.601 123.877 72.4121 122.949 72.0343C122.02 71.6564 121.218 71.1194 120.542 70.4234C119.873 69.7273 119.352 68.8986 118.981 67.9374C118.616 66.9695 118.434 65.8989 118.434 64.7256C118.434 63.5522 118.616 62.4816 118.981 61.5137C119.352 60.5459 119.873 59.7139 120.542 59.0178C121.218 58.3151 122.02 57.7748 122.949 57.397C123.877 57.0191 124.901 56.8302 126.021 56.8302H126.787V72.601H126.021ZM126.021 69.6975H126.469V59.7338H126.021C125.385 59.7338 124.821 59.8664 124.331 60.1315C123.847 60.3901 123.439 60.7514 123.108 61.2154C122.783 61.6728 122.534 62.2032 122.362 62.8064C122.196 63.403 122.113 64.0428 122.113 64.7256C122.113 65.6338 122.262 66.4657 122.561 67.2215C122.859 67.9706 123.297 68.5705 123.873 69.0213C124.457 69.4721 125.173 69.6975 126.021 69.6975ZM129.631 72.601H128.865V56.8302H129.631C130.751 56.8302 131.775 57.0191 132.703 57.397C133.632 57.7748 134.43 58.3151 135.1 59.0178C135.776 59.7139 136.296 60.5459 136.661 61.5137C137.032 62.4816 137.218 63.5522 137.218 64.7256C137.218 65.8989 137.032 66.9695 136.661 67.9374C136.296 68.8986 135.776 69.7273 135.1 70.4234C134.43 71.1194 133.632 71.6564 132.703 72.0343C131.775 72.4121 130.751 72.601 129.631 72.601ZM129.631 69.6975C130.274 69.6975 130.837 69.5682 131.321 69.3097C131.805 69.0511 132.21 68.6931 132.534 68.2357C132.866 67.7783 133.114 67.2513 133.28 66.6547C133.446 66.0514 133.529 65.4084 133.529 64.7256C133.529 63.8174 133.383 62.9854 133.091 62.2297C132.8 61.4739 132.362 60.8707 131.779 60.4199C131.202 59.9625 130.486 59.7338 129.631 59.7338H129.183V69.6975H129.631ZM143.166 67.4303L149.282 57.0291H152.981V72.3027H149.5V61.8916L143.405 72.3027H139.696V57.0291H143.166V67.4303ZM156.117 72.3027V57.0291H159.717V63.1942H161.029L165.623 57.0291H169.959L164.301 64.5267L170.019 72.3027H165.663L161.477 66.5453H159.717V72.3027H156.117ZM175.895 72.611C174.927 72.611 174.055 72.4386 173.279 72.0939C172.51 71.7426 171.901 71.2255 171.45 70.5427C171.006 69.8599 170.784 69.018 170.784 68.017C170.784 67.1552 170.943 66.4425 171.261 65.879C171.579 65.3156 172.013 64.8648 172.564 64.5267C173.114 64.1886 173.734 63.9334 174.423 63.761C175.119 63.582 175.838 63.4528 176.581 63.3732C177.476 63.2804 178.202 63.1975 178.759 63.1246C179.315 63.0451 179.72 62.9257 179.972 62.7666C180.23 62.6009 180.359 62.3457 180.359 62.001V61.9413C180.359 61.1922 180.137 60.6121 179.693 60.2011C179.249 59.7901 178.609 59.5846 177.774 59.5846C176.892 59.5846 176.193 59.7769 175.676 60.1614C175.165 60.5459 174.821 61 174.642 61.5237L171.281 61.0464C171.546 60.1183 171.983 59.3427 172.593 58.7195C173.203 58.0897 173.949 57.6191 174.831 57.3075C175.712 56.9893 176.687 56.8302 177.754 56.8302C178.49 56.8302 179.223 56.9164 179.952 57.0887C180.681 57.2611 181.347 57.5461 181.95 57.9439C182.554 58.335 183.038 58.8687 183.402 59.5448C183.773 60.221 183.959 61.0662 183.959 62.0805V72.3027H180.499V70.2046H180.379C180.161 70.6289 179.852 71.0266 179.455 71.3978C179.063 71.7625 178.57 72.0575 177.973 72.2828C177.383 72.5016 176.69 72.611 175.895 72.611ZM176.829 69.9659C177.552 69.9659 178.178 69.8234 178.709 69.5384C179.239 69.2467 179.647 68.8622 179.932 68.3849C180.224 67.9076 180.369 67.3872 180.369 66.8237V65.0239C180.257 65.1167 180.064 65.2029 179.793 65.2824C179.527 65.362 179.229 65.4316 178.898 65.4912C178.566 65.5509 178.238 65.6039 177.913 65.6503C177.588 65.6967 177.307 65.7365 177.068 65.7697C176.531 65.8426 176.05 65.9619 175.626 66.1276C175.202 66.2934 174.867 66.5254 174.622 66.8237C174.377 67.1154 174.254 67.4933 174.254 67.9573C174.254 68.6202 174.496 69.1207 174.98 69.4588C175.464 69.7969 176.08 69.9659 176.829 69.9659ZM185.308 59.9824V57.0291H198.673V59.9824H193.731V72.3027H190.25V59.9824H185.308ZM203.415 62.001H207.92C209.869 62.001 211.377 62.4749 212.444 63.4229C213.512 64.3709 214.048 65.6139 214.055 67.1518C214.048 68.1529 213.803 69.0412 213.319 69.8168C212.842 70.5924 212.146 71.2023 211.231 71.6464C210.323 72.084 209.219 72.3027 207.92 72.3027H200.979V57.0291H204.449V69.3494H207.92C208.702 69.3494 209.345 69.1506 209.849 68.7528C210.353 68.3484 210.605 67.8313 210.605 67.2016C210.605 66.5386 210.353 65.9984 209.849 65.5807C209.345 65.1631 208.702 64.9543 207.92 64.9543H203.415V62.001ZM215.954 72.3027V57.0291H219.554V72.3027H215.954ZM232.562 67.4303L238.677 57.0291H242.376V72.3027H238.896V61.8916L232.8 72.3027H229.091V57.0291H232.562V67.4303ZM250.844 72.3027L250.824 69.3395H251.351C251.749 69.3395 252.084 69.25 252.356 69.071C252.628 68.892 252.853 68.5937 253.032 68.1761C253.211 67.7518 253.35 67.1817 253.45 66.4657C253.549 65.7498 253.619 64.8581 253.658 63.7908L253.927 57.0291H265.064V72.3027H261.584V59.9824H257.198L256.96 64.9045C256.9 66.1774 256.758 67.2811 256.532 68.2158C256.313 69.1439 256.002 69.9096 255.597 70.5129C255.2 71.1161 254.699 71.5669 254.096 71.8652C253.493 72.1569 252.78 72.3027 251.958 72.3027H250.844ZM271.599 67.4303L277.714 57.0291H281.413V72.3027H277.933V61.8916L271.838 72.3027H268.128V57.0291H271.599V67.4303ZM297.447 57.0291V69.6179H299.784V77.215H296.264V72.3027H284.55V57.0291H288.02V69.3494H294.007V57.0291H297.447ZM308.772 72.601C307.241 72.601 305.918 72.2828 304.805 71.6464C303.698 71.0034 302.846 70.0952 302.249 68.9218C301.653 67.7418 301.354 66.353 301.354 64.7554C301.354 63.1843 301.653 61.8054 302.249 60.6188C302.852 59.4255 303.694 58.4974 304.775 57.8345C305.855 57.165 307.125 56.8302 308.583 56.8302C309.525 56.8302 310.413 56.9827 311.248 57.2876C312.09 57.5859 312.833 58.05 313.476 58.6797C314.125 59.3095 314.636 60.1116 315.007 61.0861C315.378 62.054 315.564 63.2075 315.564 64.5466V65.6503H303.045V63.224H312.113C312.107 62.5346 311.958 61.9214 311.666 61.3844C311.374 60.8409 310.967 60.4133 310.443 60.1017C309.926 59.7901 309.323 59.6343 308.633 59.6343C307.897 59.6343 307.251 59.8133 306.694 60.1713C306.137 60.5227 305.703 60.9867 305.391 61.5634C305.087 62.1335 304.931 62.76 304.924 63.4428V65.5608C304.924 66.4492 305.087 67.2115 305.411 67.8479C305.736 68.4777 306.19 68.9616 306.774 69.2997C307.357 69.6312 308.04 69.7969 308.822 69.7969C309.346 69.7969 309.82 69.724 310.244 69.5781C310.668 69.4257 311.036 69.2036 311.348 68.9119C311.659 68.6202 311.895 68.2589 312.054 67.828L315.415 68.2059C315.203 69.0942 314.798 69.8698 314.202 70.5327C313.612 71.189 312.856 71.6995 311.934 72.0641C311.013 72.4221 309.959 72.601 308.772 72.601ZM328.54 63.1743V66.1276H320.406V63.1743H328.54ZM321.52 57.0291V72.3027H318.049V57.0291H321.52ZM330.897 57.0291V72.3027H327.436V57.0291H330.897ZM333.133 68.1164H336.703C336.736 68.6865 336.991 69.1273 337.469 69.4389C337.946 69.7505 338.566 69.9063 339.328 69.9063C340.104 69.9063 340.757 69.7372 341.287 69.3991C341.824 69.0544 342.093 68.534 342.093 67.838C342.093 67.427 341.99 67.0657 341.784 66.7541C341.579 66.4359 341.29 66.1906 340.919 66.0183C340.548 65.8459 340.11 65.7597 339.607 65.7597H337.27V63.2042H339.607C340.356 63.2042 340.923 63.0318 341.307 62.6871C341.698 62.3424 341.894 61.9082 341.894 61.3844C341.894 60.821 341.688 60.3635 341.277 60.0122C340.873 59.6609 340.313 59.4852 339.597 59.4852C338.881 59.4852 338.284 59.6476 337.807 59.9724C337.336 60.2973 337.091 60.7149 337.071 61.2253H333.521C333.534 60.337 333.799 59.5647 334.317 58.9084C334.84 58.2522 335.543 57.7417 336.425 57.3771C337.313 57.0125 338.314 56.8302 339.428 56.8302C340.621 56.8302 341.652 57.0092 342.52 57.3672C343.389 57.7251 344.058 58.2256 344.529 58.8687C345 59.5051 345.235 60.2542 345.235 61.116C345.235 61.9446 344.976 62.6307 344.459 63.1743C343.942 63.7113 343.246 64.0958 342.371 64.3278V64.4869C342.974 64.5201 343.518 64.6924 344.002 65.004C344.486 65.3089 344.87 65.7233 345.155 66.247C345.44 66.7707 345.583 67.3772 345.583 68.0667C345.583 69.0014 345.314 69.8102 344.777 70.493C344.24 71.1691 343.501 71.6895 342.56 72.0541C341.625 72.4187 340.555 72.601 339.348 72.601C338.175 72.601 337.124 72.4254 336.196 72.074C335.274 71.7161 334.542 71.2023 333.998 70.5327C333.455 69.8632 333.166 69.0577 333.133 68.1164ZM351.327 67.4303L357.443 57.0291H361.142V72.3027H357.661V61.8916L351.566 72.3027H347.857V57.0291H351.327V67.4303ZM367.749 67.4303L373.864 57.0291H377.563V72.3027H374.083V61.8916L367.987 72.3027H364.278V57.0291H367.749V67.4303Z" fill="#1E1E1E"/>
<rect x="701.851" y="33.6021" width="205.405" height="56.4014" rx="20" fill="white"/>
<rect x="702.831" y="34.5821" width="203.445" height="54.4413" rx="15.821" stroke="white" stroke-width="1.96012"/>
<path d="M730.635 68.9976C729.633 68.9976 728.742 68.8259 727.962 68.4825C727.188 68.1392 726.575 67.6612 726.125 67.0486C725.675 66.4361 725.436 65.7284 725.408 64.9256H728.025C728.048 65.3108 728.176 65.6472 728.408 65.9349C728.64 66.218 728.949 66.4384 729.334 66.5962C729.719 66.754 730.15 66.8329 730.628 66.8329C731.139 66.8329 731.591 66.7447 731.986 66.5684C732.38 66.3874 732.689 66.1368 732.911 65.8166C733.134 65.4964 733.243 65.1275 733.239 64.7099C733.243 64.2783 733.132 63.8978 732.905 63.5683C732.677 63.2388 732.348 62.9813 731.916 62.7957C731.489 62.6101 730.974 62.5173 730.371 62.5173H729.111V60.5265H730.371C730.867 60.5265 731.301 60.4407 731.673 60.269C732.048 60.0973 732.343 59.856 732.557 59.5451C732.77 59.2295 732.874 58.8652 732.87 58.4522C732.874 58.0485 732.784 57.6982 732.598 57.4012C732.417 57.0995 732.16 56.8652 731.826 56.6982C731.496 56.5311 731.109 56.4476 730.663 56.4476C730.227 56.4476 729.823 56.5265 729.452 56.6842C729.081 56.842 728.782 57.0671 728.554 57.3594C728.327 57.6471 728.206 57.9905 728.192 58.3896H725.707C725.726 57.5914 725.955 56.8907 726.396 56.2875C726.842 55.6796 727.436 55.2063 728.178 54.8675C728.921 54.5241 729.754 54.3524 730.677 54.3524C731.628 54.3524 732.454 54.5311 733.155 54.8884C733.86 55.2411 734.406 55.7167 734.791 56.3153C735.176 56.9139 735.369 57.5752 735.369 58.2991C735.373 59.1019 735.137 59.7748 734.659 60.3177C734.185 60.8606 733.563 61.2156 732.793 61.3827V61.494C733.796 61.6333 734.563 62.0045 735.097 62.6077C735.635 63.2064 735.902 63.9512 735.898 64.8421C735.898 65.6403 735.67 66.3549 735.215 66.986C734.765 67.6125 734.144 68.1043 733.35 68.4617C732.561 68.819 731.656 68.9976 730.635 68.9976ZM741.195 69.0185C740.518 69.0185 739.908 68.8979 739.365 68.6566C738.826 68.4106 738.399 68.0487 738.084 67.5707C737.773 67.0927 737.618 66.5034 737.618 65.8027C737.618 65.1994 737.729 64.7006 737.952 64.3061C738.174 63.9117 738.478 63.5962 738.863 63.3595C739.249 63.1228 739.683 62.9442 740.165 62.8235C740.652 62.6982 741.156 62.6077 741.676 62.5521C742.302 62.4871 742.81 62.4291 743.2 62.378C743.59 62.3224 743.873 62.2388 744.049 62.1275C744.23 62.0115 744.321 61.8328 744.321 61.5915V61.5497C744.321 61.0254 744.165 60.6193 743.854 60.3316C743.543 60.0439 743.096 59.9001 742.511 59.9001C741.894 59.9001 741.404 60.0346 741.042 60.3038C740.685 60.5729 740.444 60.8908 740.318 61.2574L737.966 60.9233C738.151 60.2736 738.457 59.7307 738.884 59.2945C739.311 58.8536 739.833 58.5242 740.451 58.3061C741.068 58.0833 741.75 57.972 742.497 57.972C743.012 57.972 743.525 58.0323 744.035 58.1529C744.546 58.2736 745.012 58.4731 745.434 58.7515C745.857 59.0253 746.195 59.3989 746.451 59.8722C746.71 60.3455 746.84 60.9372 746.84 61.6472V68.8027H744.418V67.334H744.335C744.181 67.631 743.966 67.9095 743.687 68.1693C743.413 68.4245 743.068 68.631 742.65 68.7888C742.237 68.9419 741.752 69.0185 741.195 69.0185ZM741.85 67.167C742.355 67.167 742.794 67.0672 743.165 66.8677C743.536 66.6635 743.822 66.3943 744.021 66.0602C744.226 65.7261 744.328 65.3618 744.328 64.9674V63.7075C744.249 63.7725 744.114 63.8328 743.924 63.8885C743.738 63.9442 743.529 63.9929 743.297 64.0347C743.065 64.0764 742.836 64.1136 742.608 64.1461C742.381 64.1785 742.184 64.2064 742.017 64.2296C741.641 64.2806 741.304 64.3642 741.007 64.4802C740.71 64.5962 740.476 64.7586 740.304 64.9674C740.133 65.1716 740.047 65.4361 740.047 65.7609C740.047 66.225 740.216 66.5753 740.555 66.812C740.894 67.0486 741.325 67.167 741.85 67.167ZM753.844 68.8027V58.1112H758.334C759.601 58.1112 760.601 58.3641 761.334 58.8699C762.072 59.3757 762.44 60.081 762.44 60.9859C762.44 61.5845 762.232 62.0741 761.814 62.4546C761.401 62.8305 760.837 63.0834 760.123 63.2133C760.684 63.2597 761.176 63.4013 761.598 63.6379C762.025 63.8746 762.359 64.1855 762.601 64.5707C762.842 64.9558 762.963 65.399 762.963 65.9001C762.963 66.4895 762.807 67.0022 762.496 67.4384C762.19 67.87 761.742 68.2064 761.153 68.4477C760.568 68.6844 759.858 68.8027 759.023 68.8027H753.844ZM756.204 66.8189H759.023C759.487 66.8189 759.851 66.7099 760.116 66.4918C760.38 66.2691 760.512 65.9674 760.512 65.5869C760.512 65.1461 760.38 64.8004 760.116 64.5498C759.851 64.2945 759.487 64.1669 759.023 64.1669H756.204V66.8189ZM756.204 62.5381H758.382C758.726 62.5381 759.02 62.4894 759.266 62.392C759.512 62.2899 759.7 62.1483 759.83 61.9674C759.96 61.7818 760.025 61.5613 760.025 61.3061C760.025 60.9395 759.874 60.6518 759.573 60.443C759.276 60.2342 758.863 60.1298 758.334 60.1298H756.204V62.5381ZM769.51 69.0116C768.442 69.0116 767.526 68.7772 766.76 68.3085C765.999 67.8398 765.412 67.1925 764.999 66.3665C764.591 65.5359 764.387 64.5799 764.387 63.4987C764.387 62.4129 764.595 61.4546 765.013 60.624C765.431 59.7887 766.02 59.139 766.781 58.675C767.547 58.2063 768.452 57.972 769.496 57.972C770.363 57.972 771.131 58.132 771.8 58.4522C772.473 58.7678 773.009 59.2156 773.408 59.7956C773.807 60.3711 774.034 61.0439 774.09 61.8142H771.681C771.584 61.2991 771.352 60.8699 770.985 60.5265C770.623 60.1785 770.138 60.0045 769.531 60.0045C769.015 60.0045 768.563 60.1437 768.173 60.4221C767.783 60.6959 767.479 61.0903 767.261 61.6054C767.048 62.1205 766.941 62.7377 766.941 63.4569C766.941 64.1855 767.048 64.812 767.261 65.3363C767.475 65.8561 767.774 66.2575 768.159 66.5405C768.549 66.8189 769.006 66.9582 769.531 66.9582C769.902 66.9582 770.234 66.8886 770.526 66.7493C770.823 66.6055 771.071 66.399 771.271 66.1298C771.47 65.8607 771.607 65.5335 771.681 65.1484H774.09C774.029 65.9048 773.807 66.5753 773.422 67.16C773.036 67.7401 772.512 68.1948 771.848 68.5243C771.185 68.8491 770.405 69.0116 769.51 69.0116ZM780.696 69.0116C779.624 69.0116 778.698 68.7888 777.919 68.3433C777.144 67.8932 776.548 67.2575 776.13 66.4361C775.712 65.6101 775.503 64.6379 775.503 63.5196C775.503 62.4198 775.712 61.4546 776.13 60.624C776.552 59.7887 777.141 59.139 777.898 58.675C778.654 58.2063 779.543 57.972 780.564 57.972C781.223 57.972 781.845 58.0787 782.429 58.2921C783.019 58.501 783.538 58.8258 783.988 59.2666C784.443 59.7075 784.801 60.269 785.06 60.9511C785.32 61.6286 785.45 62.4361 785.45 63.3734V64.1461H776.687V62.4477H783.035C783.03 61.965 782.926 61.5358 782.722 61.1599C782.517 60.7794 782.232 60.4801 781.865 60.262C781.503 60.0439 781.081 59.9349 780.599 59.9349C780.084 59.9349 779.631 60.0601 779.241 60.3107C778.851 60.5567 778.548 60.8815 778.329 61.2852C778.116 61.6843 778.007 62.1228 778.002 62.6008V64.0834C778.002 64.7052 778.116 65.2389 778.343 65.6844C778.571 66.1252 778.889 66.464 779.297 66.7006C779.705 66.9326 780.183 67.0486 780.731 67.0486C781.097 67.0486 781.429 66.9976 781.726 66.8955C782.023 66.7888 782.281 66.6333 782.499 66.4292C782.717 66.225 782.882 65.9721 782.993 65.6704L785.346 65.9349C785.197 66.5568 784.914 67.0997 784.497 67.5637C784.084 68.0231 783.555 68.3805 782.91 68.6357C782.265 68.8863 781.527 69.0116 780.696 69.0116ZM792.052 68.8027V58.1112H796.542C797.808 58.1112 798.808 58.3641 799.542 58.8699C800.279 59.3757 800.648 60.081 800.648 60.9859C800.648 61.5845 800.439 62.0741 800.022 62.4546C799.609 62.8305 799.045 63.0834 798.33 63.2133C798.892 63.2597 799.384 63.4013 799.806 63.6379C800.233 63.8746 800.567 64.1855 800.808 64.5707C801.05 64.9558 801.17 65.399 801.17 65.9001C801.17 66.4895 801.015 67.0022 800.704 67.4384C800.398 67.87 799.95 68.2064 799.361 68.4477C798.776 68.6844 798.066 68.8027 797.231 68.8027H792.052ZM794.412 66.8189H797.231C797.695 66.8189 798.059 66.7099 798.323 66.4918C798.588 66.2691 798.72 65.9674 798.72 65.5869C798.72 65.1461 798.588 64.8004 798.323 64.5498C798.059 64.2945 797.695 64.1669 797.231 64.1669H794.412V66.8189ZM794.412 62.5381H796.59C796.934 62.5381 797.228 62.4894 797.474 62.392C797.72 62.2899 797.908 62.1483 798.038 61.9674C798.168 61.7818 798.233 61.5613 798.233 61.3061C798.233 60.9395 798.082 60.6518 797.781 60.443C797.484 60.2342 797.071 60.1298 796.542 60.1298H794.412V62.5381ZM803.054 72.8121V58.1112H805.532V59.8792H805.678C805.808 59.6193 805.991 59.3432 806.228 59.0509C806.465 58.7539 806.785 58.501 807.188 58.2921C807.592 58.0787 808.107 57.972 808.734 57.972C809.56 57.972 810.305 58.1831 810.968 58.6054C811.636 59.023 812.165 59.6425 812.555 60.4639C812.95 61.2806 813.147 62.2829 813.147 63.4709C813.147 64.6449 812.954 65.6426 812.569 66.464C812.184 67.2853 811.66 67.9118 810.996 68.3433C810.332 68.7749 809.581 68.9907 808.741 68.9907C808.128 68.9907 807.62 68.8886 807.216 68.6844C806.813 68.4802 806.488 68.2343 806.242 67.9466C806.001 67.6542 805.813 67.3781 805.678 67.1183H805.574V72.8121H803.054ZM805.525 63.4569C805.525 64.1484 805.622 64.754 805.817 65.2737C806.017 65.7934 806.302 66.1994 806.673 66.4918C807.049 66.7795 807.504 66.9234 808.038 66.9234C808.595 66.9234 809.061 66.7749 809.437 66.4779C809.813 66.1762 810.096 65.7656 810.286 65.2458C810.481 64.7215 810.578 64.1252 810.578 63.4569C810.578 62.7934 810.483 62.204 810.293 61.6889C810.103 61.1739 809.82 60.7701 809.444 60.4778C809.068 60.1854 808.599 60.0393 808.038 60.0393C807.499 60.0393 807.042 60.1808 806.666 60.4639C806.291 60.7469 806.005 61.1437 805.81 61.6541C805.62 62.1646 805.525 62.7655 805.525 63.4569ZM819.842 69.0116C818.77 69.0116 817.844 68.7888 817.065 68.3433C816.29 67.8932 815.693 67.2575 815.276 66.4361C814.858 65.6101 814.649 64.6379 814.649 63.5196C814.649 62.4198 814.858 61.4546 815.276 60.624C815.698 59.7887 816.287 59.139 817.044 58.675C817.8 58.2063 818.689 57.972 819.71 57.972C820.369 57.972 820.99 58.0787 821.575 58.2921C822.164 58.501 822.684 58.8258 823.134 59.2666C823.589 59.7075 823.946 60.269 824.206 60.9511C824.466 61.6286 824.596 62.4361 824.596 63.3734V64.1461H815.832V62.4477H822.181C822.176 61.965 822.072 61.5358 821.867 61.1599C821.663 60.7794 821.378 60.4801 821.011 60.262C820.649 60.0439 820.227 59.9349 819.744 59.9349C819.229 59.9349 818.777 60.0601 818.387 60.3107C817.997 60.5567 817.693 60.8815 817.475 61.2852C817.262 61.6843 817.153 62.1228 817.148 62.6008V64.0834C817.148 64.7052 817.262 65.2389 817.489 65.6844C817.716 66.1252 818.034 66.464 818.443 66.7006C818.851 66.9326 819.329 67.0486 819.877 67.0486C820.243 67.0486 820.575 66.9976 820.872 66.8955C821.169 66.7888 821.427 66.6333 821.645 66.4292C821.863 66.225 822.027 65.9721 822.139 65.6704L824.492 65.9349C824.343 66.5568 824.06 67.0997 823.642 67.5637C823.229 68.0231 822.7 68.3805 822.055 68.6357C821.41 68.8863 820.672 69.0116 819.842 69.0116ZM832.685 65.8723L835.859 58.1112H837.891L833.569 68.8027H831.808L827.583 58.1112H829.594L832.685 65.8723ZM828.961 58.1112V68.8027H826.532V58.1112H828.961ZM836.513 68.8027V58.1112H838.922V68.8027H836.513ZM847.587 68.8027V60.1576H845.303C844.723 60.1576 844.278 60.2922 843.967 60.5613C843.656 60.8305 843.503 61.1646 843.508 61.5637C843.503 61.9627 843.649 62.2922 843.946 62.5521C844.243 62.8119 844.668 62.9419 845.22 62.9419H848.38V64.7795H845.22C844.366 64.7795 843.628 64.6449 843.006 64.3758C842.385 64.1066 841.907 63.7261 841.573 63.2342C841.238 62.7423 841.071 62.1669 841.071 61.508C841.071 60.8212 841.241 60.2249 841.579 59.7191C841.923 59.2086 842.41 58.8142 843.041 58.5358C843.677 58.2527 844.431 58.1112 845.303 58.1112H849.946V68.8027H847.587ZM840.682 68.8027L843.668 63.3177H846.153L843.16 68.8027H840.682Z" fill="#65788E"/>
<path d="M868.053 59.0027L873.654 64.603L879.254 59.0027" stroke="#65788E" stroke-width="1.40009" stroke-linecap="round" stroke-linejoin="round"/>
<path d="M37.674 137.936C37.0595 137.936 36.5106 137.83 36.0273 137.618C35.5471 137.406 35.1667 137.112 34.8863 136.737C34.6089 136.358 34.4597 135.919 34.4388 135.421H35.8439C35.8618 135.693 35.9528 135.928 36.1168 136.128C36.2839 136.325 36.5017 136.477 36.7701 136.584C37.0386 136.692 37.3369 136.746 37.6651 136.746C38.026 136.746 38.3452 136.683 38.6227 136.558C38.9031 136.432 39.1223 136.258 39.2805 136.034C39.4386 135.807 39.5176 135.546 39.5176 135.251C39.5176 134.944 39.4386 134.674 39.2805 134.441C39.1253 134.205 38.8971 134.02 38.5958 133.886C38.2975 133.752 37.9366 133.685 37.5129 133.685H36.7388V132.557H37.5129C37.853 132.557 38.1513 132.496 38.4079 132.374C38.6674 132.251 38.8703 132.081 39.0164 131.864C39.1626 131.643 39.2357 131.385 39.2357 131.09C39.2357 130.806 39.1716 130.56 39.0433 130.351C38.918 130.139 38.739 129.974 38.5063 129.855C38.2766 129.735 38.0052 129.676 37.6919 129.676C37.3936 129.676 37.1147 129.731 36.8552 129.841C36.5986 129.948 36.3898 130.104 36.2287 130.306C36.0676 130.506 35.9811 130.746 35.9692 131.027H34.6312C34.6461 130.532 34.7923 130.096 35.0698 129.72C35.3502 129.344 35.7201 129.051 36.1795 128.839C36.6389 128.627 37.149 128.521 37.7098 128.521C38.2975 128.521 38.8046 128.636 39.2312 128.866C39.6608 129.092 39.9919 129.395 40.2246 129.774C40.4603 130.153 40.5766 130.567 40.5736 131.018C40.5766 131.531 40.4334 131.967 40.1441 132.325C39.8577 132.683 39.4759 132.923 38.9985 133.045V133.117C39.6071 133.209 40.0784 133.451 40.4126 133.841C40.7497 134.232 40.9167 134.717 40.9137 135.296C40.9167 135.8 40.7765 136.252 40.4931 136.652C40.2127 137.051 39.8294 137.366 39.3431 137.596C38.8569 137.822 38.3005 137.936 37.674 137.936ZM45.7956 137.963C45.0886 137.96 44.4845 137.773 43.9834 137.403C43.4822 137.033 43.0989 136.495 42.8334 135.788C42.5679 135.081 42.4351 134.229 42.4351 133.233C42.4351 132.24 42.5679 131.391 42.8334 130.687C43.1019 129.983 43.4867 129.446 43.9878 129.076C44.492 128.706 45.0946 128.521 45.7956 128.521C46.4967 128.521 47.0978 128.707 47.5989 129.08C48.1001 129.45 48.4834 129.987 48.7489 130.691C49.0174 131.392 49.1517 132.24 49.1517 133.233C49.1517 134.232 49.0189 135.085 48.7534 135.792C48.4879 136.496 48.1046 137.035 47.6034 137.408C47.1022 137.778 46.4997 137.963 45.7956 137.963ZM45.7956 136.768C46.4161 136.768 46.9009 136.465 47.2499 135.86C47.6019 135.254 47.7779 134.378 47.7779 133.233C47.7779 132.472 47.6974 131.829 47.5363 131.304C47.3782 130.776 47.15 130.377 46.8517 130.105C46.5563 129.831 46.2043 129.693 45.7956 129.693C45.1781 129.693 44.6934 129.998 44.3414 130.606C43.9893 131.215 43.8118 132.09 43.8089 133.233C43.8089 133.997 43.8879 134.642 44.046 135.17C44.2071 135.696 44.4353 136.094 44.7307 136.365C45.026 136.634 45.381 136.768 45.7956 136.768Z" fill="#65788E"/>
<path d="M34.4836 190.013V189.011L37.5845 185.798C37.9157 185.449 38.1886 185.143 38.4034 184.88C38.6212 184.615 38.7838 184.363 38.8912 184.124C38.9985 183.886 39.0522 183.632 39.0522 183.364C39.0522 183.059 38.9807 182.797 38.8375 182.576C38.6943 182.352 38.4989 182.181 38.2513 182.061C38.0037 181.939 37.7247 181.878 37.4145 181.878C37.0864 181.878 36.8 181.945 36.5554 182.079C36.3107 182.214 36.1228 182.403 35.9915 182.648C35.8603 182.892 35.7947 183.179 35.7947 183.507H34.4746C34.4746 182.949 34.6029 182.461 34.8594 182.043C35.116 181.626 35.468 181.302 35.9155 181.072C36.3629 180.84 36.8716 180.723 37.4414 180.723C38.0171 180.723 38.5242 180.838 38.9628 181.068C39.4043 181.295 39.7488 181.605 39.9964 181.999C40.244 182.39 40.3678 182.831 40.3678 183.323C40.3678 183.663 40.3037 183.996 40.1754 184.321C40.0501 184.646 39.8308 185.009 39.5176 185.408C39.2044 185.805 38.7688 186.287 38.211 186.854L36.3898 188.76V188.827H40.5155V190.013H34.4836ZM45.2363 190.138C44.6755 190.138 44.1713 190.031 43.7238 189.816C43.2794 189.598 42.9244 189.3 42.6589 188.921C42.3934 188.542 42.2517 188.11 42.2338 187.623H43.5762C43.609 188.017 43.7835 188.341 44.0997 188.594C44.4159 188.848 44.7948 188.975 45.2363 188.975C45.5883 188.975 45.9 188.894 46.1715 188.733C46.446 188.569 46.6607 188.344 46.8159 188.057C46.974 187.771 47.053 187.444 47.053 187.078C47.053 186.705 46.9725 186.372 46.8114 186.08C46.6503 185.787 46.4281 185.558 46.1447 185.391C45.8642 185.224 45.5421 185.138 45.1781 185.136C44.9007 185.136 44.6218 185.183 44.3414 185.279C44.0609 185.374 43.8342 185.499 43.6612 185.655L42.3949 185.467L42.9094 180.849H47.948V182.035H44.0594L43.7686 184.599H43.8223C44.0013 184.426 44.2384 184.281 44.5338 184.164C44.8321 184.048 45.1513 183.99 45.4914 183.99C46.0492 183.99 46.5459 184.123 46.9814 184.388C47.42 184.654 47.7645 185.016 48.0151 185.476C48.2687 185.932 48.3939 186.457 48.391 187.051C48.3939 187.644 48.2597 188.174 47.9882 188.639C47.7198 189.105 47.3469 189.471 46.8696 189.74C46.3952 190.005 45.8508 190.138 45.2363 190.138Z" fill="#65788E"/>
<path d="M34.4836 242.215V241.213L37.5845 238C37.9157 237.651 38.1886 237.345 38.4034 237.083C38.6212 236.817 38.7838 236.565 38.8912 236.327C38.9985 236.088 39.0522 235.834 39.0522 235.566C39.0522 235.262 38.9807 234.999 38.8375 234.778C38.6943 234.555 38.4989 234.383 38.2513 234.264C38.0037 234.141 37.7247 234.08 37.4145 234.08C37.0864 234.08 36.8 234.147 36.5554 234.282C36.3107 234.416 36.1228 234.605 35.9915 234.85C35.8603 235.095 35.7947 235.381 35.7947 235.709H34.4746C34.4746 235.151 34.6029 234.664 34.8594 234.246C35.116 233.828 35.468 233.505 35.9155 233.275C36.3629 233.042 36.8716 232.926 37.4414 232.926C38.0171 232.926 38.5242 233.041 38.9628 233.27C39.4043 233.497 39.7488 233.807 39.9964 234.201C40.244 234.592 40.3678 235.033 40.3678 235.526C40.3678 235.866 40.3037 236.198 40.1754 236.524C40.0501 236.849 39.8308 237.211 39.5176 237.611C39.2044 238.008 38.7688 238.489 38.211 239.056L36.3898 240.962V241.03H40.5155V242.215H34.4836ZM45.4019 242.367C44.6949 242.364 44.0908 242.178 43.5896 241.808C43.0884 241.438 42.7051 240.9 42.4396 240.193C42.1741 239.486 42.0414 238.634 42.0414 237.638C42.0414 236.644 42.1741 235.796 42.4396 235.092C42.7081 234.388 43.0929 233.851 43.5941 233.481C44.0982 233.111 44.7008 232.926 45.4019 232.926C46.1029 232.926 46.704 233.112 47.2052 233.485C47.7063 233.855 48.0897 234.392 48.3552 235.096C48.6236 235.797 48.7579 236.644 48.7579 237.638C48.7579 238.637 48.6251 239.49 48.3596 240.197C48.0941 240.901 47.7108 241.44 47.2096 241.813C46.7085 242.183 46.1059 242.367 45.4019 242.367ZM45.4019 241.173C46.0223 241.173 46.5071 240.87 46.8561 240.264C47.2081 239.659 47.3842 238.783 47.3842 237.638C47.3842 236.877 47.3036 236.234 47.1425 235.709C46.9844 235.181 46.7562 234.781 46.4579 234.51C46.1626 234.235 45.8105 234.098 45.4019 234.098C44.7843 234.098 44.2996 234.402 43.9476 235.011C43.5956 235.62 43.4181 236.495 43.4151 237.638C43.4151 238.401 43.4941 239.047 43.6522 239.575C43.8133 240.1 44.0415 240.499 44.3369 240.77C44.6322 241.038 44.9872 241.173 45.4019 241.173Z" fill="#65788E"/>
<path d="M37.9604 285.254V294.418H36.5733V286.641H36.5196L34.327 288.073V286.748L36.6135 285.254H37.9604ZM43.4643 294.543C42.9035 294.543 42.3993 294.436 41.9519 294.221C41.5074 294.003 41.1524 293.705 40.8869 293.326C40.6214 292.947 40.4797 292.514 40.4618 292.028H41.8042C41.837 292.422 42.0115 292.746 42.3277 292.999C42.6439 293.253 43.0228 293.38 43.4643 293.38C43.8163 293.38 44.1281 293.299 44.3995 293.138C44.674 292.974 44.8888 292.749 45.0439 292.462C45.202 292.176 45.281 291.849 45.281 291.482C45.281 291.109 45.2005 290.777 45.0394 290.484C44.8783 290.192 44.6561 289.962 44.3727 289.795C44.0923 289.628 43.7701 289.543 43.4061 289.54C43.1287 289.54 42.8498 289.588 42.5694 289.683C42.289 289.779 42.0622 289.904 41.8892 290.059L40.6229 289.871L41.1375 285.254H46.176V286.439H42.2875L41.9966 289.003H42.0503C42.2293 288.83 42.4664 288.686 42.7618 288.569C43.0601 288.453 43.3793 288.395 43.7194 288.395C44.2772 288.395 44.7739 288.528 45.2094 288.793C45.648 289.059 45.9925 289.421 46.2431 289.88C46.4967 290.337 46.622 290.862 46.619 291.455C46.622 292.049 46.4877 292.579 46.2163 293.044C45.9478 293.509 45.5749 293.876 45.0976 294.145C44.6233 294.41 44.0788 294.543 43.4643 294.543Z" fill="#65788E"/>
<path d="M37.9604 337.456V346.62H36.5733V338.843H36.5196L34.327 340.275V338.95L36.6135 337.456H37.9604ZM43.6299 346.772C42.9229 346.769 42.3188 346.583 41.8176 346.213C41.3164 345.843 40.9331 345.305 40.6676 344.598C40.4021 343.891 40.2694 343.039 40.2694 342.042C40.2694 341.049 40.4021 340.2 40.6676 339.496C40.9361 338.792 41.3209 338.255 41.8221 337.885C42.3262 337.516 42.9288 337.331 43.6299 337.331C44.3309 337.331 44.932 337.517 45.4332 337.89C45.9343 338.26 46.3177 338.797 46.5832 339.501C46.8517 340.202 46.9859 341.049 46.9859 342.042C46.9859 343.042 46.8532 343.895 46.5877 344.602C46.3222 345.306 45.9388 345.845 45.4377 346.217C44.9365 346.587 44.3339 346.772 43.6299 346.772ZM43.6299 345.578C44.2504 345.578 44.7351 345.275 45.0842 344.669C45.4362 344.064 45.6122 343.188 45.6122 342.042C45.6122 341.282 45.5316 340.639 45.3705 340.114C45.2124 339.586 44.9842 339.186 44.6859 338.915C44.3906 338.64 44.0386 338.503 43.6299 338.503C43.0124 338.503 42.5276 338.807 42.1756 339.416C41.8236 340.024 41.6461 340.9 41.6431 342.042C41.6431 342.806 41.7222 343.452 41.8803 343.98C42.0414 344.505 42.2696 344.903 42.5649 345.175C42.8602 345.443 43.2152 345.578 43.6299 345.578Z" fill="#65788E"/>
<path d="M37.5085 398.948C36.9476 398.948 36.4435 398.841 35.996 398.626C35.5515 398.408 35.1965 398.11 34.931 397.731C34.6655 397.352 34.5238 396.92 34.5059 396.433H35.8484C35.8812 396.827 36.0557 397.151 36.3719 397.404C36.6881 397.658 37.067 397.785 37.5085 397.785C37.8605 397.785 38.1722 397.704 38.4437 397.543C38.7181 397.379 38.9329 397.154 39.088 396.867C39.2461 396.581 39.3252 396.254 39.3252 395.887C39.3252 395.514 39.2447 395.182 39.0836 394.889C38.9225 394.597 38.7002 394.367 38.4168 394.2C38.1364 394.033 37.8142 393.948 37.4503 393.945C37.1729 393.945 36.8939 393.993 36.6135 394.089C36.3331 394.184 36.1064 394.309 35.9334 394.464L34.667 394.276L35.1816 389.659H40.2201V390.844H36.3316L36.0408 393.408H36.0945C36.2735 393.235 36.5106 393.091 36.8059 392.974C37.1043 392.858 37.4235 392.8 37.7635 392.8C38.3214 392.8 38.8181 392.933 39.2536 393.198C39.6921 393.464 40.0367 393.826 40.2873 394.285C40.5408 394.742 40.6661 395.267 40.6631 395.86C40.6661 396.454 40.5319 396.984 40.2604 397.449C39.9919 397.914 39.619 398.281 39.1417 398.55C38.6674 398.815 38.123 398.948 37.5085 398.948Z" fill="#65788E"/>
<rect x="111.675" y="172.209" width="37.8023" height="221.214" rx="1.91418" fill="#B5E4CA"/>
<path d="M116.458 426.824V425.822L119.559 422.609C119.89 422.26 120.163 421.954 120.378 421.691C120.596 421.426 120.758 421.174 120.866 420.935C120.973 420.697 121.027 420.443 121.027 420.175C121.027 419.87 120.955 419.608 120.812 419.387C120.669 419.163 120.473 418.992 120.226 418.872C119.978 418.75 119.699 418.689 119.389 418.689C119.061 418.689 118.774 418.756 118.53 418.89C118.285 419.025 118.097 419.214 117.966 419.459C117.835 419.703 117.769 419.99 117.769 420.318H116.449C116.449 419.76 116.577 419.272 116.834 418.855C117.09 418.437 117.442 418.113 117.89 417.884C118.337 417.651 118.846 417.534 119.416 417.534C119.991 417.534 120.499 417.649 120.937 417.879C121.379 418.106 121.723 418.416 121.971 418.81C122.218 419.201 122.342 419.642 122.342 420.134C122.342 420.474 122.278 420.807 122.15 421.132C122.024 421.457 121.805 421.82 121.492 422.219C121.179 422.616 120.743 423.098 120.185 423.665L118.364 425.571V425.638H122.49V426.824H116.458ZM127.25 426.976C126.543 426.973 125.939 426.787 125.438 426.417C124.937 426.047 124.553 425.508 124.288 424.801C124.022 424.094 123.89 423.243 123.89 422.246C123.89 421.253 124.022 420.404 124.288 419.7C124.556 418.996 124.941 418.459 125.442 418.089C125.947 417.719 126.549 417.534 127.25 417.534C127.951 417.534 128.552 417.721 129.054 418.094C129.555 418.464 129.938 419.001 130.204 419.705C130.472 420.406 130.606 421.253 130.606 422.246C130.606 423.246 130.473 424.099 130.208 424.806C129.942 425.51 129.559 426.048 129.058 426.421C128.557 426.791 127.954 426.976 127.25 426.976ZM127.25 425.781C127.871 425.781 128.355 425.479 128.704 424.873C129.057 424.267 129.233 423.392 129.233 422.246C129.233 421.486 129.152 420.843 128.991 420.318C128.833 419.79 128.605 419.39 128.306 419.119C128.011 418.844 127.659 418.707 127.25 418.707C126.633 418.707 126.148 419.011 125.796 419.62C125.444 420.228 125.266 421.104 125.263 422.246C125.263 423.01 125.342 423.656 125.501 424.184C125.662 424.709 125.89 425.107 126.185 425.379C126.481 425.647 126.836 425.781 127.25 425.781ZM135.544 417.66V426.824H134.157V419.047H134.104L131.911 420.479V419.154L134.198 417.66H135.544ZM140.994 426.949C140.353 426.949 139.786 426.839 139.294 426.618C138.804 426.397 138.421 426.093 138.144 425.705C137.866 425.317 137.729 424.876 137.732 424.381C137.729 423.993 137.808 423.636 137.969 423.311C138.133 422.983 138.355 422.71 138.636 422.492C138.916 422.272 139.229 422.131 139.575 422.072V422.018C139.119 421.908 138.754 421.663 138.479 421.284C138.205 420.905 138.069 420.47 138.072 419.978C138.069 419.509 138.193 419.092 138.443 418.725C138.697 418.355 139.044 418.064 139.486 417.852C139.927 417.64 140.43 417.534 140.994 417.534C141.552 417.534 142.05 417.642 142.489 417.857C142.93 418.068 143.278 418.359 143.531 418.729C143.785 419.096 143.913 419.512 143.916 419.978C143.913 420.47 143.773 420.905 143.495 421.284C143.218 421.663 142.857 421.908 142.412 422.018V422.072C142.756 422.131 143.064 422.272 143.339 422.492C143.616 422.71 143.837 422.983 144.001 423.311C144.168 423.636 144.253 423.993 144.256 424.381C144.253 424.876 144.113 425.317 143.835 425.705C143.558 426.093 143.173 426.397 142.681 426.618C142.192 426.839 141.629 426.949 140.994 426.949ZM140.994 425.817C141.373 425.817 141.701 425.755 141.978 425.629C142.256 425.501 142.471 425.323 142.623 425.097C142.775 424.867 142.852 424.599 142.855 424.291C142.852 423.972 142.769 423.69 142.605 423.446C142.444 423.201 142.225 423.009 141.947 422.868C141.67 422.728 141.352 422.658 140.994 422.658C140.633 422.658 140.312 422.728 140.032 422.868C139.751 423.009 139.531 423.201 139.37 423.446C139.209 423.69 139.13 423.972 139.132 424.291C139.13 424.599 139.203 424.867 139.352 425.097C139.504 425.323 139.72 425.501 140.001 425.629C140.281 425.755 140.612 425.817 140.994 425.817ZM140.994 421.553C141.298 421.553 141.568 421.492 141.804 421.369C142.04 421.247 142.225 421.077 142.359 420.859C142.496 420.641 142.566 420.386 142.569 420.094C142.566 419.808 142.497 419.557 142.363 419.342C142.232 419.127 142.049 418.962 141.813 418.846C141.577 418.726 141.304 418.667 140.994 418.667C140.678 418.667 140.4 418.726 140.162 418.846C139.926 418.962 139.743 419.127 139.611 419.342C139.48 419.557 139.416 419.808 139.419 420.094C139.416 420.386 139.482 420.641 139.616 420.859C139.75 421.077 139.935 421.247 140.171 421.369C140.409 421.492 140.684 421.553 140.994 421.553Z" fill="#65788E"/>
<rect x="183.191" y="122.555" width="0.95709" height="283.299" rx="0.478545" fill="#EFEFEF"/>
<rect x="226.04" y="225.412" width="37.8023" height="168.01" rx="1.91418" fill="#FFBC99"/>
<path d="M230.823 426.824V425.822L233.924 422.609C234.255 422.26 234.528 421.954 234.743 421.692C234.961 421.426 235.123 421.174 235.231 420.936C235.338 420.697 235.392 420.443 235.392 420.175C235.392 419.871 235.32 419.608 235.177 419.387C235.034 419.164 234.838 418.992 234.591 418.873C234.343 418.75 234.064 418.689 233.754 418.689C233.426 418.689 233.14 418.756 232.895 418.891C232.65 419.025 232.462 419.214 232.331 419.459C232.2 419.703 232.134 419.99 232.134 420.318H230.814C230.814 419.76 230.942 419.272 231.199 418.855C231.456 418.437 231.808 418.113 232.255 417.884C232.703 417.651 233.211 417.535 233.781 417.535C234.357 417.535 234.864 417.65 235.302 417.879C235.744 418.106 236.088 418.416 236.336 418.81C236.584 419.201 236.707 419.642 236.707 420.135C236.707 420.475 236.643 420.807 236.515 421.132C236.39 421.458 236.17 421.82 235.857 422.22C235.544 422.617 235.108 423.098 234.551 423.665L232.729 425.571V425.638H236.855V426.824H230.823ZM241.615 426.976C240.908 426.973 240.304 426.787 239.803 426.417C239.302 426.047 238.919 425.509 238.653 424.802C238.388 424.095 238.255 423.243 238.255 422.247C238.255 421.253 238.388 420.405 238.653 419.7C238.922 418.996 239.306 418.459 239.808 418.09C240.312 417.72 240.914 417.535 241.615 417.535C242.316 417.535 242.918 417.721 243.419 418.094C243.92 418.464 244.303 419.001 244.569 419.705C244.837 420.406 244.971 421.253 244.971 422.247C244.971 423.246 244.839 424.099 244.573 424.806C244.308 425.51 243.924 426.049 243.423 426.421C242.922 426.791 242.319 426.976 241.615 426.976ZM241.615 425.782C242.236 425.782 242.721 425.479 243.07 424.873C243.422 424.268 243.598 423.392 243.598 422.247C243.598 421.486 243.517 420.843 243.356 420.318C243.198 419.79 242.97 419.39 242.671 419.119C242.376 418.844 242.024 418.707 241.615 418.707C240.998 418.707 240.513 419.011 240.161 419.62C239.809 420.228 239.632 421.104 239.629 422.247C239.629 423.01 239.708 423.656 239.866 424.184C240.027 424.709 240.255 425.107 240.55 425.379C240.846 425.647 241.201 425.782 241.615 425.782ZM249.91 417.66V426.824H248.523V419.047H248.469L246.276 420.479V419.155L248.563 417.66H249.91ZM255.31 417.535C255.719 417.538 256.121 417.612 256.518 417.758C256.915 417.905 257.273 418.143 257.592 418.474C257.914 418.806 258.171 419.253 258.362 419.817C258.556 420.378 258.654 421.076 258.657 421.911C258.657 422.713 258.577 423.428 258.415 424.054C258.254 424.678 258.023 425.204 257.722 425.634C257.424 426.064 257.061 426.39 256.634 426.614C256.208 426.838 255.728 426.95 255.194 426.95C254.648 426.95 254.163 426.842 253.739 426.627C253.316 426.413 252.971 426.116 252.706 425.737C252.44 425.355 252.275 424.917 252.209 424.421H253.574C253.663 424.815 253.845 425.134 254.12 425.379C254.397 425.621 254.755 425.741 255.194 425.741C255.865 425.741 256.388 425.449 256.764 424.864C257.14 424.277 257.33 423.456 257.333 422.403H257.261C257.106 422.66 256.912 422.881 256.679 423.065C256.45 423.25 256.191 423.394 255.905 423.495C255.619 423.596 255.313 423.647 254.988 423.647C254.46 423.647 253.979 423.517 253.547 423.258C253.114 422.998 252.77 422.642 252.513 422.188C252.257 421.735 252.128 421.217 252.128 420.636C252.128 420.057 252.26 419.532 252.522 419.061C252.788 418.589 253.158 418.216 253.632 417.942C254.109 417.664 254.669 417.529 255.31 417.535ZM255.314 418.698C254.965 418.698 254.651 418.785 254.37 418.958C254.093 419.128 253.874 419.359 253.713 419.651C253.551 419.941 253.471 420.263 253.471 420.618C253.471 420.973 253.548 421.295 253.704 421.584C253.862 421.871 254.076 422.099 254.348 422.269C254.622 422.436 254.936 422.52 255.288 422.52C255.55 422.52 255.795 422.469 256.021 422.367C256.248 422.266 256.447 422.126 256.617 421.947C256.787 421.765 256.919 421.559 257.015 421.329C257.11 421.1 257.158 420.858 257.158 420.604C257.158 420.267 257.077 419.954 256.916 419.665C256.758 419.375 256.541 419.143 256.263 418.967C255.986 418.788 255.669 418.698 255.314 418.698Z" fill="#65788E"/>
<rect x="305.735" y="122.555" width="0.95709" height="283.299" rx="0.478545" fill="#EFEFEF"/>
<rect x="348.585" y="134.407" width="37.8023" height="259.016" rx="1.91418" fill="#B5E4CA"/>
<path d="M352.367 426.824V425.822L355.468 422.609C355.799 422.26 356.072 421.954 356.287 421.692C356.505 421.426 356.668 421.174 356.775 420.936C356.882 420.697 356.936 420.443 356.936 420.175C356.936 419.871 356.864 419.608 356.721 419.387C356.578 419.164 356.383 418.992 356.135 418.873C355.887 418.75 355.609 418.689 355.298 418.689C354.97 418.689 354.684 418.756 354.439 418.891C354.195 419.025 354.007 419.214 353.875 419.459C353.744 419.703 353.678 419.99 353.678 420.318H352.358C352.358 419.76 352.487 419.272 352.743 418.855C353 418.437 353.352 418.113 353.799 417.884C354.247 417.651 354.755 417.535 355.325 417.535C355.901 417.535 356.408 417.65 356.847 417.879C357.288 418.106 357.633 418.416 357.88 418.81C358.128 419.201 358.252 419.642 358.252 420.135C358.252 420.475 358.187 420.807 358.059 421.132C357.934 421.458 357.715 421.82 357.401 422.22C357.088 422.617 356.653 423.098 356.095 423.665L354.274 425.571V425.638H358.399V426.824H352.367ZM363.16 426.976C362.453 426.973 361.849 426.787 361.347 426.417C360.846 426.047 360.463 425.509 360.197 424.802C359.932 424.095 359.799 423.243 359.799 422.247C359.799 421.253 359.932 420.405 360.197 419.7C360.466 418.996 360.851 418.459 361.352 418.09C361.856 417.72 362.459 417.535 363.16 417.535C363.861 417.535 364.462 417.721 364.963 418.094C365.464 418.464 365.847 419.001 366.113 419.705C366.381 420.406 366.516 421.253 366.516 422.247C366.516 423.246 366.383 424.099 366.117 424.806C365.852 425.51 365.469 426.049 364.967 426.421C364.466 426.791 363.864 426.976 363.16 426.976ZM363.16 425.782C363.78 425.782 364.265 425.479 364.614 424.873C364.966 424.268 365.142 423.392 365.142 422.247C365.142 421.486 365.061 420.843 364.9 420.318C364.742 419.79 364.514 419.39 364.216 419.119C363.92 418.844 363.568 418.707 363.16 418.707C362.542 418.707 362.057 419.011 361.705 419.62C361.353 420.228 361.176 421.104 361.173 422.247C361.173 423.01 361.252 423.656 361.41 424.184C361.571 424.709 361.799 425.107 362.095 425.379C362.39 425.647 362.745 425.782 363.16 425.782ZM367.977 426.824V425.822L371.078 422.609C371.409 422.26 371.682 421.954 371.897 421.692C372.115 421.426 372.277 421.174 372.385 420.936C372.492 420.697 372.546 420.443 372.546 420.175C372.546 419.871 372.474 419.608 372.331 419.387C372.188 419.164 371.992 418.992 371.745 418.873C371.497 418.75 371.218 418.689 370.908 418.689C370.58 418.689 370.293 418.756 370.049 418.891C369.804 419.025 369.616 419.214 369.485 419.459C369.354 419.703 369.288 419.99 369.288 420.318H367.968C367.968 419.76 368.096 419.272 368.353 418.855C368.609 418.437 368.962 418.113 369.409 417.884C369.856 417.651 370.365 417.535 370.935 417.535C371.511 417.535 372.018 417.65 372.456 417.879C372.898 418.106 373.242 418.416 373.49 418.81C373.738 419.201 373.861 419.642 373.861 420.135C373.861 420.475 373.797 420.807 373.669 421.132C373.544 421.458 373.324 421.82 373.011 422.22C372.698 422.617 372.262 423.098 371.704 423.665L369.883 425.571V425.638H374.009V426.824H367.977ZM378.769 426.976C378.062 426.973 377.458 426.787 376.957 426.417C376.456 426.047 376.073 425.509 375.807 424.802C375.542 424.095 375.409 423.243 375.409 422.247C375.409 421.253 375.542 420.405 375.807 419.7C376.076 418.996 376.46 418.459 376.962 418.09C377.466 417.72 378.068 417.535 378.769 417.535C379.47 417.535 380.071 417.721 380.573 418.094C381.074 418.464 381.457 419.001 381.723 419.705C381.991 420.406 382.125 421.253 382.125 422.247C382.125 423.246 381.993 424.099 381.727 424.806C381.462 425.51 381.078 426.049 380.577 426.421C380.076 426.791 379.473 426.976 378.769 426.976ZM378.769 425.782C379.39 425.782 379.875 425.479 380.224 424.873C380.576 424.268 380.752 423.392 380.752 422.247C380.752 421.486 380.671 420.843 380.51 420.318C380.352 419.79 380.124 419.39 379.825 419.119C379.53 418.844 379.178 418.707 378.769 418.707C378.152 418.707 377.667 419.011 377.315 419.62C376.963 420.228 376.786 421.104 376.783 422.247C376.783 423.01 376.862 423.656 377.02 424.184C377.181 424.709 377.409 425.107 377.704 425.379C378 425.647 378.355 425.782 378.769 425.782Z" fill="#65788E"/>
<rect x="428.28" y="122.555" width="0.95709" height="283.299" rx="0.478545" fill="#EFEFEF"/>
<rect x="471.129" y="249.214" width="37.8023" height="144.209" rx="1.91418" fill="#B5E4CA"/>
<path d="M475.912 426.824V425.822L479.013 422.609C479.344 422.26 479.617 421.954 479.832 421.692C480.049 421.426 480.212 421.174 480.319 420.936C480.427 420.697 480.48 420.443 480.48 420.175C480.48 419.871 480.409 419.608 480.266 419.387C480.122 419.164 479.927 418.992 479.679 418.873C479.432 418.75 479.153 418.689 478.843 418.689C478.514 418.689 478.228 418.756 477.983 418.891C477.739 419.025 477.551 419.214 477.42 419.459C477.288 419.703 477.223 419.99 477.223 420.318H475.903C475.903 419.76 476.031 419.272 476.288 418.855C476.544 418.437 476.896 418.113 477.344 417.884C477.791 417.651 478.3 417.535 478.869 417.535C479.445 417.535 479.952 417.65 480.391 417.879C480.832 418.106 481.177 418.416 481.425 418.81C481.672 419.201 481.796 419.642 481.796 420.135C481.796 420.475 481.732 420.807 481.603 421.132C481.478 421.458 481.259 421.82 480.946 422.22C480.632 422.617 480.197 423.098 479.639 423.665L477.818 425.571V425.638H481.944V426.824H475.912ZM486.704 426.976C485.997 426.973 485.393 426.787 484.892 426.417C484.391 426.047 484.007 425.509 483.742 424.802C483.476 424.095 483.343 423.243 483.343 422.247C483.343 421.253 483.476 420.405 483.742 419.7C484.01 418.996 484.395 418.459 484.896 418.09C485.4 417.72 486.003 417.535 486.704 417.535C487.405 417.535 488.006 417.721 488.507 418.094C489.008 418.464 489.392 419.001 489.657 419.705C489.926 420.406 490.06 421.253 490.06 422.247C490.06 423.246 489.927 424.099 489.662 424.806C489.396 425.51 489.013 426.049 488.512 426.421C488.011 426.791 487.408 426.976 486.704 426.976ZM486.704 425.782C487.324 425.782 487.809 425.479 488.158 424.873C488.51 424.268 488.686 423.392 488.686 422.247C488.686 421.486 488.606 420.843 488.445 420.318C488.287 419.79 488.058 419.39 487.76 419.119C487.465 418.844 487.113 418.707 486.704 418.707C486.086 418.707 485.602 419.011 485.25 419.62C484.898 420.228 484.72 421.104 484.717 422.247C484.717 423.01 484.796 423.656 484.954 424.184C485.115 424.709 485.344 425.107 485.639 425.379C485.934 425.647 486.289 425.782 486.704 425.782ZM491.521 426.824V425.822L494.622 422.609C494.953 422.26 495.226 421.954 495.441 421.692C495.659 421.426 495.822 421.174 495.929 420.936C496.036 420.697 496.09 420.443 496.09 420.175C496.09 419.871 496.018 419.608 495.875 419.387C495.732 419.164 495.537 418.992 495.289 418.873C495.041 418.75 494.763 418.689 494.452 418.689C494.124 418.689 493.838 418.756 493.593 418.891C493.349 419.025 493.161 419.214 493.029 419.459C492.898 419.703 492.832 419.99 492.832 420.318H491.512C491.512 419.76 491.641 419.272 491.897 418.855C492.154 418.437 492.506 418.113 492.953 417.884C493.401 417.651 493.909 417.535 494.479 417.535C495.055 417.535 495.562 417.65 496.001 417.879C496.442 418.106 496.787 418.416 497.034 418.81C497.282 419.201 497.406 419.642 497.406 420.135C497.406 420.475 497.341 420.807 497.213 421.132C497.088 421.458 496.869 421.82 496.555 422.22C496.242 422.617 495.807 423.098 495.249 423.665L493.428 425.571V425.638H497.553V426.824H491.521ZM502.6 417.66V426.824H501.213V419.047H501.159L498.967 420.479V419.155L501.253 417.66H502.6Z" fill="#65788E"/>
<rect x="550.824" y="122.555" width="0.95709" height="283.299" rx="0.478545" fill="#EFEFEF"/>
<rect x="593.673" y="172.209" width="37.8023" height="221.214" rx="1.91418" fill="#B5E4CA"/>
<path d="M597.956 426.824V425.822L601.057 422.609C601.388 422.26 601.661 421.954 601.876 421.691C602.094 421.426 602.256 421.174 602.364 420.935C602.471 420.697 602.525 420.443 602.525 420.175C602.525 419.87 602.453 419.608 602.31 419.387C602.167 419.163 601.971 418.992 601.724 418.872C601.476 418.75 601.197 418.689 600.887 418.689C600.559 418.689 600.272 418.756 600.028 418.89C599.783 419.025 599.595 419.214 599.464 419.459C599.333 419.703 599.267 419.99 599.267 420.318H597.947C597.947 419.76 598.075 419.272 598.332 418.855C598.588 418.437 598.94 418.113 599.388 417.884C599.835 417.651 600.344 417.534 600.914 417.534C601.49 417.534 601.997 417.649 602.435 417.879C602.877 418.106 603.221 418.416 603.469 418.81C603.716 419.201 603.84 419.642 603.84 420.134C603.84 420.474 603.776 420.807 603.648 421.132C603.523 421.457 603.303 421.82 602.99 422.219C602.677 422.616 602.241 423.098 601.683 423.665L599.862 425.571V425.638H603.988V426.824H597.956ZM608.748 426.976C608.041 426.973 607.437 426.787 606.936 426.417C606.435 426.047 606.052 425.508 605.786 424.801C605.521 424.094 605.388 423.243 605.388 422.246C605.388 421.253 605.521 420.404 605.786 419.7C606.054 418.996 606.439 418.459 606.94 418.089C607.445 417.719 608.047 417.534 608.748 417.534C609.449 417.534 610.05 417.721 610.552 418.094C611.053 418.464 611.436 419.001 611.702 419.705C611.97 420.406 612.104 421.253 612.104 422.246C612.104 423.246 611.972 424.099 611.706 424.806C611.441 425.51 611.057 426.048 610.556 426.421C610.055 426.791 609.452 426.976 608.748 426.976ZM608.748 425.781C609.369 425.781 609.854 425.479 610.203 424.873C610.555 424.267 610.731 423.392 610.731 422.246C610.731 421.486 610.65 420.843 610.489 420.318C610.331 419.79 610.103 419.39 609.804 419.119C609.509 418.844 609.157 418.707 608.748 418.707C608.131 418.707 607.646 419.011 607.294 419.62C606.942 420.228 606.764 421.104 606.761 422.246C606.761 423.01 606.841 423.656 606.999 424.184C607.16 424.709 607.388 425.107 607.683 425.379C607.979 425.647 608.334 425.781 608.748 425.781ZM613.566 426.824V425.822L616.667 422.609C616.998 422.26 617.271 421.954 617.486 421.691C617.703 421.426 617.866 421.174 617.973 420.935C618.081 420.697 618.134 420.443 618.134 420.175C618.134 419.87 618.063 419.608 617.92 419.387C617.776 419.163 617.581 418.992 617.333 418.872C617.086 418.75 616.807 418.689 616.497 418.689C616.168 418.689 615.882 418.756 615.637 418.89C615.393 419.025 615.205 419.214 615.074 419.459C614.942 419.703 614.877 419.99 614.877 420.318H613.557C613.557 419.76 613.685 419.272 613.942 418.855C614.198 418.437 614.55 418.113 614.998 417.884C615.445 417.651 615.954 417.534 616.523 417.534C617.099 417.534 617.606 417.649 618.045 417.879C618.486 418.106 618.831 418.416 619.079 418.81C619.326 419.201 619.45 419.642 619.45 420.134C619.45 420.474 619.386 420.807 619.258 421.132C619.132 421.457 618.913 421.82 618.6 422.219C618.287 422.616 617.851 423.098 617.293 423.665L615.472 425.571V425.638H619.598V426.824H613.566ZM621.167 426.824V425.822L624.268 422.609C624.6 422.26 624.873 421.954 625.087 421.691C625.305 421.426 625.468 421.174 625.575 420.935C625.682 420.697 625.736 420.443 625.736 420.175C625.736 419.87 625.665 419.608 625.521 419.387C625.378 419.163 625.183 418.992 624.935 418.872C624.688 418.75 624.409 418.689 624.098 418.689C623.77 418.689 623.484 418.756 623.239 418.89C622.995 419.025 622.807 419.214 622.675 419.459C622.544 419.703 622.479 419.99 622.479 420.318H621.159C621.159 419.76 621.287 419.272 621.543 418.855C621.8 418.437 622.152 418.113 622.599 417.884C623.047 417.651 623.556 417.534 624.125 417.534C624.701 417.534 625.208 417.649 625.647 417.879C626.088 418.106 626.433 418.416 626.68 418.81C626.928 419.201 627.052 419.642 627.052 420.134C627.052 420.474 626.988 420.807 626.859 421.132C626.734 421.457 626.515 421.82 626.202 422.219C625.888 422.616 625.453 423.098 624.895 423.665L623.074 425.571V425.638H627.199V426.824H621.167Z" fill="#65788E"/>
<rect x="673.368" y="122.555" width="0.95709" height="283.299" rx="0.478545" fill="#EFEFEF"/>
<rect x="716.218" y="287.016" width="37.8023" height="106.407" rx="1.91418" fill="#FFBC99"/>
<path d="M720 426.824V425.822L723.101 422.609C723.432 422.26 723.705 421.954 723.92 421.691C724.138 421.426 724.3 421.174 724.408 420.935C724.515 420.697 724.569 420.443 724.569 420.175C724.569 419.87 724.497 419.608 724.354 419.387C724.211 419.163 724.016 418.992 723.768 418.872C723.52 418.75 723.241 418.689 722.931 418.689C722.603 418.689 722.317 418.756 722.072 418.89C721.827 419.025 721.64 419.214 721.508 419.459C721.377 419.703 721.311 419.99 721.311 420.318H719.991C719.991 419.76 720.12 419.272 720.376 418.855C720.633 418.437 720.985 418.113 721.432 417.884C721.88 417.651 722.388 417.534 722.958 417.534C723.534 417.534 724.041 417.649 724.479 417.879C724.921 418.106 725.266 418.416 725.513 418.81C725.761 419.201 725.885 419.642 725.885 420.134C725.885 420.474 725.82 420.807 725.692 421.132C725.567 421.457 725.348 421.82 725.034 422.219C724.721 422.616 724.286 423.098 723.728 423.665L721.907 425.571V425.638H726.032V426.824H720ZM730.793 426.976C730.086 426.973 729.481 426.787 728.98 426.417C728.479 426.047 728.096 425.508 727.83 424.801C727.565 424.094 727.432 423.243 727.432 422.246C727.432 421.253 727.565 420.404 727.83 419.7C728.099 418.996 728.484 418.459 728.985 418.089C729.489 417.719 730.092 417.534 730.793 417.534C731.494 417.534 732.095 417.721 732.596 418.094C733.097 418.464 733.48 419.001 733.746 419.705C734.014 420.406 734.149 421.253 734.149 422.246C734.149 423.246 734.016 424.099 733.75 424.806C733.485 425.51 733.102 426.048 732.6 426.421C732.099 426.791 731.497 426.976 730.793 426.976ZM730.793 425.781C731.413 425.781 731.898 425.479 732.247 424.873C732.599 424.267 732.775 423.392 732.775 422.246C732.775 421.486 732.694 420.843 732.533 420.318C732.375 419.79 732.147 419.39 731.849 419.119C731.553 418.844 731.201 418.707 730.793 418.707C730.175 418.707 729.69 419.011 729.338 419.62C728.986 420.228 728.809 421.104 728.806 422.246C728.806 423.01 728.885 423.656 729.043 424.184C729.204 424.709 729.432 425.107 729.728 425.379C730.023 425.647 730.378 425.781 730.793 425.781ZM735.61 426.824V425.822L738.711 422.609C739.042 422.26 739.315 421.954 739.53 421.691C739.748 421.426 739.91 421.174 740.018 420.935C740.125 420.697 740.179 420.443 740.179 420.175C740.179 419.87 740.107 419.608 739.964 419.387C739.821 419.163 739.625 418.992 739.378 418.872C739.13 418.75 738.851 418.689 738.541 418.689C738.213 418.689 737.926 418.756 737.682 418.89C737.437 419.025 737.249 419.214 737.118 419.459C736.987 419.703 736.921 419.99 736.921 420.318H735.601C735.601 419.76 735.729 419.272 735.986 418.855C736.242 418.437 736.594 418.113 737.042 417.884C737.489 417.651 737.998 417.534 738.568 417.534C739.144 417.534 739.651 417.649 740.089 417.879C740.531 418.106 740.875 418.416 741.123 418.81C741.37 419.201 741.494 419.642 741.494 420.134C741.494 420.474 741.43 420.807 741.302 421.132C741.177 421.457 740.957 421.82 740.644 422.219C740.331 422.616 739.895 423.098 739.337 423.665L737.516 425.571V425.638H741.642V426.824H735.61ZM746.402 426.949C745.788 426.949 745.239 426.843 744.756 426.632C744.275 426.42 743.895 426.126 743.615 425.75C743.337 425.371 743.188 424.933 743.167 424.434H744.572C744.59 424.706 744.681 424.942 744.845 425.141C745.012 425.338 745.23 425.491 745.498 425.598C745.767 425.705 746.065 425.759 746.393 425.759C746.754 425.759 747.073 425.696 747.351 425.571C747.631 425.446 747.851 425.271 748.009 425.048C748.167 424.821 748.246 424.56 748.246 424.264C748.246 423.957 748.167 423.687 748.009 423.455C747.854 423.219 747.625 423.034 747.324 422.9C747.026 422.765 746.665 422.698 746.241 422.698H745.467V421.571H746.241C746.581 421.571 746.88 421.51 747.136 421.387C747.396 421.265 747.599 421.095 747.745 420.877C747.891 420.656 747.964 420.398 747.964 420.103C747.964 419.82 747.9 419.573 747.772 419.365C747.646 419.153 747.467 418.987 747.235 418.868C747.005 418.749 746.733 418.689 746.42 418.689C746.122 418.689 745.843 418.744 745.583 418.855C745.327 418.962 745.118 419.117 744.957 419.32C744.796 419.52 744.709 419.76 744.697 420.04H743.359C743.374 419.545 743.521 419.11 743.798 418.734C744.078 418.358 744.448 418.064 744.908 417.852C745.367 417.64 745.877 417.534 746.438 417.534C747.026 417.534 747.533 417.649 747.959 417.879C748.389 418.106 748.72 418.409 748.953 418.787C749.189 419.166 749.305 419.581 749.302 420.031C749.305 420.544 749.162 420.98 748.872 421.338C748.586 421.696 748.204 421.936 747.727 422.058V422.13C748.335 422.222 748.807 422.464 749.141 422.855C749.478 423.246 749.645 423.73 749.642 424.309C749.645 424.813 749.505 425.265 749.221 425.665C748.941 426.065 748.558 426.379 748.071 426.609C747.585 426.836 747.029 426.949 746.402 426.949Z" fill="#65788E"/>
<rect x="795.912" y="122.555" width="0.95709" height="283.299" rx="0.478545" fill="#EFEFEF"/>
<rect x="838.762" y="210.011" width="37.8023" height="183.411" rx="2.80017" fill="#B5E4CA"/>
<path d="M842.544 426.824V425.822L845.645 422.609C845.976 422.26 846.249 421.954 846.464 421.692C846.682 421.426 846.845 421.174 846.952 420.936C847.059 420.697 847.113 420.443 847.113 420.175C847.113 419.871 847.041 419.608 846.898 419.387C846.755 419.164 846.56 418.992 846.312 418.873C846.064 418.75 845.786 418.689 845.475 418.689C845.147 418.689 844.861 418.756 844.616 418.891C844.372 419.025 844.184 419.214 844.052 419.459C843.921 419.703 843.855 419.99 843.855 420.318H842.535C842.535 419.76 842.664 419.272 842.92 418.855C843.177 418.437 843.529 418.113 843.976 417.884C844.424 417.651 844.932 417.535 845.502 417.535C846.078 417.535 846.585 417.65 847.024 417.879C847.465 418.106 847.81 418.416 848.057 418.81C848.305 419.201 848.429 419.642 848.429 420.135C848.429 420.475 848.364 420.807 848.236 421.132C848.111 421.458 847.892 421.82 847.578 422.22C847.265 422.617 846.83 423.098 846.272 423.665L844.451 425.571V425.638H848.576V426.824H842.544ZM853.337 426.976C852.63 426.973 852.026 426.787 851.524 426.417C851.023 426.047 850.64 425.509 850.374 424.802C850.109 424.095 849.976 423.243 849.976 422.247C849.976 421.253 850.109 420.405 850.374 419.7C850.643 418.996 851.028 418.459 851.529 418.09C852.033 417.72 852.636 417.535 853.337 417.535C854.038 417.535 854.639 417.721 855.14 418.094C855.641 418.464 856.024 419.001 856.29 419.705C856.558 420.406 856.693 421.253 856.693 422.247C856.693 423.246 856.56 424.099 856.294 424.806C856.029 425.51 855.646 426.049 855.144 426.421C854.643 426.791 854.041 426.976 853.337 426.976ZM853.337 425.782C853.957 425.782 854.442 425.479 854.791 424.873C855.143 424.268 855.319 423.392 855.319 422.247C855.319 421.486 855.238 420.843 855.077 420.318C854.919 419.79 854.691 419.39 854.393 419.119C854.097 418.844 853.745 418.707 853.337 418.707C852.719 418.707 852.234 419.011 851.882 419.62C851.53 420.228 851.353 421.104 851.35 422.247C851.35 423.01 851.429 423.656 851.587 424.184C851.748 424.709 851.976 425.107 852.272 425.379C852.567 425.647 852.922 425.782 853.337 425.782ZM858.154 426.824V425.822L861.255 422.609C861.586 422.26 861.859 421.954 862.074 421.692C862.292 421.426 862.454 421.174 862.562 420.936C862.669 420.697 862.723 420.443 862.723 420.175C862.723 419.871 862.651 419.608 862.508 419.387C862.365 419.164 862.169 418.992 861.922 418.873C861.674 418.75 861.395 418.689 861.085 418.689C860.757 418.689 860.47 418.756 860.226 418.891C859.981 419.025 859.793 419.214 859.662 419.459C859.531 419.703 859.465 419.99 859.465 420.318H858.145C858.145 419.76 858.273 419.272 858.53 418.855C858.786 418.437 859.139 418.113 859.586 417.884C860.033 417.651 860.542 417.535 861.112 417.535C861.688 417.535 862.195 417.65 862.633 417.879C863.075 418.106 863.419 418.416 863.667 418.81C863.915 419.201 864.038 419.642 864.038 420.135C864.038 420.475 863.974 420.807 863.846 421.132C863.721 421.458 863.501 421.82 863.188 422.22C862.875 422.617 862.439 423.098 861.881 423.665L860.06 425.571V425.638H864.186V426.824H858.154ZM865.367 425.034V423.916L869.327 417.66H870.208V419.307H869.649L866.816 423.79V423.862H872.244V425.034H865.367ZM869.712 426.824V424.694L869.72 424.184V417.66H871.032V426.824H869.712Z" fill="#65788E"/>
<g filter="url(#filter0_ddi_10_8157)">
<rect x="351.772" y="175.111" width="104.514" height="40.801" rx="7.65672" fill="#272B30" shape-rendering="crispEdges"/>
<rect x="352.25" y="175.59" width="103.557" height="39.8439" rx="7.17818" stroke="white" stroke-opacity="0.12" stroke-width="0.95709" shape-rendering="crispEdges"/>
<path d="M361.444 190.837C360.83 190.837 360.281 190.731 359.797 190.519C359.317 190.307 358.937 190.014 358.656 189.638C358.379 189.259 358.23 188.82 358.209 188.322H359.614C359.632 188.594 359.723 188.829 359.887 189.029C360.054 189.226 360.272 189.378 360.54 189.486C360.809 189.593 361.107 189.647 361.435 189.647C361.796 189.647 362.115 189.584 362.393 189.459C362.673 189.333 362.892 189.159 363.05 188.935C363.209 188.708 363.288 188.447 363.288 188.152C363.288 187.845 363.209 187.575 363.05 187.342C362.895 187.107 362.667 186.922 362.366 186.787C362.068 186.653 361.707 186.586 361.283 186.586H360.509V185.458H361.283C361.623 185.458 361.921 185.397 362.178 185.275C362.437 185.153 362.64 184.983 362.786 184.765C362.933 184.544 363.006 184.286 363.006 183.991C363.006 183.707 362.942 183.461 362.813 183.252C362.688 183.041 362.509 182.875 362.276 182.756C362.047 182.636 361.775 182.577 361.462 182.577C361.164 182.577 360.885 182.632 360.625 182.742C360.369 182.85 360.16 183.005 359.999 183.208C359.838 183.407 359.751 183.648 359.739 183.928H358.401C358.416 183.433 358.562 182.997 358.84 182.621C359.12 182.246 359.49 181.952 359.95 181.74C360.409 181.528 360.919 181.422 361.48 181.422C362.068 181.422 362.575 181.537 363.001 181.767C363.431 181.993 363.762 182.296 363.995 182.675C364.23 183.054 364.347 183.469 364.344 183.919C364.347 184.432 364.203 184.868 363.914 185.226C363.628 185.584 363.246 185.824 362.769 185.946V186.018C363.377 186.11 363.848 186.352 364.183 186.743C364.52 187.133 364.687 187.618 364.684 188.197C364.687 188.701 364.547 189.153 364.263 189.553C363.983 189.952 363.599 190.267 363.113 190.497C362.627 190.724 362.071 190.837 361.444 190.837ZM368.267 190.864C367.832 190.864 367.438 190.783 367.086 190.622C366.734 190.458 366.455 190.221 366.249 189.911C366.046 189.6 365.945 189.22 365.945 188.77C365.945 188.382 366.019 188.063 366.169 187.812C366.318 187.561 366.519 187.363 366.773 187.217C367.026 187.071 367.31 186.96 367.623 186.886C367.936 186.811 368.255 186.755 368.58 186.716C368.992 186.668 369.326 186.629 369.583 186.599C369.839 186.567 370.026 186.514 370.142 186.443C370.259 186.371 370.317 186.255 370.317 186.094V186.062C370.317 185.672 370.206 185.369 369.986 185.154C369.768 184.939 369.443 184.832 369.01 184.832C368.56 184.832 368.205 184.932 367.945 185.132C367.689 185.329 367.511 185.548 367.413 185.789L366.155 185.503C366.304 185.085 366.522 184.748 366.809 184.492C367.098 184.232 367.43 184.044 367.806 183.928C368.182 183.809 368.578 183.749 368.992 183.749C369.267 183.749 369.557 183.782 369.865 183.847C370.175 183.91 370.464 184.026 370.733 184.196C371.004 184.367 371.227 184.61 371.4 184.926C371.573 185.239 371.659 185.646 371.659 186.147V190.712H370.352V189.772H370.299C370.212 189.945 370.083 190.115 369.909 190.282C369.736 190.449 369.514 190.588 369.243 190.698C368.971 190.809 368.646 190.864 368.267 190.864ZM368.558 189.79C368.928 189.79 369.244 189.717 369.507 189.571C369.772 189.424 369.974 189.234 370.111 188.998C370.251 188.759 370.321 188.504 370.321 188.233V187.347C370.273 187.394 370.181 187.439 370.044 187.481C369.909 187.52 369.756 187.554 369.583 187.584C369.41 187.611 369.241 187.636 369.077 187.66C368.913 187.681 368.776 187.699 368.666 187.714C368.406 187.746 368.169 187.802 367.954 187.879C367.742 187.957 367.572 188.069 367.444 188.215C367.319 188.358 367.256 188.549 367.256 188.788C367.256 189.119 367.378 189.369 367.623 189.539C367.868 189.706 368.179 189.79 368.558 189.79ZM376.506 190.712V189.709L379.607 186.496C379.938 186.147 380.211 185.842 380.426 185.579C380.644 185.314 380.806 185.062 380.914 184.823C381.021 184.584 381.075 184.331 381.075 184.062C381.075 183.758 381.003 183.495 380.86 183.275C380.717 183.051 380.521 182.879 380.274 182.76C380.026 182.638 379.747 182.577 379.437 182.577C379.109 182.577 378.822 182.644 378.578 182.778C378.333 182.912 378.145 183.102 378.014 183.346C377.883 183.591 377.817 183.877 377.817 184.205H376.497C376.497 183.648 376.625 183.16 376.882 182.742C377.138 182.325 377.49 182.001 377.938 181.771C378.385 181.539 378.894 181.422 379.464 181.422C380.04 181.422 380.547 181.537 380.985 181.767C381.427 181.993 381.771 182.304 382.019 182.697C382.266 183.088 382.39 183.53 382.39 184.022C382.39 184.362 382.326 184.695 382.198 185.02C382.073 185.345 381.853 185.707 381.54 186.107C381.227 186.504 380.791 186.986 380.233 187.553L378.412 189.459V189.526H382.538V190.712H376.506ZM387.298 190.864C386.591 190.861 385.987 190.674 385.486 190.304C384.985 189.935 384.602 189.396 384.336 188.689C384.071 187.982 383.938 187.13 383.938 186.134C383.938 185.141 384.071 184.292 384.336 183.588C384.605 182.884 384.989 182.347 385.491 181.977C385.995 181.607 386.597 181.422 387.298 181.422C387.999 181.422 388.6 181.609 389.102 181.982C389.603 182.351 389.986 182.888 390.252 183.592C390.52 184.293 390.654 185.141 390.654 186.134C390.654 187.133 390.522 187.987 390.256 188.694C389.991 189.398 389.607 189.936 389.106 190.309C388.605 190.679 388.002 190.864 387.298 190.864ZM387.298 189.669C387.919 189.669 388.404 189.366 388.753 188.761C389.105 188.155 389.281 187.28 389.281 186.134C389.281 185.373 389.2 184.73 389.039 184.205C388.881 183.677 388.653 183.278 388.354 183.006C388.059 182.732 387.707 182.595 387.298 182.595C386.681 182.595 386.196 182.899 385.844 183.507C385.492 184.116 385.315 184.992 385.312 186.134C385.312 186.898 385.391 187.544 385.549 188.072C385.71 188.597 385.938 188.995 386.233 189.266C386.529 189.535 386.884 189.669 387.298 189.669ZM392.116 190.712V189.709L395.217 186.496C395.548 186.147 395.821 185.842 396.036 185.579C396.253 185.314 396.416 185.062 396.523 184.823C396.631 184.584 396.684 184.331 396.684 184.062C396.684 183.758 396.613 183.495 396.47 183.275C396.326 183.051 396.131 182.879 395.883 182.76C395.636 182.638 395.357 182.577 395.047 182.577C394.719 182.577 394.432 182.644 394.188 182.778C393.943 182.912 393.755 183.102 393.624 183.346C393.492 183.591 393.427 183.877 393.427 184.205H392.107C392.107 183.648 392.235 183.16 392.492 182.742C392.748 182.325 393.1 182.001 393.548 181.771C393.995 181.539 394.504 181.422 395.073 181.422C395.649 181.422 396.156 181.537 396.595 181.767C397.036 181.993 397.381 182.304 397.629 182.697C397.876 183.088 398 183.53 398 184.022C398 184.362 397.936 184.695 397.808 185.02C397.682 185.345 397.463 185.707 397.15 186.107C396.837 186.504 396.401 186.986 395.843 187.553L394.022 189.459V189.526H398.148V190.712H392.116ZM402.908 190.864C402.201 190.861 401.597 190.674 401.096 190.304C400.595 189.935 400.211 189.396 399.946 188.689C399.68 187.982 399.547 187.13 399.547 186.134C399.547 185.141 399.68 184.292 399.946 183.588C400.214 182.884 400.599 182.347 401.1 181.977C401.604 181.607 402.207 181.422 402.908 181.422C403.609 181.422 404.21 181.609 404.711 181.982C405.212 182.351 405.596 182.888 405.861 183.592C406.13 184.293 406.264 185.141 406.264 186.134C406.264 187.133 406.131 187.987 405.866 188.694C405.6 189.398 405.217 189.936 404.716 190.309C404.215 190.679 403.612 190.864 402.908 190.864ZM402.908 189.669C403.528 189.669 404.013 189.366 404.362 188.761C404.714 188.155 404.89 187.28 404.89 186.134C404.89 185.373 404.81 184.73 404.649 184.205C404.491 183.677 404.262 183.278 403.964 183.006C403.669 182.732 403.317 182.595 402.908 182.595C402.29 182.595 401.806 182.899 401.454 183.507C401.102 184.116 400.924 184.992 400.921 186.134C400.921 186.898 401 187.544 401.158 188.072C401.319 188.597 401.548 188.995 401.843 189.266C402.138 189.535 402.493 189.669 402.908 189.669Z" fill="#EFEFEF"/>
<rect x="357.372" y="198.312" width="11.4851" height="11.4851" rx="3.82836" fill="#B5E4CA"/>
<path d="M373.5 208.312V207.113L376.681 203.994C376.986 203.687 377.239 203.414 377.442 203.175C377.645 202.936 377.797 202.705 377.899 202.481C378 202.258 378.051 202.019 378.051 201.766C378.051 201.476 377.985 201.229 377.854 201.023C377.723 200.814 377.542 200.653 377.312 200.539C377.083 200.426 376.822 200.369 376.529 200.369C376.228 200.369 375.964 200.432 375.737 200.557C375.511 200.68 375.335 200.854 375.209 201.081C375.087 201.308 375.026 201.578 375.026 201.891H373.446C373.446 201.309 373.579 200.803 373.844 200.374C374.11 199.944 374.475 199.612 374.941 199.376C375.409 199.14 375.946 199.023 376.552 199.023C377.166 199.023 377.706 199.137 378.172 199.367C378.637 199.597 378.998 199.911 379.254 200.311C379.514 200.711 379.644 201.167 379.644 201.68C379.644 202.024 379.578 202.361 379.447 202.692C379.316 203.023 379.084 203.39 378.753 203.793C378.425 204.195 377.964 204.683 377.371 205.256L375.791 206.862V206.925H379.782V208.312H373.5ZM384.458 208.437C383.793 208.437 383.202 208.325 382.686 208.102C382.173 207.878 381.77 207.572 381.478 207.184C381.188 206.794 381.045 206.351 381.048 205.855C381.045 205.471 381.129 205.117 381.299 204.795C381.469 204.473 381.698 204.204 381.988 203.989C382.28 203.772 382.605 203.633 382.963 203.573V203.511C382.492 203.406 382.11 203.166 381.818 202.79C381.528 202.411 381.385 201.974 381.388 201.479C381.385 201.008 381.516 200.587 381.782 200.217C382.047 199.847 382.411 199.556 382.874 199.345C383.336 199.13 383.864 199.023 384.458 199.023C385.045 199.023 385.569 199.13 386.028 199.345C386.491 199.556 386.855 199.847 387.12 200.217C387.389 200.587 387.523 201.008 387.523 201.479C387.523 201.974 387.375 202.411 387.08 202.79C386.788 203.166 386.41 203.406 385.948 203.511V203.573C386.306 203.633 386.628 203.772 386.914 203.989C387.204 204.204 387.433 204.473 387.604 204.795C387.777 205.117 387.863 205.471 387.863 205.855C387.863 206.351 387.717 206.794 387.425 207.184C387.132 207.572 386.729 207.878 386.216 208.102C385.706 208.325 385.12 208.437 384.458 208.437ZM384.458 207.158C384.801 207.158 385.099 207.099 385.353 206.983C385.606 206.864 385.803 206.697 385.943 206.482C386.084 206.267 386.155 206.019 386.158 205.739C386.155 205.447 386.079 205.189 385.93 204.965C385.784 204.738 385.582 204.561 385.326 204.432C385.072 204.304 384.783 204.24 384.458 204.24C384.13 204.24 383.837 204.304 383.581 204.432C383.324 204.561 383.121 204.738 382.972 204.965C382.826 205.189 382.754 205.447 382.757 205.739C382.754 206.019 382.823 206.267 382.963 206.482C383.103 206.694 383.3 206.859 383.554 206.979C383.81 207.098 384.112 207.158 384.458 207.158ZM384.458 202.983C384.738 202.983 384.986 202.926 385.201 202.813C385.418 202.699 385.59 202.541 385.715 202.338C385.84 202.135 385.905 201.901 385.908 201.636C385.905 201.373 385.842 201.144 385.72 200.947C385.597 200.747 385.427 200.593 385.21 200.486C384.992 200.375 384.741 200.32 384.458 200.32C384.168 200.32 383.913 200.375 383.693 200.486C383.475 200.593 383.305 200.747 383.182 200.947C383.063 201.144 383.005 201.373 383.008 201.636C383.005 201.901 383.065 202.135 383.187 202.338C383.312 202.538 383.484 202.696 383.702 202.813C383.922 202.926 384.174 202.983 384.458 202.983ZM391.751 208.312L391.742 206.979H391.979C392.158 206.979 392.309 206.938 392.431 206.858C392.554 206.777 392.655 206.643 392.736 206.455C392.816 206.264 392.879 206.008 392.924 205.685C392.968 205.363 393 204.962 393.018 204.482L393.138 201.439H398.15V208.312H396.584V202.768H394.611L394.503 204.983C394.476 205.556 394.412 206.052 394.311 206.473C394.212 206.891 394.072 207.235 393.89 207.507C393.711 207.778 393.486 207.981 393.214 208.115C392.943 208.246 392.622 208.312 392.252 208.312H391.751ZM401.217 206.119L403.969 201.439H405.633V208.312H404.067V203.627L401.324 208.312H399.655V201.439H401.217V206.119ZM412.974 201.439V207.104H414.026V210.523H412.442V208.312H407.171V201.439H408.732V206.983H411.426V201.439H412.974ZM418.197 208.446C417.508 208.446 416.913 208.303 416.411 208.017C415.913 207.727 415.53 207.319 415.261 206.791C414.993 206.26 414.859 205.635 414.859 204.916C414.859 204.209 414.993 203.588 415.261 203.054C415.533 202.517 415.912 202.1 416.398 201.801C416.884 201.5 417.456 201.349 418.112 201.349C418.535 201.349 418.935 201.418 419.311 201.555C419.69 201.689 420.024 201.898 420.313 202.182C420.606 202.465 420.835 202.826 421.003 203.265C421.17 203.7 421.253 204.219 421.253 204.822V205.318H415.619V204.227H419.7C419.697 203.916 419.63 203.64 419.499 203.399C419.368 203.154 419.184 202.962 418.949 202.822C418.716 202.681 418.444 202.611 418.134 202.611C417.803 202.611 417.512 202.692 417.262 202.853C417.011 203.011 416.816 203.22 416.675 203.479C416.538 203.736 416.468 204.018 416.465 204.325V205.278C416.465 205.678 416.538 206.021 416.684 206.307C416.831 206.591 417.035 206.809 417.297 206.961C417.56 207.11 417.867 207.184 418.219 207.184C418.455 207.184 418.668 207.152 418.859 207.086C419.05 207.017 419.216 206.917 419.356 206.786C419.496 206.655 419.602 206.492 419.674 206.298L421.186 206.468C421.091 206.868 420.909 207.217 420.64 207.516C420.375 207.811 420.034 208.041 419.62 208.205C419.205 208.366 418.731 208.446 418.197 208.446ZM427.218 204.204V205.533H423.558V204.204H427.218ZM424.059 201.439V208.312H422.497V201.439H424.059ZM428.279 201.439V208.312H426.722V201.439H428.279ZM429.411 206.428H431.018C431.033 206.685 431.147 206.883 431.362 207.023C431.577 207.164 431.856 207.234 432.199 207.234C432.548 207.234 432.842 207.158 433.081 207.005C433.322 206.85 433.443 206.616 433.443 206.303C433.443 206.118 433.397 205.955 433.304 205.815C433.212 205.672 433.082 205.562 432.915 205.484C432.748 205.406 432.551 205.368 432.324 205.368H431.273V204.218H432.324C432.661 204.218 432.916 204.14 433.089 203.985C433.266 203.83 433.354 203.634 433.354 203.399C433.354 203.145 433.261 202.939 433.076 202.781C432.894 202.623 432.642 202.544 432.32 202.544C431.998 202.544 431.729 202.617 431.514 202.763C431.303 202.91 431.192 203.097 431.183 203.327H429.586C429.592 202.927 429.711 202.58 429.944 202.285C430.179 201.989 430.496 201.76 430.892 201.595C431.292 201.431 431.743 201.349 432.244 201.349C432.781 201.349 433.245 201.43 433.635 201.591C434.026 201.752 434.328 201.977 434.539 202.267C434.751 202.553 434.857 202.89 434.857 203.278C434.857 203.651 434.741 203.96 434.508 204.204C434.275 204.446 433.962 204.619 433.568 204.723V204.795C433.84 204.81 434.084 204.887 434.302 205.028C434.52 205.165 434.693 205.351 434.821 205.587C434.949 205.823 435.014 206.096 435.014 206.406C435.014 206.826 434.893 207.19 434.651 207.498C434.41 207.802 434.077 208.036 433.653 208.2C433.233 208.364 432.751 208.446 432.208 208.446C431.68 208.446 431.207 208.367 430.789 208.209C430.375 208.048 430.045 207.817 429.801 207.516C429.556 207.214 429.426 206.852 429.411 206.428ZM437.725 206.119L440.477 201.439H442.141V208.312H440.575V203.627L437.832 208.312H436.163V201.439H437.725V206.119ZM445.24 206.119L447.992 201.439H449.657V208.312H448.091V203.627L445.348 208.312H443.679V201.439H445.24V206.119ZM447.549 199.076H448.762C448.762 199.598 448.572 200.022 448.194 200.347C447.818 200.669 447.308 200.83 446.663 200.83C446.025 200.83 445.516 200.669 445.137 200.347C444.761 200.022 444.575 199.598 444.578 199.076H445.782C445.782 199.291 445.847 199.483 445.979 199.653C446.113 199.821 446.341 199.904 446.663 199.904C446.979 199.904 447.205 199.821 447.339 199.653C447.476 199.486 447.546 199.294 447.549 199.076Z" fill="#FCFCFC"/>
</g>
<defs>
<filter id="filter0_ddi_10_8157" x="344.115" y="171.283" width="119.828" height="56.1145" filterUnits="userSpaceOnUse" color-interpolation-filters="sRGB">
<feFlood flood-opacity="0" result="BackgroundImageFix"/>
<feColorMatrix in="SourceAlpha" type="matrix" values="0 0 0 0 0 0 0 0 0 0 0 0 0 0 0 0 0 0 127 0" result="hardAlpha"/>
<feOffset dy="1.91418"/>
<feGaussianBlur stdDeviation="1.91418"/>
<feComposite in2="hardAlpha" operator="out"/>
<feColorMatrix type="matrix" values="0 0 0 0 0 0 0 0 0 0 0 0 0 0 0 0 0 0 0.1 0"/>
<feBlend mode="multiply" in2="BackgroundImageFix" result="effect1_dropShadow_10_8157"/>
<feColorMatrix in="SourceAlpha" type="matrix" values="0 0 0 0 0 0 0 0 0 0 0 0 0 0 0 0 0 0 127 0" result="hardAlpha"/>
<feOffset dy="3.82836"/>
<feGaussianBlur stdDeviation="3.82836"/>
<feComposite in2="hardAlpha" operator="out"/>
<feColorMatrix type="matrix" values="0 0 0 0 0 0 0 0 0 0 0 0 0 0 0 0 0 0 0.1 0"/>
<feBlend mode="multiply" in2="effect1_dropShadow_10_8157" result="effect2_dropShadow_10_8157"/>
<feBlend mode="normal" in="SourceGraphic" in2="effect2_dropShadow_10_8157" result="shape"/>
<feColorMatrix in="SourceAlpha" type="matrix" values="0 0 0 0 0 0 0 0 0 0 0 0 0 0 0 0 0 0 127 0" result="hardAlpha"/>
<feOffset/>
<feGaussianBlur stdDeviation="0.478545"/>
<feComposite in2="hardAlpha" operator="arithmetic" k2="-1" k3="1"/>
<feColorMatrix type="matrix" values="0 0 0 0 0 0 0 0 0 0 0 0 0 0 0 0 0 0 1 0"/>
<feBlend mode="multiply" in2="shape" result="effect3_innerShadow_10_8157"/>
</filter>
</defs>
</svg>
