<svg width="140" height="60" viewBox="0 0 140 60" fill="none" xmlns="http://www.w3.org/2000/svg">
<path d="M72.9449 40.3496H68.5193L67.2369 36.3102H60.8248L59.5548 40.3496H55.1543L61.7174 22.1913H66.5328L72.9449 40.3496ZM66.3065 33.1698L64.3702 27.0664C64.2278 26.6106 64.1271 26.0661 64.0685 25.4329H63.9679C63.9261 25.9647 63.8212 26.4924 63.6537 27.0157L61.6922 33.1698H66.3065Z" fill="#1E1E1E"/>
<path d="M56.4744 25.5216H51.3322V40.3496H47.2585V25.5216H42.1413V22.1913H56.4744V25.5216Z" fill="#1E1E1E"/>
<path d="M43.373 40.3496H38.9474L37.6649 36.3102H31.2528L29.9829 40.3496H25.5825L32.1455 22.1913H36.9609L43.373 40.3496ZM36.7345 33.1698L34.7983 27.0664C34.6558 26.6106 34.5553 26.0661 34.4966 25.4329H34.3959C34.3541 25.9647 34.2494 26.4924 34.0817 27.0157L32.1203 33.1698H36.7345Z" fill="#1E1E1E"/>
<path d="M8.93617 40.3496V22.1913H15.3232C21.727 22.1913 24.9288 25.1416 24.9288 31.0425C24.9288 33.8704 24.0529 36.1287 22.3011 37.8169C20.5577 39.5054 18.2317 40.3496 15.3232 40.3496H8.93617ZM12.9972 25.5216V37.0319H15.0089C16.769 37.0319 18.1479 36.5001 19.1453 35.4364C20.1512 34.3728 20.654 32.925 20.654 31.0932C20.654 29.3625 20.1554 28.0035 19.158 27.0157C18.1689 26.0196 16.7775 25.5216 14.9837 25.5216H12.9972Z" fill="#1E1E1E"/>
<path d="M118.328 22.1913L112.457 33.8916V40.3496H108.396V33.9675L102.675 22.1913H107.314L110.219 28.9657C110.269 29.0925 110.407 29.5863 110.634 30.4473H110.684C110.793 29.8395 110.923 29.3625 111.074 29.0164L114.028 22.1913H118.328Z" fill="#403EF1"/>
<path d="M101.757 25.5216H95.395V29.9789H101.241V33.2964H95.395V40.3496H91.3339V22.1913H101.757V25.5216Z" fill="#403EF1"/>
<path fill-rule="evenodd" clip-rule="evenodd" d="M104.407 4.29663C101.151 4.29663 97.9269 4.95063 94.919 6.22128C91.911 7.49193 89.1779 9.35436 86.8757 11.7022C84.5736 14.0501 82.7473 16.8374 81.5013 19.905C80.2555 22.9727 79.6141 26.2605 79.6141 29.5809C79.6141 32.9013 80.2555 36.1891 81.5013 39.2568C82.7473 42.3245 84.5736 45.1118 86.8757 47.4595C89.1779 49.8075 91.911 51.6699 94.919 52.9406C97.9269 54.2112 101.151 54.8652 104.407 54.8652C107.662 54.8652 110.886 54.2112 113.894 52.9406C116.902 51.6699 119.635 49.8075 121.937 47.4595C124.24 45.1118 126.066 42.3245 127.312 39.2568C128.558 36.1891 129.199 32.9013 129.199 29.5809C129.199 26.2605 128.558 22.9727 127.312 19.905C126.066 16.8374 124.24 14.0501 121.937 11.7022C119.635 9.35436 116.902 7.49193 113.894 6.22128C110.886 4.95063 107.662 4.29663 104.407 4.29663ZM94.4324 5.02335C97.5946 3.68754 100.984 3 104.407 3C107.829 3 111.219 3.68754 114.381 5.02335C117.543 6.35918 120.416 8.31711 122.836 10.7854C125.257 13.2536 127.177 16.184 128.486 19.4088C129.796 22.6338 130.47 26.0903 130.47 29.5809C130.47 33.0716 129.796 36.528 128.486 39.753C127.177 42.9779 125.257 45.9081 122.836 48.3765C122.712 48.5031 122.587 48.6283 122.46 48.7524L129.648 56.0832L128.75 57L121.521 49.6283C119.399 51.5128 116.988 53.0372 114.381 54.1385C111.219 55.4742 107.829 56.1618 104.407 56.1618C100.984 56.1618 97.5946 55.4742 94.4324 54.1385C91.2702 52.8027 88.3969 50.8447 85.9767 48.3765C83.5565 45.9081 81.6365 42.9779 80.3268 39.753C79.0169 36.528 78.3428 33.0716 78.3428 29.5809C78.3428 26.0903 79.0169 22.6338 80.3268 19.4088C81.6365 16.184 83.5565 13.2536 85.9767 10.7854C88.3969 8.31709 91.2702 6.35916 94.4324 5.02335Z" fill="#1E1E1E"/>
</svg>
