<svg width="174" height="74" viewBox="0 0 174 74" fill="none" xmlns="http://www.w3.org/2000/svg">
<path d="M90.6601 49.7643H85.1597L83.5659 44.7825H75.5965L74.0181 49.7643H68.549L76.7059 27.3691H82.6907L90.6601 49.7643ZM82.4095 40.9093L80.003 33.3818C79.826 32.8196 79.7009 32.1481 79.628 31.3672H79.503C79.451 32.023 79.3207 32.6738 79.1124 33.3193L76.6746 40.9093H82.4095Z" fill="white"/>
<path d="M70.1896 31.4765H63.7986V49.7643H58.7356V31.4765H52.3757V27.3691H70.1896V31.4765Z" fill="white"/>
<path d="M53.9065 49.7643H48.4061L46.8121 44.7825H38.8427L37.2645 49.7643H31.7953L39.9522 27.3691H45.9371L53.9065 49.7643ZM45.6557 40.9093L43.2494 33.3818C43.0722 32.8196 42.9473 32.1481 42.8743 31.3672H42.7492C42.6972 32.023 42.5671 32.6738 42.3586 33.3193L39.921 40.9093H45.6557Z" fill="white"/>
<path d="M11.1064 49.7643V27.3691H19.0445C27.0035 27.3691 30.9829 31.0079 30.9829 38.2856C30.9829 41.7734 29.8943 44.5586 27.7171 46.6408C25.5502 48.7231 22.6594 49.7643 19.0445 49.7643H11.1064ZM16.1537 31.4765V45.6725H18.6539C20.8415 45.6725 22.5552 45.0167 23.7949 43.7048C25.0451 42.393 25.67 40.6074 25.67 38.3482C25.67 36.2136 25.0503 34.5375 23.8106 33.3193C22.5813 32.0907 20.852 31.4765 18.6226 31.4765H16.1537Z" fill="white"/>
<path d="M147.065 27.3691L139.768 41.7995V49.7643H134.72V41.8931L127.61 27.3691H133.377L136.986 35.7243C137.049 35.8806 137.221 36.4896 137.502 37.5515H137.564C137.7 36.8019 137.861 36.2136 138.049 35.7868L141.721 27.3691H147.065Z" fill="white"/>
<path d="M126.469 31.4765H118.562V36.9738H125.828V41.0654H118.562V49.7643H113.515V27.3691H126.469V31.4765Z" fill="white"/>
<path fill-rule="evenodd" clip-rule="evenodd" d="M129.763 5.29937C125.716 5.29937 121.709 6.10597 117.971 7.67311C114.232 9.24024 110.835 11.5372 107.974 14.4329C105.113 17.3286 102.843 20.7663 101.294 24.5497C99.7461 28.3331 98.949 32.3881 98.949 36.4833C98.949 40.5785 99.7461 44.6335 101.294 48.4169C102.843 52.2003 105.113 55.638 107.974 58.5336C110.835 61.4294 114.232 63.7264 117.971 65.2935C121.709 66.8607 125.716 67.6673 129.763 67.6673C133.809 67.6673 137.816 66.8607 141.554 65.2935C145.293 63.7264 148.689 61.4294 151.551 58.5336C154.412 55.638 156.682 52.2003 158.23 48.4169C159.779 44.6335 160.576 40.5785 160.576 36.4833C160.576 32.3881 159.779 28.3331 158.23 24.5497C156.682 20.7663 154.412 17.3286 151.551 14.4329C148.69 11.5372 145.293 9.24024 141.554 7.67311C137.816 6.10597 133.809 5.29937 129.763 5.29937ZM117.366 6.19566C121.296 4.54816 125.508 3.7002 129.763 3.7002C134.016 3.7002 138.229 4.54816 142.159 6.19566C146.089 7.84318 149.66 10.258 152.668 13.3022C155.676 16.3464 158.062 19.9604 159.69 23.9377C161.318 27.9152 162.156 32.1782 162.156 36.4833C162.156 40.7884 161.318 45.0514 159.69 49.0289C158.062 53.0062 155.676 56.6202 152.668 59.6645C152.514 59.8207 152.358 59.9752 152.201 60.1282L161.135 69.1695L160.017 70.3002L151.033 61.2084C148.396 63.5327 145.399 65.4127 142.159 66.7709C138.229 68.4184 134.016 69.2664 129.763 69.2664C125.508 69.2664 121.296 68.4184 117.366 66.7709C113.436 65.1235 109.865 62.7087 106.857 59.6645C103.849 56.6202 101.463 53.0062 99.8347 49.0289C98.2067 45.0514 97.3689 40.7884 97.3689 36.4833C97.3689 32.1782 98.2067 27.9152 99.8347 23.9377C101.463 19.9604 103.849 16.3463 106.857 13.3021C109.865 10.2579 113.436 7.84316 117.366 6.19566Z" fill="white"/>
</svg>
