<svg width="450" height="394" viewBox="0 0 450 394" fill="none" xmlns="http://www.w3.org/2000/svg">
<mask id="path-1-inside-1_10_7613" fill="white">
<path d="M0 17.4193C0 7.79889 7.79891 0 17.4194 0H432.581C442.201 0 450 7.79891 450 17.4194V376.581C450 386.201 442.201 394 432.581 394H17.4193C7.79889 394 0 386.201 0 376.581V17.4193Z"/>
</mask>
<path d="M0 17.4193C0 7.79889 7.79891 0 17.4194 0H432.581C442.201 0 450 7.79891 450 17.4194V376.581C450 386.201 442.201 394 432.581 394H17.4193C7.79889 394 0 386.201 0 376.581V17.4193Z" fill="white"/>
<path d="M17.4194 2.03226H432.581V-2.03226H17.4194V2.03226ZM447.968 17.4194V376.581H452.032V17.4194H447.968ZM432.581 391.968H17.4193V396.032H432.581V391.968ZM2.03226 376.581V17.4193H-2.03226V376.581H2.03226ZM17.4193 391.968C8.92128 391.968 2.03226 385.079 2.03226 376.581H-2.03226C-2.03226 387.323 6.67651 396.032 17.4193 396.032V391.968ZM447.968 376.581C447.968 385.079 441.079 391.968 432.581 391.968V396.032C443.323 396.032 452.032 387.323 452.032 376.581H447.968ZM432.581 2.03226C441.079 2.03226 447.968 8.92129 447.968 17.4194H452.032C452.032 6.67653 443.323 -2.03226 432.581 -2.03226V2.03226ZM17.4194 -2.03226C6.67653 -2.03226 -2.03226 6.6765 -2.03226 17.4193H2.03226C2.03226 8.92128 8.92129 2.03226 17.4194 2.03226V-2.03226Z" fill="#EDF2F7" mask="url(#path-1-inside-1_10_7613)"/>
<path d="M46.2219 148.936V139.816L39.9819 148.936H39.0219V137.736H40.1419V146.856L46.3819 137.736H47.3419V148.936H46.2219ZM53.8649 144.824C54.7929 145.176 55.2569 145.816 55.2569 146.744C55.2569 147.416 54.9956 147.981 54.4729 148.44C53.9716 148.898 53.2356 149.128 52.2649 149.128C50.6436 149.128 49.5876 148.488 49.0969 147.208L49.9929 146.68C50.3343 147.629 51.0916 148.104 52.2649 148.104C52.8836 148.104 53.3583 147.97 53.6889 147.704C54.0303 147.437 54.2009 147.096 54.2009 146.68C54.2009 146.306 54.0623 146.002 53.7849 145.768C53.5183 145.533 53.1449 145.416 52.6649 145.416H51.4969V144.392H52.3449C52.8036 144.392 53.1609 144.28 53.4169 144.056C53.6836 143.821 53.8169 143.501 53.8169 143.096C53.8169 142.712 53.6623 142.397 53.3529 142.152C53.0436 141.896 52.6276 141.768 52.1049 141.768C51.1023 141.768 50.4356 142.168 50.1049 142.968L49.2249 142.456C49.7583 141.314 50.7183 140.744 52.1049 140.744C52.9476 140.744 53.6196 140.968 54.1209 141.416C54.6223 141.853 54.8729 142.392 54.8729 143.032C54.8729 143.864 54.5369 144.461 53.8649 144.824ZM62.3094 140.936H63.4294L60.0054 149.672C59.6961 150.472 59.2534 151.096 58.6774 151.544C58.1121 151.992 57.4774 152.189 56.7734 152.136V151.144C57.7334 151.261 58.4641 150.706 58.9654 149.48L59.1734 148.984L55.5894 140.936H56.7094L59.7174 147.64L62.3094 140.936ZM69.8897 140.936H70.9457V148.936H69.8897V145.896C69.2604 146.216 68.4977 146.376 67.6017 146.376C66.5457 146.376 65.7457 146.136 65.2017 145.656C64.6577 145.176 64.3857 144.456 64.3857 143.496V140.936H65.4417V143.496C65.4417 144.168 65.6177 144.653 65.9697 144.952C66.3217 145.24 66.855 145.384 67.5697 145.384C68.3804 145.384 69.1537 145.229 69.8897 144.92V140.936ZM79.0141 140.936H79.9101V148.936H78.8541V142.776L74.0861 148.936H73.1901V140.936H74.2461V147.096L79.0141 140.936ZM87.9032 140.936V141.96H85.0712V148.936H84.0152V141.96H81.1832V140.936H87.9032ZM92.5736 140.744C93.7682 140.744 94.7229 141.165 95.4376 142.008C96.1736 142.84 96.5416 143.826 96.5416 144.968C96.5416 145.021 96.5362 145.09 96.5256 145.176C96.5256 145.261 96.5202 145.357 96.5096 145.464H89.4856C89.5922 146.274 89.9336 146.92 90.5096 147.4C91.0856 147.869 91.8056 148.104 92.6696 148.104C93.2776 148.104 93.8002 147.981 94.2376 147.736C94.6856 147.48 95.0216 147.149 95.2456 146.744L96.1736 147.288C95.8216 147.864 95.3416 148.317 94.7336 148.648C94.1256 148.968 93.4322 149.128 92.6536 149.128C91.3949 149.128 90.3709 148.733 89.5816 147.944C88.7922 147.154 88.3976 146.152 88.3976 144.936C88.3976 143.73 88.7869 142.733 89.5656 141.944C90.3442 141.144 91.3469 140.744 92.5736 140.744ZM92.5736 141.768C92.1576 141.768 91.7736 141.832 91.4216 141.96C91.0696 142.088 90.7549 142.269 90.4776 142.504C90.2109 142.738 89.9922 143.021 89.8216 143.352C89.6509 143.682 89.5389 144.045 89.4856 144.44H95.4536C95.3362 143.586 95.0109 142.93 94.4776 142.472C93.9229 142.002 93.2882 141.768 92.5736 141.768ZM107.309 144.824C108.184 145.144 108.621 145.768 108.621 146.696C108.621 147.346 108.403 147.885 107.965 148.312C107.539 148.728 106.92 148.936 106.109 148.936H102.221V140.936H105.789C106.568 140.936 107.171 141.133 107.597 141.528C108.024 141.922 108.237 142.44 108.237 143.08C108.237 143.88 107.928 144.461 107.309 144.824ZM103.277 141.96V144.392H105.789C106.717 144.392 107.181 143.976 107.181 143.144C107.181 142.77 107.059 142.482 106.813 142.28C106.579 142.066 106.237 141.96 105.789 141.96H103.277ZM106.109 147.912C106.589 147.912 106.952 147.8 107.197 147.576C107.443 147.352 107.565 147.037 107.565 146.632C107.565 146.258 107.443 145.965 107.197 145.752C106.952 145.528 106.589 145.416 106.109 145.416H103.277V147.912H106.109ZM120.685 148.936H119.277L115.277 145.08V148.936H114.221V140.936H115.277V144.472L119.085 140.936H120.525L116.397 144.776L120.685 148.936ZM128.211 140.936H129.267V148.936H128.211V147.368C127.475 148.541 126.397 149.128 124.979 149.128C123.837 149.128 122.861 148.722 122.051 147.912C121.251 147.101 120.851 146.109 120.851 144.936C120.851 143.773 121.251 142.781 122.051 141.96C122.861 141.149 123.837 140.744 124.979 140.744C126.397 140.744 127.475 141.33 128.211 142.504V140.936ZM122.819 147.192C123.427 147.8 124.173 148.104 125.059 148.104C125.944 148.104 126.691 147.8 127.299 147.192C127.907 146.573 128.211 145.821 128.211 144.936C128.211 144.05 127.907 143.304 127.299 142.696C126.691 142.077 125.944 141.768 125.059 141.768C124.173 141.768 123.427 142.077 122.819 142.696C122.211 143.304 121.907 144.05 121.907 144.936C121.907 145.821 122.211 146.573 122.819 147.192ZM137.967 148.936H136.559L132.559 145.08V148.936H131.503V140.936H132.559V144.472L136.367 140.936H137.807L133.679 144.776L137.967 148.936ZM145.233 140.936H146.129V148.936H145.073V142.776L140.305 148.936H139.409V140.936H140.465V147.096L145.233 140.936ZM155.082 148.936H153.818L151.322 145.64L148.826 148.936H147.562L150.698 144.792L147.77 140.936H149.034L151.322 143.96L153.61 140.936H154.874L151.962 144.792L155.082 148.936ZM164.646 144.824C165.574 145.176 166.038 145.816 166.038 146.744C166.038 147.416 165.777 147.981 165.254 148.44C164.753 148.898 164.017 149.128 163.046 149.128C161.425 149.128 160.369 148.488 159.878 147.208L160.774 146.68C161.116 147.629 161.873 148.104 163.046 148.104C163.665 148.104 164.14 147.97 164.47 147.704C164.812 147.437 164.982 147.096 164.982 146.68C164.982 146.306 164.844 146.002 164.566 145.768C164.3 145.533 163.926 145.416 163.446 145.416H162.278V144.392H163.126C163.585 144.392 163.942 144.28 164.198 144.056C164.465 143.821 164.598 143.501 164.598 143.096C164.598 142.712 164.444 142.397 164.134 142.152C163.825 141.896 163.409 141.768 162.886 141.768C161.884 141.768 161.217 142.168 160.886 142.968L160.006 142.456C160.54 141.314 161.5 140.744 162.886 140.744C163.729 140.744 164.401 140.968 164.902 141.416C165.404 141.853 165.654 142.392 165.654 143.032C165.654 143.864 165.318 144.461 164.646 144.824ZM174.523 140.936H175.579V148.936H174.523V147.368C173.787 148.541 172.71 149.128 171.291 149.128C170.15 149.128 169.174 148.722 168.363 147.912C167.563 147.101 167.163 146.109 167.163 144.936C167.163 143.773 167.563 142.781 168.363 141.96C169.174 141.149 170.15 140.744 171.291 140.744C172.71 140.744 173.787 141.33 174.523 142.504V140.936ZM169.131 147.192C169.739 147.8 170.486 148.104 171.371 148.104C172.257 148.104 173.003 147.8 173.611 147.192C174.219 146.573 174.523 145.821 174.523 144.936C174.523 144.05 174.219 143.304 173.611 142.696C173.003 142.077 172.257 141.768 171.371 141.768C170.486 141.768 169.739 142.077 169.131 142.696C168.523 143.304 168.219 144.05 168.219 144.936C168.219 145.821 168.523 146.573 169.131 147.192ZM184.279 148.936H182.871L178.871 145.08V148.936H177.815V140.936H178.871V144.472L182.679 140.936H184.119L179.991 144.776L184.279 148.936ZM191.169 140.936H192.289L188.865 149.672C188.555 150.472 188.113 151.096 187.537 151.544C186.971 151.992 186.337 152.189 185.633 152.136V151.144C186.593 151.261 187.323 150.706 187.825 149.48L188.033 148.984L184.449 140.936H185.569L188.577 147.64L191.169 140.936ZM200.285 140.936V148.936H199.229V141.96H194.621V148.936H193.565V140.936H200.285ZM208.982 148.936H207.574L203.574 145.08V148.936H202.518V140.936H203.574V144.472L207.382 140.936H208.822L204.694 144.776L208.982 148.936ZM216.508 140.936H217.564V148.936H216.508V147.368C215.772 148.541 214.694 149.128 213.276 149.128C212.134 149.128 211.158 148.722 210.348 147.912C209.548 147.101 209.148 146.109 209.148 144.936C209.148 143.773 209.548 142.781 210.348 141.96C211.158 141.149 212.134 140.744 213.276 140.744C214.694 140.744 215.772 141.33 216.508 142.504V140.936ZM211.116 147.192C211.724 147.8 212.47 148.104 213.356 148.104C214.241 148.104 214.988 147.8 215.596 147.192C216.204 146.573 216.508 145.821 216.508 144.936C216.508 144.05 216.204 143.304 215.596 142.696C214.988 142.077 214.241 141.768 213.356 141.768C212.47 141.768 211.724 142.077 211.116 142.696C210.508 143.304 210.204 144.05 210.204 144.936C210.204 145.821 210.508 146.573 211.116 147.192ZM226.519 148.936H225.255L222.759 145.64L220.263 148.936H218.999L222.135 144.792L219.207 140.936H220.471L222.759 143.96L225.047 140.936H226.311L223.399 144.792L226.519 148.936ZM237.716 140.936H238.836L235.412 149.672C235.102 150.472 234.66 151.096 234.084 151.544C233.518 151.992 232.884 152.189 232.18 152.136V151.144C233.14 151.261 233.87 150.706 234.372 149.48L234.58 148.984L230.996 140.936H232.116L235.124 147.64L237.716 140.936ZM245.296 140.936H246.352V148.936H245.296V145.896C244.667 146.216 243.904 146.376 243.008 146.376C241.952 146.376 241.152 146.136 240.608 145.656C240.064 145.176 239.792 144.456 239.792 143.496V140.936H240.848V143.496C240.848 144.168 241.024 144.653 241.376 144.952C241.728 145.24 242.261 145.384 242.976 145.384C243.787 145.384 244.56 145.229 245.296 144.92V140.936ZM255.476 140.936H256.532V148.936H255.476V147.368C254.74 148.541 253.663 149.128 252.244 149.128C251.103 149.128 250.127 148.722 249.316 147.912C248.516 147.101 248.116 146.109 248.116 144.936C248.116 143.773 248.516 142.781 249.316 141.96C250.127 141.149 251.103 140.744 252.244 140.744C253.663 140.744 254.74 141.33 255.476 142.504V140.936ZM250.084 147.192C250.692 147.8 251.439 148.104 252.324 148.104C253.21 148.104 253.956 147.8 254.564 147.192C255.172 146.573 255.476 145.821 255.476 144.936C255.476 144.05 255.172 143.304 254.564 142.696C253.956 142.077 253.21 141.768 252.324 141.768C251.439 141.768 250.692 142.077 250.084 142.696C249.476 143.304 249.172 144.05 249.172 144.936C249.172 145.821 249.476 146.573 250.084 147.192ZM262.496 149.128C261.291 149.128 260.288 148.728 259.488 147.928C258.688 147.117 258.288 146.12 258.288 144.936C258.288 143.752 258.688 142.76 259.488 141.96C260.288 141.149 261.291 140.744 262.496 140.744C263.296 140.744 264.006 140.936 264.624 141.32C265.254 141.693 265.712 142.2 266 142.84L265.136 143.336C264.923 142.856 264.582 142.477 264.112 142.2C263.643 141.912 263.104 141.768 262.496 141.768C261.611 141.768 260.864 142.077 260.256 142.696C259.648 143.304 259.344 144.05 259.344 144.936C259.344 145.821 259.648 146.573 260.256 147.192C260.864 147.8 261.611 148.104 262.496 148.104C263.104 148.104 263.638 147.965 264.096 147.688C264.566 147.4 264.934 147.016 265.2 146.536L266.08 147.048C265.75 147.688 265.264 148.194 264.624 148.568C263.984 148.941 263.275 149.128 262.496 149.128ZM273.2 140.936V141.96H270.368V148.936H269.312V141.96H266.48V140.936H273.2ZM279.575 144.824C280.45 145.144 280.887 145.768 280.887 146.696C280.887 147.346 280.668 147.885 280.231 148.312C279.804 148.728 279.186 148.936 278.375 148.936H274.487V140.936H278.055C278.834 140.936 279.436 141.133 279.863 141.528C280.29 141.922 280.503 142.44 280.503 143.08C280.503 143.88 280.194 144.461 279.575 144.824ZM275.543 141.96V144.392H278.055C278.983 144.392 279.447 143.976 279.447 143.144C279.447 142.77 279.324 142.482 279.079 142.28C278.844 142.066 278.503 141.96 278.055 141.96H275.543ZM278.375 147.912C278.855 147.912 279.218 147.8 279.463 147.576C279.708 147.352 279.831 147.037 279.831 146.632C279.831 146.258 279.708 145.965 279.463 145.752C279.218 145.528 278.855 145.416 278.375 145.416H275.543V147.912H278.375ZM287.934 140.936H289.054L285.63 149.672C285.321 150.472 284.878 151.096 284.302 151.544C283.737 151.992 283.102 152.189 282.398 152.136V151.144C283.358 151.261 284.089 150.706 284.59 149.48L284.798 148.984L281.214 140.936H282.334L285.342 147.64L287.934 140.936ZM293.714 140.744C294.909 140.744 295.864 141.165 296.578 142.008C297.314 142.84 297.682 143.826 297.682 144.968C297.682 145.021 297.677 145.09 297.666 145.176C297.666 145.261 297.661 145.357 297.65 145.464H290.626C290.733 146.274 291.074 146.92 291.65 147.4C292.226 147.869 292.946 148.104 293.81 148.104C294.418 148.104 294.941 147.981 295.378 147.736C295.826 147.48 296.162 147.149 296.386 146.744L297.314 147.288C296.962 147.864 296.482 148.317 295.874 148.648C295.266 148.968 294.573 149.128 293.794 149.128C292.536 149.128 291.512 148.733 290.722 147.944C289.933 147.154 289.538 146.152 289.538 144.936C289.538 143.73 289.928 142.733 290.706 141.944C291.485 141.144 292.488 140.744 293.714 140.744ZM293.714 141.768C293.298 141.768 292.914 141.832 292.562 141.96C292.21 142.088 291.896 142.269 291.618 142.504C291.352 142.738 291.133 143.021 290.962 143.352C290.792 143.682 290.68 144.045 290.626 144.44H296.594C296.477 143.586 296.152 142.93 295.618 142.472C295.064 142.002 294.429 141.768 293.714 141.768ZM304.809 140.936V141.96H301.977V148.936H300.921V141.96H298.089V140.936H304.809ZM315.184 144.824C316.059 145.144 316.496 145.768 316.496 146.696C316.496 147.346 316.278 147.885 315.84 148.312C315.414 148.728 314.795 148.936 313.984 148.936H310.096V140.936H313.664C314.443 140.936 315.046 141.133 315.472 141.528C315.899 141.922 316.112 142.44 316.112 143.08C316.112 143.88 315.803 144.461 315.184 144.824ZM311.152 141.96V144.392H313.664C314.592 144.392 315.056 143.976 315.056 143.144C315.056 142.77 314.934 142.482 314.688 142.28C314.454 142.066 314.112 141.96 313.664 141.96H311.152ZM313.984 147.912C314.464 147.912 314.827 147.8 315.072 147.576C315.318 147.352 315.44 147.037 315.44 146.632C315.44 146.258 315.318 145.965 315.072 145.752C314.827 145.528 314.464 145.416 313.984 145.416H311.152V147.912H313.984ZM324.976 140.936H326.032V148.936H324.976V147.368C324.24 148.541 323.163 149.128 321.744 149.128C320.603 149.128 319.627 148.722 318.816 147.912C318.016 147.101 317.616 146.109 317.616 144.936C317.616 143.773 318.016 142.781 318.816 141.96C319.627 141.149 320.603 140.744 321.744 140.744C323.163 140.744 324.24 141.33 324.976 142.504V140.936ZM319.584 147.192C320.192 147.8 320.939 148.104 321.824 148.104C322.71 148.104 323.456 147.8 324.064 147.192C324.672 146.573 324.976 145.821 324.976 144.936C324.976 144.05 324.672 143.304 324.064 142.696C323.456 142.077 322.71 141.768 321.824 141.768C320.939 141.768 320.192 142.077 319.584 142.696C318.976 143.304 318.672 144.05 318.672 144.936C318.672 145.821 318.976 146.573 319.584 147.192ZM337.932 140.936H338.988V148.936H328.268V140.936H329.324V147.912H333.1V140.936H334.156V147.912H337.932V140.936ZM45.3259 172.936H43.9179L39.9179 169.08V172.936H38.8619V164.936H39.9179V168.472L43.7259 164.936H45.1659L41.0379 168.776L45.3259 172.936ZM52.6753 171.928C51.854 172.728 50.862 173.128 49.6993 173.128C48.5153 173.128 47.518 172.728 46.7073 171.928C45.8967 171.117 45.4913 170.12 45.4913 168.936C45.4913 167.752 45.8967 166.76 46.7073 165.96C47.518 165.149 48.5153 164.744 49.6993 164.744C50.8727 164.744 51.8647 165.149 52.6753 165.96C53.4967 166.76 53.9073 167.752 53.9073 168.936C53.9073 170.109 53.4967 171.106 52.6753 171.928ZM47.4593 171.192C48.0673 171.8 48.814 172.104 49.6993 172.104C50.5847 172.104 51.3313 171.8 51.9393 171.192C52.5473 170.573 52.8513 169.821 52.8513 168.936C52.8513 168.05 52.5473 167.304 51.9393 166.696C51.3313 166.077 50.5847 165.768 49.6993 165.768C48.814 165.768 48.0673 166.077 47.4593 166.696C46.8513 167.304 46.5473 168.05 46.5473 168.936C46.5473 169.821 46.8513 170.573 47.4593 171.192ZM61.3384 164.936H62.3944V172.936H61.3384V169.448H56.7304V172.936H55.6744V164.936H56.7304V168.424H61.3384V164.936ZM70.3876 164.936V165.96H67.5556V172.936H66.4996V165.96H63.6676V164.936H70.3876ZM75.9624 164.744C77.1038 164.744 78.0744 165.149 78.8744 165.96C79.6851 166.77 80.0904 167.762 80.0904 168.936C80.0904 170.109 79.6851 171.101 78.8744 171.912C78.0744 172.722 77.1038 173.128 75.9624 173.128C74.5438 173.128 73.4664 172.541 72.7304 171.368V176.136H71.6744V164.936H72.7304V166.504C73.4664 165.33 74.5438 164.744 75.9624 164.744ZM73.6424 171.192C74.2504 171.8 74.9971 172.104 75.8824 172.104C76.7678 172.104 77.5144 171.8 78.1224 171.192C78.7304 170.573 79.0344 169.821 79.0344 168.936C79.0344 168.05 78.7304 167.304 78.1224 166.696C77.5144 166.077 76.7678 165.768 75.8824 165.768C74.9971 165.768 74.2504 166.077 73.6424 166.696C73.0344 167.304 72.7304 168.05 72.7304 168.936C72.7304 169.821 73.0344 170.573 73.6424 171.192ZM88.7263 164.936H89.7823V172.936H88.7263V171.368C87.9903 172.541 86.913 173.128 85.4943 173.128C84.353 173.128 83.377 172.722 82.5663 171.912C81.7663 171.101 81.3663 170.109 81.3663 168.936C81.3663 167.773 81.7663 166.781 82.5663 165.96C83.377 165.149 84.353 164.744 85.4943 164.744C86.913 164.744 87.9903 165.33 88.7263 166.504V164.936ZM83.3343 171.192C83.9423 171.8 84.689 172.104 85.5743 172.104C86.4597 172.104 87.2063 171.8 87.8143 171.192C88.4223 170.573 88.7263 169.821 88.7263 168.936C88.7263 168.05 88.4223 167.304 87.8143 166.696C87.2063 166.077 86.4597 165.768 85.5743 165.768C84.689 165.768 83.9423 166.077 83.3343 166.696C82.7263 167.304 82.4223 168.05 82.4223 168.936C82.4223 169.821 82.7263 170.573 83.3343 171.192ZM97.1382 164.936V165.96H93.0742V172.936H92.0182V164.936H97.1382ZM101.808 164.744C103.003 164.744 103.957 165.165 104.672 166.008C105.408 166.84 105.776 167.826 105.776 168.968C105.776 169.021 105.771 169.09 105.76 169.176C105.76 169.261 105.755 169.357 105.744 169.464H98.7199C98.8266 170.274 99.1679 170.92 99.7439 171.4C100.32 171.869 101.04 172.104 101.904 172.104C102.512 172.104 103.035 171.981 103.472 171.736C103.92 171.48 104.256 171.149 104.48 170.744L105.408 171.288C105.056 171.864 104.576 172.317 103.968 172.648C103.36 172.968 102.667 173.128 101.888 173.128C100.629 173.128 99.6053 172.733 98.8159 171.944C98.0266 171.154 97.6319 170.152 97.6319 168.936C97.6319 167.73 98.0213 166.733 98.7999 165.944C99.5786 165.144 100.581 164.744 101.808 164.744ZM101.808 165.768C101.392 165.768 101.008 165.832 100.656 165.96C100.304 166.088 99.9893 166.269 99.7119 166.504C99.4453 166.738 99.2266 167.021 99.0559 167.352C98.8853 167.682 98.7733 168.045 98.7199 168.44H104.688C104.571 167.586 104.245 166.93 103.712 166.472C103.157 166.002 102.523 165.768 101.808 165.768ZM113.12 164.936H114.176V172.936H113.12V169.448H108.512V172.936H107.456V164.936H108.512V168.424H113.12V164.936ZM122.169 164.936V165.96H119.337V172.936H118.281V165.96H115.449V164.936H122.169ZM124.091 171.576L123.131 175.176H122.171L122.811 171.576H124.091ZM136.638 172.936H135.23L131.23 169.08V172.936H130.174V164.936H131.23V168.472L135.038 164.936H136.478L132.35 168.776L136.638 172.936ZM143.841 164.936V165.96H141.009V172.936H139.953V165.96H137.121V164.936H143.841ZM151.519 171.928C150.698 172.728 149.706 173.128 148.543 173.128C147.359 173.128 146.362 172.728 145.551 171.928C144.74 171.117 144.335 170.12 144.335 168.936C144.335 167.752 144.74 166.76 145.551 165.96C146.362 165.149 147.359 164.744 148.543 164.744C149.716 164.744 150.708 165.149 151.519 165.96C152.34 166.76 152.751 167.752 152.751 168.936C152.751 170.109 152.34 171.106 151.519 171.928ZM146.303 171.192C146.911 171.8 147.658 172.104 148.543 172.104C149.428 172.104 150.175 171.8 150.783 171.192C151.391 170.573 151.695 169.821 151.695 168.936C151.695 168.05 151.391 167.304 150.783 166.696C150.175 166.077 149.428 165.768 148.543 165.768C147.658 165.768 146.911 166.077 146.303 166.696C145.695 167.304 145.391 168.05 145.391 168.936C145.391 169.821 145.695 170.573 146.303 171.192ZM162.214 164.744C163.409 164.744 164.364 165.165 165.078 166.008C165.814 166.84 166.182 167.826 166.182 168.968C166.182 169.021 166.177 169.09 166.166 169.176C166.166 169.261 166.161 169.357 166.15 169.464H159.126C159.233 170.274 159.574 170.92 160.15 171.4C160.726 171.869 161.446 172.104 162.31 172.104C162.918 172.104 163.441 171.981 163.878 171.736C164.326 171.48 164.662 171.149 164.886 170.744L165.814 171.288C165.462 171.864 164.982 172.317 164.374 172.648C163.766 172.968 163.073 173.128 162.294 173.128C161.036 173.128 160.012 172.733 159.222 171.944C158.433 171.154 158.038 170.152 158.038 168.936C158.038 167.73 158.428 166.733 159.206 165.944C159.985 165.144 160.988 164.744 162.214 164.744ZM162.214 165.768C161.798 165.768 161.414 165.832 161.062 165.96C160.71 166.088 160.396 166.269 160.118 166.504C159.852 166.738 159.633 167.021 159.462 167.352C159.292 167.682 159.18 168.045 159.126 168.44H165.094C164.977 167.586 164.652 166.93 164.118 166.472C163.564 166.002 162.929 165.768 162.214 165.768ZM172.982 164.936V165.96H168.918V172.936H167.862V164.936H172.982ZM180.66 171.928C179.838 172.728 178.846 173.128 177.684 173.128C176.5 173.128 175.502 172.728 174.692 171.928C173.881 171.117 173.476 170.12 173.476 168.936C173.476 167.752 173.881 166.76 174.692 165.96C175.502 165.149 176.5 164.744 177.684 164.744C178.857 164.744 179.849 165.149 180.66 165.96C181.481 166.76 181.892 167.752 181.892 168.936C181.892 170.109 181.481 171.106 180.66 171.928ZM175.444 171.192C176.052 171.8 176.798 172.104 177.684 172.104C178.569 172.104 179.316 171.8 179.924 171.192C180.532 170.573 180.836 169.821 180.836 168.936C180.836 168.05 180.532 167.304 179.924 166.696C179.316 166.077 178.569 165.768 177.684 165.768C176.798 165.768 176.052 166.077 175.444 166.696C174.836 167.304 174.532 168.05 174.532 168.936C174.532 169.821 174.836 170.573 175.444 171.192ZM194.363 171.928C193.541 172.728 192.549 173.128 191.387 173.128C190.203 173.128 189.205 172.728 188.395 171.928C187.584 171.117 187.179 170.12 187.179 168.936C187.179 167.752 187.584 166.76 188.395 165.96C189.205 165.149 190.203 164.744 191.387 164.744C192.56 164.744 193.552 165.149 194.363 165.96C195.184 166.76 195.595 167.752 195.595 168.936C195.595 170.109 195.184 171.106 194.363 171.928ZM189.147 171.192C189.755 171.8 190.501 172.104 191.387 172.104C192.272 172.104 193.019 171.8 193.627 171.192C194.235 170.573 194.539 169.821 194.539 168.936C194.539 168.05 194.235 167.304 193.627 166.696C193.019 166.077 192.272 165.768 191.387 165.768C190.501 165.768 189.755 166.077 189.147 166.696C188.539 167.304 188.235 168.05 188.235 168.936C188.235 169.821 188.539 170.573 189.147 171.192ZM201.09 173.128C199.885 173.128 198.882 172.728 198.082 171.928C197.282 171.117 196.882 170.12 196.882 168.936C196.882 167.752 197.282 166.76 198.082 165.96C198.882 165.149 199.885 164.744 201.09 164.744C201.89 164.744 202.599 164.936 203.218 165.32C203.847 165.693 204.306 166.2 204.594 166.84L203.73 167.336C203.517 166.856 203.175 166.477 202.706 166.2C202.237 165.912 201.698 165.768 201.09 165.768C200.205 165.768 199.458 166.077 198.85 166.696C198.242 167.304 197.938 168.05 197.938 168.936C197.938 169.821 198.242 170.573 198.85 171.192C199.458 171.8 200.205 172.104 201.09 172.104C201.698 172.104 202.231 171.965 202.69 171.688C203.159 171.4 203.527 171.016 203.794 170.536L204.674 171.048C204.343 171.688 203.858 172.194 203.218 172.568C202.578 172.941 201.869 173.128 201.09 173.128ZM211.854 164.936H212.91V172.936H211.854V169.448H207.246V172.936H206.19V164.936H207.246V168.424H211.854V164.936ZM221.847 171.928C221.026 172.728 220.034 173.128 218.871 173.128C217.687 173.128 216.69 172.728 215.879 171.928C215.069 171.117 214.663 170.12 214.663 168.936C214.663 167.752 215.069 166.76 215.879 165.96C216.69 165.149 217.687 164.744 218.871 164.744C220.045 164.744 221.037 165.149 221.847 165.96C222.669 166.76 223.079 167.752 223.079 168.936C223.079 170.109 222.669 171.106 221.847 171.928ZM216.631 171.192C217.239 171.8 217.986 172.104 218.871 172.104C219.757 172.104 220.503 171.8 221.111 171.192C221.719 170.573 222.023 169.821 222.023 168.936C222.023 168.05 221.719 167.304 221.111 166.696C220.503 166.077 219.757 165.768 218.871 165.768C217.986 165.768 217.239 166.077 216.631 166.696C216.023 167.304 215.719 168.05 215.719 168.936C215.719 169.821 216.023 170.573 216.631 171.192ZM229.934 168.824C230.809 169.144 231.246 169.768 231.246 170.696C231.246 171.346 231.028 171.885 230.59 172.312C230.164 172.728 229.545 172.936 228.734 172.936H224.846V164.936H228.414C229.193 164.936 229.796 165.133 230.222 165.528C230.649 165.922 230.862 166.44 230.862 167.08C230.862 167.88 230.553 168.461 229.934 168.824ZM225.902 165.96V168.392H228.414C229.342 168.392 229.806 167.976 229.806 167.144C229.806 166.77 229.684 166.482 229.438 166.28C229.204 166.066 228.862 165.96 228.414 165.96H225.902ZM228.734 171.912C229.214 171.912 229.577 171.8 229.822 171.576C230.068 171.352 230.19 171.037 230.19 170.632C230.19 170.258 230.068 169.965 229.822 169.752C229.577 169.528 229.214 169.416 228.734 169.416H225.902V171.912H228.734ZM238.51 164.936H239.566V172.936H238.51V169.448H233.902V172.936H232.846V164.936H233.902V168.424H238.51V164.936ZM248.503 171.928C247.682 172.728 246.69 173.128 245.527 173.128C244.343 173.128 243.346 172.728 242.535 171.928C241.725 171.117 241.319 170.12 241.319 168.936C241.319 167.752 241.725 166.76 242.535 165.96C243.346 165.149 244.343 164.744 245.527 164.744C246.701 164.744 247.693 165.149 248.503 165.96C249.325 166.76 249.735 167.752 249.735 168.936C249.735 170.109 249.325 171.106 248.503 171.928ZM243.287 171.192C243.895 171.8 244.642 172.104 245.527 172.104C246.413 172.104 247.159 171.8 247.767 171.192C248.375 170.573 248.679 169.821 248.679 168.936C248.679 168.05 248.375 167.304 247.767 166.696C247.159 166.077 246.413 165.768 245.527 165.768C244.642 165.768 243.895 166.077 243.287 166.696C242.679 167.304 242.375 168.05 242.375 168.936C242.375 169.821 242.679 170.573 243.287 171.192ZM252.783 163.656V162.728H256.943V163.656H252.783ZM257.327 164.936H258.223V172.936H257.167V166.776L252.399 172.936H251.503V164.936H252.559V171.096L257.327 164.936ZM271.176 164.936V172.936H270.12V165.96H265.512V172.936H264.456V164.936H271.176ZM280.113 171.928C279.291 172.728 278.299 173.128 277.137 173.128C275.953 173.128 274.955 172.728 274.145 171.928C273.334 171.117 272.929 170.12 272.929 168.936C272.929 167.752 273.334 166.76 274.145 165.96C274.955 165.149 275.953 164.744 277.137 164.744C278.31 164.744 279.302 165.149 280.113 165.96C280.934 166.76 281.345 167.752 281.345 168.936C281.345 170.109 280.934 171.106 280.113 171.928ZM274.897 171.192C275.505 171.8 276.251 172.104 277.137 172.104C278.022 172.104 278.769 171.8 279.377 171.192C279.985 170.573 280.289 169.821 280.289 168.936C280.289 168.05 279.985 167.304 279.377 166.696C278.769 166.077 278.022 165.768 277.137 165.768C276.251 165.768 275.505 166.077 274.897 166.696C274.289 167.304 273.985 168.05 273.985 168.936C273.985 169.821 274.289 170.573 274.897 171.192ZM286.84 173.128C285.635 173.128 284.632 172.728 283.832 171.928C283.032 171.117 282.632 170.12 282.632 168.936C282.632 167.752 283.032 166.76 283.832 165.96C284.632 165.149 285.635 164.744 286.84 164.744C287.64 164.744 288.349 164.936 288.968 165.32C289.597 165.693 290.056 166.2 290.344 166.84L289.48 167.336C289.267 166.856 288.925 166.477 288.456 166.2C287.987 165.912 287.448 165.768 286.84 165.768C285.955 165.768 285.208 166.077 284.6 166.696C283.992 167.304 283.688 168.05 283.688 168.936C283.688 169.821 283.992 170.573 284.6 171.192C285.208 171.8 285.955 172.104 286.84 172.104C287.448 172.104 287.981 171.965 288.44 171.688C288.909 171.4 289.277 171.016 289.544 170.536L290.424 171.048C290.093 171.688 289.608 172.194 288.968 172.568C288.328 172.941 287.619 173.128 286.84 173.128ZM297.544 164.936V165.96H294.712V172.936H293.656V165.96H290.824V164.936H297.544ZM305.398 164.936H306.454V172.936H305.398V171.368C304.662 172.541 303.585 173.128 302.166 173.128C301.025 173.128 300.049 172.722 299.238 171.912C298.438 171.101 298.038 170.109 298.038 168.936C298.038 167.773 298.438 166.781 299.238 165.96C300.049 165.149 301.025 164.744 302.166 164.744C303.585 164.744 304.662 165.33 305.398 166.504V164.936ZM300.006 171.192C300.614 171.8 301.361 172.104 302.246 172.104C303.132 172.104 303.878 171.8 304.486 171.192C305.094 170.573 305.398 169.821 305.398 168.936C305.398 168.05 305.094 167.304 304.486 166.696C303.878 166.077 303.132 165.768 302.246 165.768C301.361 165.768 300.614 166.077 300.006 166.696C299.398 167.304 299.094 168.05 299.094 168.936C299.094 169.821 299.398 170.573 300.006 171.192ZM313.778 168.824C314.653 169.144 315.09 169.768 315.09 170.696C315.09 171.346 314.871 171.885 314.434 172.312C314.007 172.728 313.389 172.936 312.578 172.936H308.69V164.936H312.258C313.037 164.936 313.639 165.133 314.066 165.528C314.493 165.922 314.706 166.44 314.706 167.08C314.706 167.88 314.397 168.461 313.778 168.824ZM309.746 165.96V168.392H312.258C313.186 168.392 313.65 167.976 313.65 167.144C313.65 166.77 313.527 166.482 313.282 166.28C313.047 166.066 312.706 165.96 312.258 165.96H309.746ZM312.578 171.912C313.058 171.912 313.421 171.8 313.666 171.576C313.911 171.352 314.034 171.037 314.034 170.632C314.034 170.258 313.911 169.965 313.666 169.752C313.421 169.528 313.058 169.416 312.578 169.416H309.746V171.912H312.578ZM327.41 171.912H328.53V175.08H327.474V172.936H316.69V164.936H317.746V171.912H321.522V164.936H322.578V171.912H326.354V164.936H327.41V171.912ZM335.952 164.936H336.848V172.936H335.792V166.776L331.024 172.936H330.128V164.936H331.184V171.096L335.952 164.936ZM345.545 172.936H344.137L340.137 169.08V172.936H339.081V164.936H340.137V168.472L343.945 164.936H345.385L341.257 168.776L345.545 172.936Z" fill="#65788E"/>
<line x1="426.774" y1="207.145" x2="37.7419" y2="207.145" stroke="#EDF2F7" stroke-width="1.45161"/>
<path d="M77.2706 240.528C78.176 240.528 78.9273 240.813 79.5246 241.382C80.122 241.952 80.4206 242.67 80.4206 243.538C80.4206 244.406 80.122 245.125 79.5246 245.694C78.9273 246.264 78.176 246.548 77.2706 246.548H73.5606V236.748H79.5806V238.288H75.1706V240.528H77.2706ZM77.2706 245.036C77.7186 245.036 78.0873 244.901 78.3766 244.63C78.666 244.35 78.8106 243.986 78.8106 243.538C78.8106 243.09 78.666 242.731 78.3766 242.46C78.0873 242.18 77.7186 242.04 77.2706 242.04H75.1706V245.036H77.2706ZM87.6301 246.548V239.898L83.0101 246.548H81.7501V236.748H83.3601V243.398L87.9801 236.748H89.2401V246.548H87.6301ZM97.0074 236.748H98.6174V246.548H97.0074V242.306H92.8074V246.548H91.1974V236.748H92.8074V240.766H97.0074V236.748Z" fill="#999999"/>
<path d="M362.416 246.756C360.731 246.756 359.333 246.202 358.224 245.092C357.115 243.962 356.56 242.58 356.56 240.948C356.56 239.306 357.115 237.93 358.224 236.82C359.323 235.7 360.72 235.14 362.416 235.14C363.429 235.14 364.363 235.38 365.216 235.86C366.08 236.34 366.752 236.991 367.232 237.812L365.632 238.74C365.333 238.186 364.896 237.748 364.32 237.428C363.755 237.098 363.12 236.932 362.416 236.932C361.232 236.932 360.261 237.311 359.504 238.068C358.768 238.815 358.4 239.775 358.4 240.948C358.4 242.122 358.768 243.082 359.504 243.828C360.261 244.586 361.232 244.964 362.416 244.964C363.12 244.964 363.76 244.804 364.336 244.484C364.912 244.154 365.344 243.711 365.632 243.156L367.232 244.068C366.773 244.879 366.107 245.535 365.232 246.036C364.389 246.516 363.451 246.756 362.416 246.756ZM372.151 242.468L375.799 246.548H373.735L370.455 242.852V246.548H368.727V238.548H370.455V242.084L373.559 238.548H375.671L372.151 242.468ZM381.489 238.34C382.577 238.34 383.516 238.751 384.305 239.572C385.084 240.383 385.473 241.375 385.473 242.548C385.473 243.732 385.084 244.73 384.305 245.54C383.526 246.351 382.588 246.756 381.489 246.756C380.284 246.756 379.35 246.308 378.689 245.412V249.748H376.961V238.548H378.689V239.7C379.34 238.794 380.273 238.34 381.489 238.34ZM379.409 244.388C379.889 244.868 380.492 245.108 381.217 245.108C381.942 245.108 382.545 244.868 383.025 244.388C383.505 243.898 383.745 243.284 383.745 242.548C383.745 241.812 383.505 241.204 383.025 240.724C382.545 240.234 381.942 239.988 381.217 239.988C380.492 239.988 379.889 240.234 379.409 240.724C378.929 241.204 378.689 241.812 378.689 242.548C378.689 243.274 378.929 243.887 379.409 244.388ZM388.767 241.268H390.527C391.391 241.268 392.09 241.514 392.623 242.004C393.167 242.484 393.439 243.119 393.439 243.908C393.439 244.687 393.167 245.322 392.623 245.812C392.09 246.303 391.391 246.548 390.527 246.548H387.039V238.548H388.767V241.268ZM394.399 246.548V238.548H396.127V246.548H394.399ZM388.767 244.996H390.543C390.885 244.996 391.167 244.895 391.391 244.692C391.626 244.49 391.743 244.228 391.743 243.908C391.743 243.588 391.631 243.327 391.407 243.124C391.183 242.922 390.895 242.82 390.543 242.82H388.767V244.996ZM397.285 238.548H404.245V240.212H401.637V246.548H399.909V240.212H397.285V238.548ZM411.87 245.54C411.059 246.351 410.062 246.756 408.878 246.756C407.694 246.756 406.696 246.351 405.886 245.54C405.064 244.719 404.654 243.722 404.654 242.548C404.654 241.375 405.064 240.378 405.886 239.556C406.696 238.746 407.694 238.34 408.878 238.34C410.062 238.34 411.059 238.746 411.87 239.556C412.691 240.378 413.102 241.375 413.102 242.548C413.102 243.722 412.691 244.719 411.87 245.54ZM406.382 242.548C406.382 243.274 406.622 243.876 407.102 244.356C407.582 244.836 408.174 245.076 408.878 245.076C409.582 245.076 410.174 244.836 410.654 244.356C411.134 243.876 411.374 243.274 411.374 242.548C411.374 241.823 411.134 241.22 410.654 240.74C410.174 240.26 409.582 240.02 408.878 240.02C408.174 240.02 407.582 240.26 407.102 240.74C406.622 241.22 406.382 241.823 406.382 242.548Z" fill="black"/>
<path d="M57.0968 234.484H58.3065C60.9788 234.484 63.1452 236.65 63.1452 239.323V251.42C63.1452 254.092 60.9788 256.258 58.3065 256.258H46.2097C43.5373 256.258 41.371 254.092 41.371 251.42V239.323C41.371 236.65 43.5373 234.484 46.2097 234.484H47.4194M57.0968 234.484C57.0968 235.82 56.0136 236.903 54.6774 236.903H49.8387C48.5025 236.903 47.4194 235.82 47.4194 234.484M57.0968 234.484C57.0968 233.148 56.0136 232.065 54.6774 232.065H49.8387C48.5025 232.065 47.4194 233.148 47.4194 234.484M47.4194 241.742H57.0968M47.4194 246.581H57.0968M47.4194 251.42H52.2581" stroke="#65788E" stroke-width="1.45161" stroke-linecap="round"/>
<path d="M77.1726 289.781C78.0966 289.781 78.8666 290.089 79.4826 290.705C80.108 291.321 80.4206 292.086 80.4206 293.001C80.4206 293.906 80.108 294.671 79.4826 295.297C78.8666 295.913 78.0966 296.221 77.1726 296.221H75.1706V299.581H73.5606V289.781H77.1726ZM77.1726 294.709C77.406 294.709 77.6206 294.667 77.8166 294.583C78.022 294.499 78.1993 294.382 78.3486 294.233C78.498 294.074 78.61 293.892 78.6846 293.687C78.7686 293.481 78.8106 293.253 78.8106 293.001C78.8106 292.749 78.7686 292.52 78.6846 292.315C78.61 292.109 78.498 291.932 78.3486 291.783C78.1993 291.624 78.022 291.503 77.8166 291.419C77.6206 291.335 77.406 291.293 77.1726 291.293H75.1706V294.709H77.1726ZM86.4385 292.581H88.0485L85.3605 299.805C85.0338 300.701 84.5765 301.363 83.9885 301.793C83.4098 302.231 82.7285 302.427 81.9445 302.381V300.967C82.4205 300.995 82.8031 300.897 83.0925 300.673C83.3911 300.458 83.6291 300.108 83.8065 299.623L83.8485 299.525L80.9085 292.581H82.5185L84.6465 297.677L86.4385 292.581ZM95.1819 299.581H93.3759L90.5059 296.347V299.581H88.9939V292.581H90.5059V295.675L93.2219 292.581H95.0699L91.9899 296.011L95.1819 299.581ZM98.9424 299.763C97.9064 299.763 97.0338 299.408 96.3244 298.699C95.6058 297.98 95.2464 297.107 95.2464 296.081C95.2464 295.054 95.6058 294.181 96.3244 293.463C97.0338 292.753 97.9064 292.399 98.9424 292.399C99.9784 292.399 100.851 292.753 101.56 293.463C102.279 294.181 102.638 295.054 102.638 296.081C102.638 297.107 102.279 297.98 101.56 298.699C100.851 299.408 99.9784 299.763 98.9424 299.763ZM97.3884 297.663C97.8084 298.083 98.3264 298.293 98.9424 298.293C99.5584 298.293 100.076 298.083 100.496 297.663C100.916 297.243 101.126 296.715 101.126 296.081C101.126 295.446 100.916 294.919 100.496 294.499C100.076 294.079 99.5584 293.869 98.9424 293.869C98.3264 293.869 97.8084 294.079 97.3884 294.499C96.9684 294.919 96.7584 295.446 96.7584 296.081C96.7584 296.715 96.9684 297.243 97.3884 297.663ZM108.85 295.983C109.54 296.309 109.886 296.846 109.886 297.593C109.886 298.181 109.685 298.661 109.284 299.035C108.892 299.399 108.327 299.581 107.59 299.581H104.006V292.581H107.31C108.038 292.581 108.598 292.763 108.99 293.127C109.382 293.481 109.578 293.943 109.578 294.513C109.578 295.175 109.335 295.665 108.85 295.983ZM105.448 293.869V295.423H107.198C107.814 295.423 108.122 295.161 108.122 294.639C108.122 294.125 107.814 293.869 107.198 293.869H105.448ZM107.45 298.265C108.084 298.265 108.402 297.989 108.402 297.439C108.402 297.196 108.318 297.009 108.15 296.879C107.982 296.739 107.748 296.669 107.45 296.669H105.448V298.265H107.45ZM114.419 299.763C113.383 299.763 112.51 299.408 111.801 298.699C111.082 297.98 110.723 297.107 110.723 296.081C110.723 295.054 111.082 294.181 111.801 293.463C112.51 292.753 113.383 292.399 114.419 292.399C115.455 292.399 116.328 292.753 117.037 293.463C117.756 294.181 118.115 295.054 118.115 296.081C118.115 297.107 117.756 297.98 117.037 298.699C116.328 299.408 115.455 299.763 114.419 299.763ZM112.865 297.663C113.285 298.083 113.803 298.293 114.419 298.293C115.035 298.293 115.553 298.083 115.973 297.663C116.393 297.243 116.603 296.715 116.603 296.081C116.603 295.446 116.393 294.919 115.973 294.499C115.553 294.079 115.035 293.869 114.419 293.869C113.803 293.869 113.285 294.079 112.865 294.499C112.445 294.919 112.235 295.446 112.235 296.081C112.235 296.715 112.445 297.243 112.865 297.663ZM125.369 298.153H126.307V301.457H124.823V299.581H120.021V301.457H118.537V298.153H119.391C119.82 297.555 120.035 296.711 120.035 295.619V292.581H125.369V298.153ZM123.885 298.153V293.967H121.519V295.619C121.519 296.627 121.365 297.471 121.057 298.153H123.885ZM132.603 292.581H133.765V299.581H132.281V295.129L128.697 299.581H127.535V292.581H129.019V297.019L132.603 292.581ZM140.867 292.581V294.037H138.585V299.581H137.073V294.037H134.777V292.581H140.867ZM142.807 296.725C142.919 297.257 143.171 297.667 143.563 297.957C143.964 298.237 144.459 298.377 145.047 298.377C145.84 298.377 146.442 298.087 146.853 297.509L148.099 298.237C147.418 299.254 146.396 299.763 145.033 299.763C143.904 299.763 142.984 299.417 142.275 298.727C141.575 298.027 141.225 297.145 141.225 296.081C141.225 295.045 141.57 294.172 142.261 293.463C142.942 292.753 143.829 292.399 144.921 292.399C145.938 292.399 146.778 292.758 147.441 293.477C148.104 294.195 148.435 295.068 148.435 296.095C148.435 296.169 148.43 296.263 148.421 296.375C148.412 296.477 148.398 296.594 148.379 296.725H142.807ZM146.909 295.493C146.806 294.923 146.573 294.494 146.209 294.205C145.845 293.915 145.411 293.771 144.907 293.771C144.347 293.771 143.88 293.925 143.507 294.233C143.134 294.541 142.896 294.961 142.793 295.493H146.909ZM155.4 292.581V299.581H153.888V294.037H151.55V296.641C151.55 297.751 151.307 298.54 150.822 299.007C150.337 299.473 149.646 299.665 148.75 299.581V298.167C149.179 298.241 149.501 298.157 149.716 297.915C149.931 297.663 150.038 297.215 150.038 296.571V292.581H155.4ZM160.214 294.961C160.97 294.961 161.581 295.175 162.048 295.605C162.524 296.025 162.762 296.58 162.762 297.271C162.762 297.952 162.524 298.507 162.048 298.937C161.581 299.366 160.97 299.581 160.214 299.581H157.162V292.581H158.674V294.961H160.214ZM160.228 298.223C160.527 298.223 160.774 298.134 160.97 297.957C161.175 297.779 161.278 297.551 161.278 297.271C161.278 296.981 161.175 296.753 160.97 296.585C160.774 296.407 160.527 296.319 160.228 296.319H158.674V298.223H160.228Z" fill="#999999"/>
<path d="M366.76 301.208C365.074 301.208 363.677 300.653 362.568 299.544C361.458 298.413 360.904 297.032 360.904 295.4C360.904 293.757 361.458 292.381 362.568 291.272C363.666 290.152 365.064 289.592 366.76 289.592C367.272 289.592 367.762 289.656 368.232 289.784C368.712 289.901 369.16 290.077 369.576 290.312C369.992 290.547 370.365 290.829 370.696 291.16C371.037 291.48 371.33 291.848 371.576 292.264L369.976 293.192C369.677 292.637 369.24 292.2 368.664 291.88C368.098 291.549 367.464 291.384 366.76 291.384C365.576 291.384 364.605 291.763 363.848 292.52C363.112 293.277 362.744 294.237 362.744 295.4C362.744 296.573 363.112 297.533 363.848 298.28C364.605 299.037 365.576 299.416 366.76 299.416C367.464 299.416 368.104 299.256 368.68 298.936C369.256 298.605 369.688 298.163 369.976 297.608L371.576 298.52C371.117 299.331 370.45 299.987 369.576 300.488C368.722 300.968 367.784 301.208 366.76 301.208ZM380.142 301H378.079L374.799 297.304V301H373.071V293H374.799V296.536L377.903 293H380.015L376.495 296.92L380.142 301ZM385.833 292.792C386.921 292.792 387.86 293.203 388.649 294.024C389.428 294.835 389.817 295.827 389.817 297C389.817 298.184 389.428 299.181 388.649 299.992C387.87 300.803 386.932 301.208 385.833 301.208C384.617 301.208 383.684 300.76 383.033 299.864V304.2H381.305V293H383.033V294.152C383.684 293.245 384.617 292.792 385.833 292.792ZM383.753 298.84C384.233 299.32 384.836 299.56 385.561 299.56C386.286 299.56 386.889 299.32 387.369 298.84C387.849 298.349 388.089 297.736 388.089 297C388.089 296.264 387.849 295.656 387.369 295.176C386.889 294.685 386.286 294.44 385.561 294.44C384.836 294.44 384.233 294.685 383.753 295.176C383.273 295.656 383.033 296.264 383.033 297C383.033 297.736 383.273 298.349 383.753 298.84ZM394.871 295.72C395.735 295.72 396.434 295.965 396.967 296.456C397.511 296.936 397.783 297.571 397.783 298.36C397.783 299.139 397.511 299.773 396.967 300.264C396.434 300.755 395.735 301 394.871 301H391.383V293H393.111V295.72H394.871ZM398.743 293H400.471V301H398.743V293ZM394.887 299.448C395.228 299.448 395.511 299.347 395.735 299.144C395.97 298.941 396.087 298.68 396.087 298.36C396.087 298.029 395.97 297.768 395.735 297.576C395.511 297.373 395.228 297.272 394.887 297.272H393.111V299.448H394.887ZM408.589 293V294.664H405.981V301H404.253V294.664H401.629V293H408.589ZM413.222 301.208C412.038 301.208 411.04 300.803 410.23 299.992C409.408 299.171 408.998 298.173 408.998 297C408.998 295.827 409.408 294.829 410.23 294.008C411.04 293.197 412.038 292.792 413.222 292.792C414.406 292.792 415.403 293.197 416.214 294.008C417.035 294.829 417.446 295.827 417.446 297C417.446 298.173 417.035 299.171 416.214 299.992C415.403 300.803 414.406 301.208 413.222 301.208ZM411.446 298.808C411.926 299.288 412.518 299.528 413.222 299.528C413.926 299.528 414.518 299.288 414.998 298.808C415.478 298.328 415.718 297.725 415.718 297C415.718 296.275 415.478 295.672 414.998 295.192C414.518 294.712 413.926 294.472 413.222 294.472C412.518 294.472 411.926 294.712 411.446 295.192C410.966 295.672 410.726 296.275 410.726 297C410.726 297.725 410.966 298.328 411.446 298.808Z" fill="black"/>
<path d="M47.4194 294.774H57.0968M47.4194 299.613H52.2581M51.0484 286.307H53.4678C59.4805 286.307 64.3548 291.181 64.3548 297.194C64.3548 303.207 59.4805 308.081 53.4678 308.081H45C42.3277 308.081 40.1613 305.914 40.1613 303.242V297.194C40.1613 291.181 45.0356 286.307 51.0484 286.307Z" stroke="#65788E" stroke-width="1.81452" stroke-linecap="round"/>
<path d="M362.416 353.918C360.731 353.918 359.333 353.363 358.224 352.254C357.115 351.123 356.56 349.742 356.56 348.11C356.56 346.467 357.115 345.091 358.224 343.982C359.323 342.862 360.72 342.302 362.416 342.302C363.429 342.302 364.363 342.542 365.216 343.022C366.08 343.502 366.752 344.152 367.232 344.974L365.632 345.902C365.333 345.347 364.896 344.91 364.32 344.59C363.755 344.259 363.12 344.094 362.416 344.094C361.232 344.094 360.261 344.472 359.504 345.23C358.768 345.976 358.4 346.936 358.4 348.11C358.4 349.283 358.768 350.243 359.504 350.99C360.261 351.747 361.232 352.126 362.416 352.126C363.12 352.126 363.76 351.966 364.336 351.646C364.912 351.315 365.344 350.872 365.632 350.318L367.232 351.23C366.773 352.04 366.107 352.696 365.232 353.198C364.389 353.678 363.451 353.918 362.416 353.918ZM372.151 349.63L375.799 353.71H373.735L370.455 350.014V353.71H368.727V345.71H370.455V349.246L373.559 345.71H375.671L372.151 349.63ZM381.489 345.502C382.577 345.502 383.516 345.912 384.305 346.734C385.084 347.544 385.473 348.536 385.473 349.71C385.473 350.894 385.084 351.891 384.305 352.702C383.526 353.512 382.588 353.918 381.489 353.918C380.284 353.918 379.35 353.47 378.689 352.574V356.91H376.961V345.71H378.689V346.862C379.34 345.955 380.273 345.502 381.489 345.502ZM379.409 351.55C379.889 352.03 380.492 352.27 381.217 352.27C381.942 352.27 382.545 352.03 383.025 351.55C383.505 351.059 383.745 350.446 383.745 349.71C383.745 348.974 383.505 348.366 383.025 347.886C382.545 347.395 381.942 347.15 381.217 347.15C380.492 347.15 379.889 347.395 379.409 347.886C378.929 348.366 378.689 348.974 378.689 349.71C378.689 350.435 378.929 351.048 379.409 351.55ZM388.767 348.43H390.527C391.391 348.43 392.09 348.675 392.623 349.166C393.167 349.646 393.439 350.28 393.439 351.07C393.439 351.848 393.167 352.483 392.623 352.974C392.09 353.464 391.391 353.71 390.527 353.71H387.039V345.71H388.767V348.43ZM394.399 353.71V345.71H396.127V353.71H394.399ZM388.767 352.158H390.543C390.885 352.158 391.167 352.056 391.391 351.854C391.626 351.651 391.743 351.39 391.743 351.07C391.743 350.75 391.631 350.488 391.407 350.286C391.183 350.083 390.895 349.982 390.543 349.982H388.767V352.158ZM397.285 345.71H404.245V347.374H401.637V353.71H399.909V347.374H397.285V345.71ZM411.87 352.702C411.059 353.512 410.062 353.918 408.878 353.918C407.694 353.918 406.696 353.512 405.886 352.702C405.064 351.88 404.654 350.883 404.654 349.71C404.654 348.536 405.064 347.539 405.886 346.718C406.696 345.907 407.694 345.502 408.878 345.502C410.062 345.502 411.059 345.907 411.87 346.718C412.691 347.539 413.102 348.536 413.102 349.71C413.102 350.883 412.691 351.88 411.87 352.702ZM406.382 349.71C406.382 350.435 406.622 351.038 407.102 351.518C407.582 351.998 408.174 352.238 408.878 352.238C409.582 352.238 410.174 351.998 410.654 351.518C411.134 351.038 411.374 350.435 411.374 349.71C411.374 348.984 411.134 348.382 410.654 347.902C410.174 347.422 409.582 347.182 408.878 347.182C408.174 347.182 407.582 347.422 407.102 347.902C406.622 348.382 406.382 348.984 406.382 349.71Z" fill="black"/>
<path d="M52.2571 352.709H51.3823C51.3823 353.086 51.6232 353.42 51.9805 353.539L52.2571 352.709ZM53.132 346.661C53.132 346.178 52.7403 345.786 52.2571 345.786C51.7739 345.786 51.3823 346.178 51.3823 346.661H53.132ZM55.6095 354.749C56.0679 354.902 56.5633 354.654 56.7161 354.196C56.8689 353.737 56.6212 353.242 56.1628 353.089L55.6095 354.749ZM53.132 352.709V346.661H51.3823V352.709H53.132ZM51.9805 353.539L55.6095 354.749L56.1628 353.089L52.5338 351.879L51.9805 353.539ZM63.479 352.709C63.479 358.907 58.4548 363.931 52.2571 363.931V365.681C59.4211 365.681 65.2287 359.873 65.2287 352.709H63.479ZM52.2571 363.931C46.0594 363.931 41.0352 358.907 41.0352 352.709H39.2855C39.2855 359.873 45.0931 365.681 52.2571 365.681V363.931ZM41.0352 352.709C41.0352 346.512 46.0594 341.487 52.2571 341.487V339.738C45.0931 339.738 39.2855 345.545 39.2855 352.709H41.0352ZM52.2571 341.487C58.4548 341.487 63.479 346.512 63.479 352.709H65.2287C65.2287 345.545 59.4211 339.738 52.2571 339.738V341.487Z" fill="#83BF6E"/>
<path d="M80.9022 337.728C82.3209 337.728 83.5202 338.222 84.5002 339.212C85.4895 340.192 85.9842 341.391 85.9842 342.81C85.9842 344.228 85.4895 345.432 84.5002 346.422C83.5202 347.402 82.3209 347.892 80.9022 347.892C79.5955 347.892 78.4755 347.472 77.5422 346.632C76.6182 345.792 76.0769 344.728 75.9182 343.44H74.3642V347.71H72.7542V337.91H74.3642V341.9H75.9602C76.1655 340.696 76.7255 339.702 77.6402 338.918C78.5549 338.124 79.6422 337.728 80.9022 337.728ZM80.9022 339.296C79.9129 339.296 79.0869 339.627 78.4242 340.29C77.7615 340.952 77.4302 341.792 77.4302 342.81C77.4302 343.808 77.7615 344.648 78.4242 345.33C79.1055 345.992 79.9315 346.324 80.9022 346.324C81.8822 346.324 82.7035 345.992 83.3662 345.33C84.0382 344.658 84.3742 343.818 84.3742 342.81C84.3742 341.802 84.0382 340.966 83.3662 340.304C82.7035 339.632 81.8822 339.296 80.9022 339.296ZM91.3155 340.528C92.2675 340.528 93.0888 340.887 93.7795 341.606C94.4608 342.315 94.8015 343.183 94.8015 344.21C94.8015 345.246 94.4608 346.118 93.7795 346.828C93.0981 347.537 92.2768 347.892 91.3155 347.892C90.2515 347.892 89.4348 347.5 88.8655 346.716V350.51H87.3535V340.71H88.8655V341.718C89.4348 340.924 90.2515 340.528 91.3155 340.528ZM89.4955 345.82C89.9155 346.24 90.4428 346.45 91.0775 346.45C91.7121 346.45 92.2395 346.24 92.6595 345.82C93.0795 345.39 93.2895 344.854 93.2895 344.21C93.2895 343.566 93.0795 343.034 92.6595 342.614C92.2395 342.184 91.7121 341.97 91.0775 341.97C90.4428 341.97 89.9155 342.184 89.4955 342.614C89.0755 343.034 88.8655 343.566 88.8655 344.21C88.8655 344.854 89.0755 345.39 89.4955 345.82ZM101.24 340.71H102.402V347.71H100.918V343.258L97.3338 347.71H96.1718V340.71H97.6558V345.148L101.24 340.71ZM110.316 346.282H111.254V349.586H109.77V347.71H104.968V349.586H103.484V346.282H104.338C104.768 345.684 104.982 344.84 104.982 343.748V340.71H110.316V346.282ZM108.832 346.282V342.096H106.466V343.748C106.466 344.756 106.312 345.6 106.004 346.282H108.832ZM117.55 340.71H118.712V347.71H117.228V343.258L113.644 347.71H112.482V340.71H113.966V345.148L117.55 340.71ZM124.723 340.71H126.235V347.71H124.723V345.344C124.172 345.549 123.584 345.652 122.959 345.652C122.081 345.652 121.391 345.442 120.887 345.022C120.392 344.592 120.145 343.958 120.145 343.118V340.71H121.657V342.978C121.657 343.818 122.156 344.238 123.155 344.238C123.724 344.238 124.247 344.13 124.723 343.916V340.71ZM129.19 344.854C129.302 345.386 129.554 345.796 129.946 346.086C130.347 346.366 130.842 346.506 131.43 346.506C132.223 346.506 132.825 346.216 133.236 345.638L134.482 346.366C133.801 347.383 132.779 347.892 131.416 347.892C130.287 347.892 129.367 347.546 128.658 346.856C127.958 346.156 127.608 345.274 127.608 344.21C127.608 343.174 127.953 342.301 128.644 341.592C129.325 340.882 130.212 340.528 131.304 340.528C132.321 340.528 133.161 340.887 133.824 341.606C134.487 342.324 134.818 343.197 134.818 344.224C134.818 344.298 134.813 344.392 134.804 344.504C134.795 344.606 134.781 344.723 134.762 344.854H129.19ZM133.292 343.622C133.189 343.052 132.956 342.623 132.592 342.334C132.228 342.044 131.794 341.9 131.29 341.9C130.73 341.9 130.263 342.054 129.89 342.362C129.517 342.67 129.279 343.09 129.176 343.622H133.292ZM139.411 347.892C138.357 347.892 137.475 347.537 136.765 346.828C136.065 346.118 135.715 345.246 135.715 344.21C135.715 343.164 136.065 342.292 136.765 341.592C137.475 340.882 138.357 340.528 139.411 340.528C140.093 340.528 140.713 340.691 141.273 341.018C141.833 341.335 142.253 341.774 142.533 342.334L141.231 343.09C141.073 342.754 140.83 342.492 140.503 342.306C140.186 342.11 139.817 342.012 139.397 342.012C138.781 342.012 138.263 342.222 137.843 342.642C137.433 343.071 137.227 343.594 137.227 344.21C137.227 344.826 137.433 345.348 137.843 345.778C138.263 346.198 138.781 346.408 139.397 346.408C139.817 346.408 140.191 346.31 140.517 346.114C140.844 345.918 141.091 345.656 141.259 345.33L142.561 346.072C142.263 346.632 141.833 347.075 141.273 347.402C140.713 347.728 140.093 347.892 139.411 347.892ZM149.883 347.71H148.077L145.207 344.476V347.71H143.695V340.71H145.207V343.804L147.923 340.71H149.771L146.691 344.14L149.883 347.71ZM155.968 340.71H157.13V347.71H155.646V343.258L152.062 347.71H150.9V340.71H152.384V345.148L155.968 340.71ZM160.033 339.73V338.414H163.953V339.73H160.033ZM163.953 340.71H165.115V347.71H163.631V343.258L160.047 347.71H158.885V340.71H160.369V345.148L163.953 340.71ZM78.2002 357.71H79.7122V364.71H78.2002V363.702C77.6309 364.495 76.8142 364.892 75.7502 364.892C74.7889 364.892 73.9675 364.537 73.2862 363.828C72.6049 363.118 72.2642 362.246 72.2642 361.21C72.2642 360.174 72.6049 359.301 73.2862 358.592C73.9675 357.882 74.7889 357.528 75.7502 357.528C76.8049 357.528 77.6215 357.92 78.2002 358.704V357.71ZM74.4062 362.82C74.8262 363.24 75.3535 363.45 75.9882 363.45C76.6229 363.45 77.1502 363.24 77.5702 362.82C77.9902 362.39 78.2002 361.854 78.2002 361.21C78.2002 360.566 77.9902 360.034 77.5702 359.614C77.1502 359.184 76.6229 358.97 75.9882 358.97C75.3535 358.97 74.8262 359.184 74.4062 359.614C73.9862 360.034 73.7762 360.566 73.7762 361.21C73.7762 361.854 73.9862 362.39 74.4062 362.82ZM87.6346 363.282H88.5726V366.586H87.0886V364.71H82.2866V366.586H80.8026V363.282H81.6566C82.0859 362.684 82.3006 361.84 82.3006 360.748V357.71H87.6346V363.282ZM86.1506 363.282V359.096H83.7846V360.748C83.7846 361.756 83.6306 362.6 83.3226 363.282H86.1506ZM93.7627 357.528C94.7147 357.528 95.5361 357.887 96.2267 358.606C96.9081 359.315 97.2487 360.183 97.2487 361.21C97.2487 362.246 96.9081 363.118 96.2267 363.828C95.5454 364.537 94.7241 364.892 93.7627 364.892C92.6987 364.892 91.8821 364.5 91.3127 363.716V367.51H89.8007V357.71H91.3127V358.718C91.8821 357.924 92.6987 357.528 93.7627 357.528ZM91.9427 362.82C92.3627 363.24 92.8901 363.45 93.5247 363.45C94.1594 363.45 94.6867 363.24 95.1067 362.82C95.5267 362.39 95.7367 361.854 95.7367 361.21C95.7367 360.566 95.5267 360.034 95.1067 359.614C94.6867 359.184 94.1594 358.97 93.5247 358.97C92.8901 358.97 92.3627 359.184 91.9427 359.614C91.5227 360.034 91.3127 360.566 91.3127 361.21C91.3127 361.854 91.5227 362.39 91.9427 362.82ZM99.8091 361.854C99.9211 362.386 100.173 362.796 100.565 363.086C100.966 363.366 101.461 363.506 102.049 363.506C102.842 363.506 103.444 363.216 103.855 362.638L105.101 363.366C104.42 364.383 103.398 364.892 102.035 364.892C100.906 364.892 99.9864 364.546 99.2771 363.856C98.5771 363.156 98.2271 362.274 98.2271 361.21C98.2271 360.174 98.5724 359.301 99.2631 358.592C99.9444 357.882 100.831 357.528 101.923 357.528C102.94 357.528 103.78 357.887 104.443 358.606C105.106 359.324 105.437 360.197 105.437 361.224C105.437 361.298 105.432 361.392 105.423 361.504C105.414 361.606 105.4 361.723 105.381 361.854H99.8091ZM103.911 360.622C103.808 360.052 103.575 359.623 103.211 359.334C102.847 359.044 102.413 358.9 101.909 358.9C101.349 358.9 100.882 359.054 100.509 359.362C100.136 359.67 99.8978 360.09 99.7951 360.622H103.911ZM110.031 364.892C108.976 364.892 108.094 364.537 107.385 363.828C106.685 363.118 106.335 362.246 106.335 361.21C106.335 360.164 106.685 359.292 107.385 358.592C108.094 357.882 108.976 357.528 110.031 357.528C110.712 357.528 111.333 357.691 111.893 358.018C112.453 358.335 112.873 358.774 113.153 359.334L111.851 360.09C111.692 359.754 111.449 359.492 111.123 359.306C110.805 359.11 110.437 359.012 110.017 359.012C109.401 359.012 108.883 359.222 108.463 359.642C108.052 360.071 107.847 360.594 107.847 361.21C107.847 361.826 108.052 362.348 108.463 362.778C108.883 363.198 109.401 363.408 110.017 363.408C110.437 363.408 110.81 363.31 111.137 363.114C111.463 362.918 111.711 362.656 111.879 362.33L113.181 363.072C112.882 363.632 112.453 364.075 111.893 364.402C111.333 364.728 110.712 364.892 110.031 364.892Z" fill="#83BF6E"/>
<path d="M49.9355 95.1291V97.684H45.36V111.387H42.689V97.684H38.0903V95.1291H49.9355ZM64.5678 109.25C62.9419 110.876 60.9523 111.689 58.5987 111.689C56.2452 111.689 54.2478 110.876 52.6065 109.25C50.9807 107.609 50.1678 105.612 50.1678 103.258C50.1678 100.905 50.9807 98.9149 52.6065 97.2891C54.2478 95.6479 56.2452 94.8272 58.5987 94.8272C60.9523 94.8272 62.9419 95.6479 64.5678 97.2891C66.209 98.9149 67.0297 100.905 67.0297 103.258C67.0297 105.612 66.209 107.609 64.5678 109.25ZM54.4878 107.439C55.6181 108.538 56.9884 109.088 58.5987 109.088C60.2245 109.088 61.5871 108.538 62.6865 107.439C63.8013 106.324 64.3587 104.93 64.3587 103.258C64.3587 101.586 63.8013 100.2 62.6865 99.1008C61.5871 97.9859 60.2245 97.4285 58.5987 97.4285C56.9729 97.4285 55.6026 97.9859 54.4878 99.1008C53.3884 100.2 52.8387 101.586 52.8387 103.258C52.8387 104.915 53.3884 106.308 54.4878 107.439ZM83.0531 109.25C81.4273 110.876 79.4377 111.689 77.0841 111.689C74.7306 111.689 72.7331 110.876 71.0918 109.25C69.466 107.609 68.6531 105.612 68.6531 103.258C68.6531 100.905 69.466 98.9149 71.0918 97.2891C72.7331 95.6479 74.7306 94.8272 77.0841 94.8272C79.4377 94.8272 81.4273 95.6479 83.0531 97.2891C84.6944 98.9149 85.5151 100.905 85.5151 103.258C85.5151 105.612 84.6944 107.609 83.0531 109.25ZM72.9731 107.439C74.1035 108.538 75.4738 109.088 77.0841 109.088C78.7099 109.088 80.0725 108.538 81.1718 107.439C82.2867 106.324 82.8441 104.93 82.8441 103.258C82.8441 101.586 82.2867 100.2 81.1718 99.1008C80.0725 97.9859 78.7099 97.4285 77.0841 97.4285C75.4583 97.4285 74.088 97.9859 72.9731 99.1008C71.8738 100.2 71.3241 101.586 71.3241 103.258C71.3241 104.915 71.8738 106.308 72.9731 107.439ZM93.3398 101.168L94.9656 95.1291H97.0559L96.1269 101.168H93.3398ZM97.2882 101.168L98.914 95.1291H101.004L100.075 101.168H97.2882ZM111.539 111.689C109.092 111.689 107.064 110.884 105.454 109.274C103.843 107.632 103.038 105.627 103.038 103.258C103.038 100.874 103.843 98.8762 105.454 97.2659C107.049 95.6401 109.077 94.8272 111.539 94.8272C112.282 94.8272 112.994 94.9201 113.676 95.1059C114.372 95.2762 115.023 95.5317 115.627 95.8724C116.23 96.213 116.772 96.6233 117.252 97.1033C117.748 97.5679 118.174 98.102 118.53 98.7059L116.207 100.053C115.774 99.2479 115.139 98.613 114.303 98.1485C113.482 97.6685 112.561 97.4285 111.539 97.4285C109.82 97.4285 108.411 97.9782 107.312 99.0775C106.243 100.177 105.709 101.57 105.709 103.258C105.709 104.961 106.243 106.355 107.312 107.439C108.411 108.538 109.82 109.088 111.539 109.088C112.561 109.088 113.49 108.856 114.326 108.391C115.162 107.911 115.789 107.268 116.207 106.463L118.53 107.787C117.864 108.964 116.896 109.916 115.627 110.644C114.388 111.341 113.025 111.689 111.539 111.689ZM126.045 111.689C124.326 111.689 122.878 111.101 121.702 109.924C120.509 108.732 119.913 107.284 119.913 105.581C119.913 103.878 120.509 102.43 121.702 101.238C122.878 100.061 124.326 99.4724 126.045 99.4724C127.764 99.4724 129.211 100.061 130.388 101.238C131.58 102.43 132.176 103.878 132.176 105.581C132.176 107.284 131.58 108.732 130.388 109.924C129.211 111.101 127.764 111.689 126.045 111.689ZM123.467 108.205C124.164 108.902 125.023 109.25 126.045 109.25C127.067 109.25 127.926 108.902 128.623 108.205C129.32 107.508 129.668 106.634 129.668 105.581C129.668 104.528 129.32 103.653 128.623 102.956C127.926 102.259 127.067 101.911 126.045 101.911C125.023 101.911 124.164 102.259 123.467 102.956C122.77 103.653 122.422 104.528 122.422 105.581C122.422 106.634 122.77 107.508 123.467 108.205ZM147.126 99.4724C147.776 99.4724 148.372 99.5885 148.914 99.8208C149.456 100.038 149.921 100.347 150.308 100.75C150.695 101.152 150.989 101.648 151.19 102.236C151.407 102.825 151.516 103.475 151.516 104.187V111.387H149.007V104.35C149.007 103.545 148.806 102.925 148.403 102.492C148.001 102.043 147.451 101.818 146.754 101.818C145.965 101.818 145.345 102.074 144.896 102.585C144.447 103.096 144.223 103.862 144.223 104.884V111.387H141.714V104.35C141.714 103.545 141.521 102.925 141.134 102.492C140.762 102.043 140.228 101.818 139.531 101.818C138.772 101.818 138.153 102.074 137.673 102.585C137.193 103.096 136.953 103.862 136.953 104.884V111.387H134.445V99.7743H136.953V101.168C137.696 100.038 138.803 99.4724 140.274 99.4724C141.761 99.4724 142.86 100.084 143.572 101.307C144.331 100.084 145.516 99.4724 147.126 99.4724ZM160.773 99.4724C162.352 99.4724 163.715 100.068 164.861 101.261C165.991 102.438 166.556 103.878 166.556 105.581C166.556 107.299 165.991 108.747 164.861 109.924C163.73 111.101 162.368 111.689 160.773 111.689C159.008 111.689 157.653 111.039 156.709 109.738V116.032H154.2V99.7743H156.709V101.447C157.653 100.13 159.008 99.4724 160.773 99.4724ZM157.754 108.252C158.45 108.948 159.325 109.297 160.378 109.297C161.431 109.297 162.306 108.948 163.003 108.252C163.699 107.539 164.048 106.649 164.048 105.581C164.048 104.512 163.699 103.63 163.003 102.933C162.306 102.221 161.431 101.865 160.378 101.865C159.325 101.865 158.45 102.221 157.754 102.933C157.057 103.63 156.709 104.512 156.709 105.581C156.709 106.649 157.057 107.539 157.754 108.252ZM178.027 99.7743H180.535V111.387H178.027V109.715C177.083 111.031 175.728 111.689 173.963 111.689C172.368 111.689 171.005 111.101 169.875 109.924C168.745 108.747 168.179 107.299 168.179 105.581C168.179 103.862 168.745 102.414 169.875 101.238C171.005 100.061 172.368 99.4724 173.963 99.4724C175.712 99.4724 177.067 100.123 178.027 101.423V99.7743ZM171.733 108.252C172.43 108.948 173.305 109.297 174.357 109.297C175.41 109.297 176.285 108.948 176.982 108.252C177.679 107.539 178.027 106.649 178.027 105.581C178.027 104.512 177.679 103.63 176.982 102.933C176.285 102.221 175.41 101.865 174.357 101.865C173.305 101.865 172.43 102.221 171.733 102.933C171.036 103.63 170.688 104.512 170.688 105.581C170.688 106.649 171.036 107.539 171.733 108.252ZM189.568 99.4724C190.915 99.4724 191.991 99.8982 192.796 100.75C193.617 101.586 194.027 102.755 194.027 104.257V111.387H191.519V104.512C191.519 103.63 191.286 102.964 190.822 102.515C190.357 102.05 189.722 101.818 188.917 101.818C188.035 101.818 187.322 102.097 186.781 102.654C186.239 103.196 185.968 104.032 185.968 105.163V111.387H183.459V99.7743H185.968V101.261C186.742 100.068 187.942 99.4724 189.568 99.4724ZM204.328 99.7743H206.999L202.54 111.759C201.425 114.763 199.536 116.187 196.873 116.032V113.687C197.662 113.733 198.297 113.563 198.777 113.176C199.257 112.804 199.652 112.216 199.962 111.41L200.078 111.178L195.154 99.7743H197.895L201.355 108.205L204.328 99.7743ZM212.051 95.1291L210.426 101.168H208.335L209.264 95.1291H212.051ZM216 95.1291L214.374 101.168H212.284L213.213 95.1291H216Z" fill="#1E1E1E"/>
<rect x="229.355" y="89.8872" width="105.613" height="30" rx="5.80645" fill="#B1E5FC"/>
<path d="M246.665 106.45H247.645V109.638H246.142V107.887H240.59V109.638H239.087V106.45H239.937C240.468 105.762 240.734 104.713 240.734 103.302V98.742H246.665V106.45ZM245.162 106.45V100.153H242.236V103.328C242.236 104.686 242.018 105.727 241.583 106.45H245.162ZM249.718 105.222C249.822 105.718 250.057 106.102 250.423 106.372C250.798 106.633 251.259 106.764 251.808 106.764C252.548 106.764 253.11 106.494 253.493 105.954L254.656 106.633C254.02 107.582 253.066 108.057 251.795 108.057C250.741 108.057 249.883 107.735 249.221 107.09C248.568 106.437 248.241 105.614 248.241 104.621C248.241 103.654 248.564 102.84 249.208 102.178C249.844 101.516 250.671 101.185 251.69 101.185C252.64 101.185 253.424 101.52 254.042 102.191C254.66 102.862 254.97 103.676 254.97 104.634C254.97 104.704 254.965 104.791 254.956 104.895C254.948 104.991 254.935 105.1 254.917 105.222H249.718ZM253.545 104.072C253.45 103.541 253.232 103.14 252.892 102.87C252.553 102.6 252.148 102.465 251.677 102.465C251.155 102.465 250.719 102.609 250.371 102.897C250.022 103.184 249.8 103.576 249.705 104.072H253.545ZM257.282 100.44V99.2124H260.94V100.44H257.282ZM260.94 101.355H262.025V107.887H260.64V103.733L257.295 107.887H256.211V101.355H257.596V105.496L260.94 101.355ZM266.745 108.057C265.761 108.057 264.938 107.726 264.276 107.064C263.623 106.402 263.296 105.588 263.296 104.621C263.296 103.646 263.623 102.831 264.276 102.178C264.938 101.516 265.761 101.185 266.745 101.185C267.381 101.185 267.96 101.338 268.483 101.642C269.005 101.938 269.397 102.348 269.659 102.87L268.444 103.576C268.295 103.262 268.069 103.018 267.764 102.844C267.468 102.661 267.124 102.57 266.732 102.57C266.157 102.57 265.674 102.766 265.282 103.158C264.899 103.558 264.707 104.046 264.707 104.621C264.707 105.196 264.899 105.684 265.282 106.084C265.674 106.476 266.157 106.672 266.732 106.672C267.124 106.672 267.472 106.581 267.777 106.398C268.082 106.215 268.313 105.971 268.47 105.666L269.685 106.359C269.406 106.881 269.005 107.295 268.483 107.6C267.96 107.905 267.381 108.057 266.745 108.057ZM275.631 101.355V102.714H273.502V107.887H272.091V102.714H269.948V101.355H275.631ZM281.106 104.53C281.751 104.834 282.073 105.335 282.073 106.032C282.073 106.581 281.886 107.029 281.511 107.378C281.146 107.717 280.619 107.887 279.931 107.887H276.586V101.355H279.669C280.349 101.355 280.871 101.525 281.237 101.864C281.603 102.195 281.786 102.627 281.786 103.158C281.786 103.776 281.559 104.233 281.106 104.53ZM277.932 102.557V104.007H279.565C280.14 104.007 280.427 103.763 280.427 103.275C280.427 102.796 280.14 102.557 279.565 102.557H277.932ZM279.8 106.659C280.392 106.659 280.688 106.402 280.688 105.888C280.688 105.662 280.61 105.488 280.453 105.366C280.296 105.235 280.079 105.17 279.8 105.17H277.932V106.659H279.8ZM287.368 101.355H288.87L286.362 108.096C286.057 108.932 285.63 109.551 285.082 109.951C284.542 110.361 283.906 110.544 283.174 110.5V109.181C283.618 109.207 283.976 109.115 284.246 108.906C284.524 108.706 284.746 108.379 284.912 107.926L284.951 107.835L282.207 101.355H283.71L285.696 106.11L287.368 101.355ZM295.579 101.185C296.546 101.185 297.361 101.516 298.022 102.178C298.693 102.849 299.028 103.663 299.028 104.621C299.028 105.579 298.693 106.393 298.022 107.064C297.361 107.726 296.546 108.057 295.579 108.057C294.735 108.057 294.003 107.8 293.385 107.286C292.766 106.764 292.387 106.097 292.248 105.287H291.164V107.887H289.753V101.355H291.164V103.955H292.248C292.396 103.136 292.775 102.474 293.385 101.969C293.994 101.446 294.726 101.185 295.579 101.185ZM294.129 106.097C294.521 106.489 295.005 106.685 295.579 106.685C296.154 106.685 296.638 106.489 297.03 106.097C297.422 105.705 297.617 105.213 297.617 104.621C297.617 104.029 297.422 103.537 297.03 103.145C296.638 102.753 296.154 102.557 295.579 102.557C295.005 102.557 294.521 102.753 294.129 103.145C293.737 103.537 293.541 104.029 293.541 104.621C293.541 105.213 293.737 105.705 294.129 106.097ZM309.318 106.555H310.194V109.638H308.809V107.887H300.304V101.355H301.715V106.555H304.106V101.355H305.517V106.555H307.907V101.355H309.318V106.555ZM312.195 105.222C312.3 105.718 312.535 106.102 312.901 106.372C313.275 106.633 313.737 106.764 314.285 106.764C315.026 106.764 315.587 106.494 315.971 105.954L317.133 106.633C316.498 107.582 315.544 108.057 314.272 108.057C313.218 108.057 312.361 107.735 311.699 107.09C311.045 106.437 310.719 105.614 310.719 104.621C310.719 103.654 311.041 102.84 311.686 102.178C312.321 101.516 313.149 101.185 314.168 101.185C315.117 101.185 315.901 101.52 316.519 102.191C317.138 102.862 317.447 103.676 317.447 104.634C317.447 104.704 317.443 104.791 317.434 104.895C317.425 104.991 317.412 105.1 317.395 105.222H312.195ZM316.023 104.072C315.927 103.541 315.709 103.14 315.37 102.87C315.03 102.6 314.625 102.465 314.155 102.465C313.632 102.465 313.197 102.609 312.848 102.897C312.5 103.184 312.278 103.576 312.182 104.072H316.023ZM319.761 105.222C319.865 105.718 320.1 106.102 320.466 106.372C320.841 106.633 321.302 106.764 321.851 106.764C322.591 106.764 323.153 106.494 323.536 105.954L324.699 106.633C324.063 107.582 323.11 108.057 321.838 108.057C320.784 108.057 319.926 107.735 319.264 107.09C318.611 106.437 318.284 105.614 318.284 104.621C318.284 103.654 318.607 102.84 319.251 102.178C319.887 101.516 320.714 101.185 321.733 101.185C322.683 101.185 323.467 101.52 324.085 102.191C324.703 102.862 325.013 103.676 325.013 104.634C325.013 104.704 325.008 104.791 325 104.895C324.991 104.991 324.978 105.1 324.96 105.222H319.761ZM323.589 104.072C323.493 103.541 323.275 103.14 322.935 102.87C322.596 102.6 322.191 102.465 321.72 102.465C321.198 102.465 320.762 102.609 320.414 102.897C320.066 103.184 319.843 103.576 319.748 104.072H323.589Z" fill="#1E1E1E"/>
<rect x="38" y="31" width="35.6129" height="30" rx="5.80645" fill="#B1E5FC"/>
<path d="M53.2694 39.685C54.5933 39.685 55.7125 40.1466 56.627 41.0698C57.5502 41.9844 58.0119 43.1035 58.0119 44.4274C58.0119 45.7513 57.5502 46.8748 56.627 47.7981C55.7125 48.7126 54.5933 49.1698 53.2694 49.1698C52.0501 49.1698 51.0049 48.7779 50.134 47.994C49.2717 47.2102 48.7665 46.2173 48.6185 45.0153H47.1683V49H45.6659V39.8548H47.1683V43.5782H48.6577C48.8493 42.4547 49.3719 41.5271 50.2254 40.7955C51.079 40.0552 52.0936 39.685 53.2694 39.685ZM53.2694 41.1482C52.3462 41.1482 51.5754 41.4574 50.957 42.0758C50.3386 42.6942 50.0294 43.4781 50.0294 44.4274C50.0294 45.3594 50.3386 46.1432 50.957 46.779C51.5928 47.3974 52.3636 47.7066 53.2694 47.7066C54.184 47.7066 54.9504 47.3974 55.5688 46.779C56.1959 46.1519 56.5094 45.3681 56.5094 44.4274C56.5094 43.4868 56.1959 42.7073 55.5688 42.0889C54.9504 41.4618 54.184 41.1482 53.2694 41.1482ZM58.1133 47.6152C58.4007 47.6587 58.649 47.65 58.858 47.589C59.0757 47.5194 59.2543 47.3887 59.3936 47.1971C59.5417 47.0055 59.6506 46.7442 59.7202 46.4132C59.7899 46.0735 59.8248 45.6511 59.8248 45.146V39.8548H65.952V49H64.4496V41.2919H61.3272V45.1198C61.3272 45.9298 61.2401 46.6092 61.0659 47.1579C60.9004 47.6979 60.6609 48.1073 60.3473 48.386C60.0338 48.656 59.6941 48.8389 59.3283 48.9347C58.9712 49.0218 58.5662 49.0435 58.1133 49V47.6152Z" fill="#1E1E1E"/>
<circle cx="416.25" cy="47.1049" r="1.81452" transform="rotate(90 416.25 47.1049)" fill="#1E1E1E"/>
<circle cx="408.991" cy="47.105" r="1.81452" transform="rotate(90 408.991 47.105)" fill="#1E1E1E"/>
<circle cx="401.734" cy="47.105" r="1.81452" transform="rotate(90 401.734 47.105)" fill="#1E1E1E"/>
</svg>
