<svg width="445" height="451" viewBox="0 0 445 451" fill="none" xmlns="http://www.w3.org/2000/svg">
<rect width="444.733" height="450.179" rx="10.4643" fill="white"/>
<path d="M44.0808 41.0804H47.0893V59.3929H44.0808V51.4662H36.2326V59.3929H33.2241V41.0804H36.2326V48.5886H44.0808V41.0804ZM60.4031 46.3126H63.2285V59.3929H60.4031V57.5094C59.3392 58.9918 57.8132 59.733 55.825 59.733C54.0286 59.733 52.4938 59.0703 51.2207 57.7448C49.9475 56.4193 49.3109 54.7887 49.3109 52.8528C49.3109 50.9169 49.9475 49.2862 51.2207 47.9607C52.4938 46.6352 54.0286 45.9725 55.825 45.9725C57.7958 45.9725 59.3218 46.705 60.4031 48.17V46.3126ZM53.3135 55.8612C54.0984 56.6461 55.0838 57.0385 56.2697 57.0385C57.4557 57.0385 58.441 56.6461 59.2259 55.8612C60.0107 55.059 60.4031 54.0562 60.4031 52.8528C60.4031 51.6494 60.0107 50.6553 59.2259 49.8704C58.441 49.0682 57.4557 48.667 56.2697 48.667C55.0838 48.667 54.0984 49.0682 53.3135 49.8704C52.5287 50.6553 52.1363 51.6494 52.1363 52.8528C52.1363 54.0562 52.5287 55.059 53.3135 55.8612ZM77.0383 46.3126V59.3929H74.2129V49.0333H69.8441V53.8992C69.8441 55.9746 69.3906 57.4483 68.4837 58.3204C67.5768 59.1924 66.2862 59.5499 64.6119 59.3929V56.7507C65.4142 56.8902 66.0159 56.7333 66.417 56.2798C66.8181 55.8089 67.0187 54.9718 67.0187 53.7684V46.3126H77.0383ZM85.9814 59.733C84.0455 59.733 82.4148 59.0703 81.0893 57.7448C79.7464 56.4019 79.0749 54.7712 79.0749 52.8528C79.0749 50.9343 79.7464 49.3036 81.0893 47.9607C82.4148 46.6352 84.0455 45.9725 85.9814 45.9725C87.9173 45.9725 89.5479 46.6352 90.8734 47.9607C92.2163 49.3036 92.8878 50.9343 92.8878 52.8528C92.8878 54.7712 92.2163 56.4019 90.8734 57.7448C89.5479 59.0703 87.9173 59.733 85.9814 59.733ZM83.0775 55.8089C83.8623 56.5937 84.8303 56.9862 85.9814 56.9862C87.1324 56.9862 88.1004 56.5937 88.8852 55.8089C89.67 55.0241 90.0624 54.0387 90.0624 52.8528C90.0624 51.6668 89.67 50.6814 88.8852 49.8966C88.1004 49.1118 87.1324 48.7194 85.9814 48.7194C84.8303 48.7194 83.8623 49.1118 83.0775 49.8966C82.2927 50.6814 81.9003 51.6668 81.9003 52.8528C81.9003 54.0387 82.2927 55.0241 83.0775 55.8089ZM103.683 46.3126V49.0333H97.7447V59.3929H94.9193V46.3126H103.683ZM110.738 59.733C108.802 59.733 107.171 59.0703 105.846 57.7448C104.503 56.4019 103.832 54.7712 103.832 52.8528C103.832 50.9343 104.503 49.3036 105.846 47.9607C107.171 46.6352 108.802 45.9725 110.738 45.9725C112.674 45.9725 114.305 46.6352 115.63 47.9607C116.973 49.3036 117.644 50.9343 117.644 52.8528C117.644 54.7712 116.973 56.4019 115.63 57.7448C114.305 59.0703 112.674 59.733 110.738 59.733ZM107.834 55.8089C108.619 56.5937 109.587 56.9862 110.738 56.9862C111.889 56.9862 112.857 56.5937 113.642 55.8089C114.427 55.0241 114.819 54.0387 114.819 52.8528C114.819 51.6668 114.427 50.6814 113.642 49.8966C112.857 49.1118 111.889 48.7194 110.738 48.7194C109.587 48.7194 108.619 49.1118 107.834 49.8966C107.049 50.6814 106.657 51.6668 106.657 52.8528C106.657 54.0387 107.049 55.0241 107.834 55.8089ZM128.728 52.6696C130.018 53.2801 130.664 54.2829 130.664 55.6781C130.664 56.7769 130.289 57.6751 129.539 58.3727C128.806 59.0529 127.751 59.3929 126.373 59.3929H119.676V46.3126H125.85C127.21 46.3126 128.257 46.6527 128.989 47.3328C129.722 47.9956 130.088 48.8589 130.088 49.9228C130.088 51.161 129.635 52.0767 128.728 52.6696ZM122.371 48.7194V51.6232H125.641C126.792 51.6232 127.367 51.1349 127.367 50.1582C127.367 49.199 126.792 48.7194 125.641 48.7194H122.371ZM126.112 56.9338C127.297 56.9338 127.89 56.4193 127.89 55.3904C127.89 54.9369 127.733 54.5881 127.42 54.3439C127.106 54.0823 126.67 53.9515 126.112 53.9515H122.371V56.9338H126.112ZM138.141 50.7599C139.553 50.7599 140.696 51.161 141.568 51.9633C142.457 52.7481 142.902 53.7858 142.902 55.0764C142.902 56.3496 142.457 57.3873 141.568 58.1896C140.696 58.9918 139.553 59.3929 138.141 59.3929H132.438V46.3126H135.263V50.7599H138.141ZM144.471 46.3126H147.297V59.3929H144.471V46.3126ZM138.167 56.8554C138.725 56.8554 139.187 56.6897 139.553 56.3583C139.937 56.0269 140.129 55.5996 140.129 55.0764C140.129 54.5358 139.937 54.1085 139.553 53.7945C139.187 53.4632 138.725 53.2975 138.167 53.2975H135.263V56.8554H138.167ZM152.277 54.0562C152.486 55.0503 152.957 55.8176 153.689 56.3583C154.439 56.8815 155.364 57.1431 156.462 57.1431C157.945 57.1431 159.07 56.6025 159.837 55.5212L162.166 56.8815C160.892 58.7825 158.983 59.733 156.436 59.733C154.326 59.733 152.608 59.0877 151.283 57.7971C149.975 56.4891 149.321 54.841 149.321 52.8528C149.321 50.9169 149.966 49.2862 151.257 47.9607C152.53 46.6352 154.187 45.9725 156.227 45.9725C158.128 45.9725 159.698 46.6439 160.936 47.9869C162.174 49.3298 162.793 50.9605 162.793 52.8789C162.793 53.0184 162.785 53.1928 162.767 53.4021C162.75 53.594 162.724 53.812 162.689 54.0562H152.277ZM159.942 51.754C159.75 50.6901 159.314 49.8879 158.634 49.3472C157.954 48.8066 157.143 48.5362 156.201 48.5362C155.154 48.5362 154.282 48.824 153.585 49.3995C152.887 49.9751 152.442 50.7599 152.251 51.754H159.942ZM176.947 59.733C175.011 59.733 173.381 59.0703 172.055 57.7448C170.712 56.4019 170.041 54.7712 170.041 52.8528C170.041 50.9343 170.712 49.3036 172.055 47.9607C173.381 46.6352 175.011 45.9725 176.947 45.9725C178.883 45.9725 180.514 46.6352 181.839 47.9607C183.182 49.3036 183.854 50.9343 183.854 52.8528C183.854 54.7712 183.182 56.4019 181.839 57.7448C180.514 59.0703 178.883 59.733 176.947 59.733ZM174.043 55.8089C174.828 56.5937 175.796 56.9862 176.947 56.9862C178.098 56.9862 179.066 56.5937 179.851 55.8089C180.636 55.0241 181.028 54.0387 181.028 52.8528C181.028 51.6668 180.636 50.6814 179.851 49.8966C179.066 49.1118 178.098 48.7194 176.947 48.7194C175.796 48.7194 174.828 49.1118 174.043 49.8966C173.259 50.6814 172.866 51.6668 172.866 52.8528C172.866 54.0387 173.259 55.0241 174.043 55.8089ZM195.368 46.3126V49.0333H191.103V59.3929H188.278V49.0333H183.988V46.3126H195.368ZM204.913 46.3126H207.739V59.3929H204.913V54.9718C203.884 55.3555 202.786 55.5473 201.617 55.5473C199.978 55.5473 198.687 55.1549 197.745 54.3701C196.821 53.5678 196.359 52.3819 196.359 50.8122V46.3126H199.184V50.5506C199.184 52.1203 200.117 52.9051 201.983 52.9051C203.047 52.9051 204.024 52.7045 204.913 52.3034V46.3126ZM219.984 46.3126H222.156V59.3929H219.383V51.0738L212.685 59.3929H210.514V46.3126H213.287V54.6055L219.984 46.3126ZM231.085 59.733C229.114 59.733 227.466 59.0703 226.14 57.7448C224.832 56.4193 224.178 54.7887 224.178 52.8528C224.178 50.8994 224.832 49.2687 226.14 47.9607C227.466 46.6352 229.114 45.9725 231.085 45.9725C232.358 45.9725 233.518 46.2777 234.564 46.8881C235.61 47.4811 236.395 48.3008 236.918 49.3472L234.485 50.7599C234.189 50.132 233.736 49.6437 233.125 49.2949C232.532 48.9286 231.843 48.7455 231.058 48.7455C229.907 48.7455 228.939 49.1379 228.155 49.9228C227.387 50.725 227.004 51.7017 227.004 52.8528C227.004 54.0038 227.387 54.9805 228.155 55.7828C228.939 56.5676 229.907 56.96 231.058 56.96C231.843 56.96 232.541 56.7769 233.151 56.4106C233.762 56.0444 234.224 55.556 234.538 54.9456L236.971 56.3321C236.413 57.3786 235.61 58.207 234.564 58.8174C233.518 59.4278 232.358 59.733 231.085 59.733ZM249.351 46.3126V59.3929H246.525V49.0333H242.157V53.8992C242.157 55.9746 241.703 57.4483 240.796 58.3204C239.889 59.1924 238.599 59.5499 236.924 59.3929V56.7507C237.727 56.8902 238.328 56.7333 238.729 56.2798C239.131 55.8089 239.331 54.9718 239.331 53.7684V46.3126H249.351ZM254.344 54.0562C254.553 55.0503 255.024 55.8176 255.756 56.3583C256.506 56.8815 257.43 57.1431 258.529 57.1431C260.012 57.1431 261.137 56.6025 261.904 55.5212L264.232 56.8815C262.959 58.7825 261.049 59.733 258.503 59.733C256.393 59.733 254.675 59.0877 253.349 57.7971C252.041 56.4891 251.387 54.841 251.387 52.8528C251.387 50.9169 252.033 49.2862 253.323 47.9607C254.596 46.6352 256.253 45.9725 258.294 45.9725C260.195 45.9725 261.764 46.6439 263.003 47.9869C264.241 49.3298 264.86 50.9605 264.86 52.8789C264.86 53.0184 264.851 53.1928 264.834 53.4021C264.817 53.594 264.79 53.812 264.756 54.0562H254.344ZM262.009 51.754C261.817 50.6901 261.381 49.8879 260.701 49.3472C260.02 48.8066 259.209 48.5362 258.268 48.5362C257.221 48.5362 256.349 48.824 255.652 49.3995C254.954 49.9751 254.509 50.7599 254.317 51.754H262.009ZM275.639 46.3126H278.465V59.3929H275.639V54.187H269.648V59.3929H266.823V46.3126H269.648V51.5186H275.639V46.3126ZM290.69 46.3126H292.861V59.3929H290.088V51.0738L283.391 59.3929H281.22V46.3126H283.993V54.6055L290.69 46.3126ZM305.74 46.3126V59.3929H302.967V54.9979H301.398L298.075 59.3929H294.753L298.285 54.7363C297.378 54.4398 296.645 53.9166 296.087 53.1667C295.546 52.4167 295.276 51.5796 295.276 50.6553C295.276 49.4519 295.703 48.4316 296.558 47.5944C297.413 46.7399 298.529 46.3126 299.907 46.3126H305.74ZM302.967 52.565V48.8763H300.064C299.488 48.8763 299.008 49.042 298.625 49.3734C298.241 49.7047 298.049 50.1582 298.049 50.7337C298.049 51.2918 298.241 51.7366 298.625 52.0679C299.008 52.3993 299.488 52.565 300.064 52.565H302.967Z" fill="#1E1E1E"/>
<path d="M180.205 125.675C177.618 118.93 180.978 111.296 187.948 109.395C216.4 101.634 246.787 103.687 274.109 115.455C305.453 128.955 330.28 154.17 343.291 185.721C356.302 217.271 356.467 252.657 343.751 284.327C331.035 315.998 306.444 341.444 275.228 355.236C244.011 369.028 208.64 370.073 176.663 358.149C144.686 346.224 118.636 322.275 104.072 291.411C89.5075 260.546 87.5827 225.212 98.708 192.949C108.405 164.826 127.349 140.978 152.245 125.169C158.344 121.296 166.25 123.952 169.495 130.407C172.739 136.861 170.079 144.659 164.079 148.683C145.241 161.316 130.911 179.811 123.44 201.477C114.539 227.288 116.079 255.555 127.731 280.246C139.382 304.938 160.222 324.097 185.804 333.637C211.385 343.177 239.682 342.34 264.655 331.307C289.629 320.273 309.301 299.916 319.474 274.58C329.647 249.244 329.515 220.935 319.106 195.694C308.697 170.454 288.835 150.282 263.76 139.482C242.712 130.416 219.389 128.557 197.364 133.977C190.349 135.703 182.793 132.42 180.205 125.675Z" fill="#E5EAEF"/>
<mask id="path-4-inside-1_10_7520" fill="white">
<path d="M187.331 123.2C185.181 116.304 177.813 112.395 171.166 115.223C157.814 120.902 145.471 128.776 134.662 138.545C120.61 151.245 109.484 166.845 102.052 184.266C94.6204 201.688 91.0609 220.515 91.6195 239.447C92.1781 258.379 96.8416 276.964 105.287 293.917C113.733 310.87 125.76 325.787 140.536 337.636C155.312 349.485 172.486 357.983 190.869 362.544C209.252 367.105 228.406 367.619 247.007 364.051C261.316 361.307 275.036 356.197 287.611 348.959C293.872 345.356 295.19 337.121 290.98 331.25C286.769 325.38 278.628 324.116 272.279 327.562C262.849 332.679 252.666 336.328 242.079 338.359C227.198 341.213 211.875 340.802 197.168 337.153C182.462 333.505 168.723 326.706 156.902 317.227C145.081 307.747 135.46 295.814 128.703 282.252C121.947 268.689 118.216 253.821 117.769 238.676C117.322 223.53 120.17 208.468 126.115 194.531C132.06 180.594 140.961 168.114 152.203 157.954C160.201 150.726 169.247 144.795 179.011 140.35C185.586 137.357 189.481 130.097 187.331 123.2Z"/>
</mask>
<path d="M187.331 123.2C185.181 116.304 177.813 112.395 171.166 115.223C157.814 120.902 145.471 128.776 134.662 138.545C120.61 151.245 109.484 166.845 102.052 184.266C94.6204 201.688 91.0609 220.515 91.6195 239.447C92.1781 258.379 96.8416 276.964 105.287 293.917C113.733 310.87 125.76 325.787 140.536 337.636C155.312 349.485 172.486 357.983 190.869 362.544C209.252 367.105 228.406 367.619 247.007 364.051C261.316 361.307 275.036 356.197 287.611 348.959C293.872 345.356 295.19 337.121 290.98 331.25C286.769 325.38 278.628 324.116 272.279 327.562C262.849 332.679 252.666 336.328 242.079 338.359C227.198 341.213 211.875 340.802 197.168 337.153C182.462 333.505 168.723 326.706 156.902 317.227C145.081 307.747 135.46 295.814 128.703 282.252C121.947 268.689 118.216 253.821 117.769 238.676C117.322 223.53 120.17 208.468 126.115 194.531C132.06 180.594 140.961 168.114 152.203 157.954C160.201 150.726 169.247 144.795 179.011 140.35C185.586 137.357 189.481 130.097 187.331 123.2Z" fill="#B5E4CA" stroke="white" stroke-width="4.5896" mask="url(#path-4-inside-1_10_7520)"/>
<mask id="path-5-inside-2_10_7520" fill="white">
<path d="M187.331 123.2C185.181 116.304 177.813 112.395 171.165 115.223C151.507 123.585 134.13 136.665 120.621 153.386C104.363 173.509 94.4365 198.002 92.0981 223.766C89.7596 249.531 95.1138 275.41 107.484 298.132C117.762 317.011 132.499 333.006 150.331 344.771C156.361 348.749 164.313 346.231 167.669 339.834C171.026 333.437 168.502 325.595 162.573 321.467C149.278 312.21 138.263 299.956 130.46 285.623C120.564 267.446 116.281 246.743 118.152 226.131C120.022 205.519 127.963 185.925 140.97 169.826C151.225 157.133 164.267 147.062 179.011 140.35C185.586 137.357 189.481 130.097 187.331 123.2Z"/>
</mask>
<path d="M187.331 123.2C185.181 116.304 177.813 112.395 171.165 115.223C151.507 123.585 134.13 136.665 120.621 153.386C104.363 173.509 94.4365 198.002 92.0981 223.766C89.7596 249.531 95.1138 275.41 107.484 298.132C117.762 317.011 132.499 333.006 150.331 344.771C156.361 348.749 164.313 346.231 167.669 339.834C171.026 333.437 168.502 325.595 162.573 321.467C149.278 312.21 138.263 299.956 130.46 285.623C120.564 267.446 116.281 246.743 118.152 226.131C120.022 205.519 127.963 185.925 140.97 169.826C151.225 157.133 164.267 147.062 179.011 140.35C185.586 137.357 189.481 130.097 187.331 123.2Z" fill="#FFD88D" stroke="white" stroke-width="4.5896" mask="url(#path-5-inside-2_10_7520)"/>
<mask id="path-6-inside-3_10_7520" fill="white">
<path d="M222.366 117.866C222.366 110.642 216.496 104.718 209.308 105.439C193.797 106.995 178.653 111.316 164.604 118.23C146.634 127.075 130.934 139.929 118.717 155.8C106.499 171.672 98.0891 190.137 94.1358 209.772C91.0452 225.123 90.7428 240.868 93.2062 256.26C94.3478 263.393 101.577 267.553 108.56 265.705C115.544 263.857 119.62 256.697 118.657 249.538C117.112 238.051 117.482 226.357 119.782 214.936C122.945 199.227 129.672 184.455 139.447 171.758C149.221 159.061 161.78 148.778 176.157 141.702C186.61 136.557 197.82 133.208 209.32 131.763C216.488 130.862 222.366 125.09 222.366 117.866Z"/>
</mask>
<path d="M222.366 117.866C222.366 110.642 216.496 104.718 209.308 105.439C193.797 106.995 178.653 111.316 164.604 118.23C146.634 127.075 130.934 139.929 118.717 155.8C106.499 171.672 98.0891 190.137 94.1358 209.772C91.0452 225.123 90.7428 240.868 93.2062 256.26C94.3478 263.393 101.577 267.553 108.56 265.705C115.544 263.857 119.62 256.697 118.657 249.538C117.112 238.051 117.482 226.357 119.782 214.936C122.945 199.227 129.672 184.455 139.447 171.758C149.221 159.061 161.78 148.778 176.157 141.702C186.61 136.557 197.82 133.208 209.32 131.763C216.488 130.862 222.366 125.09 222.366 117.866Z" fill="#B1E5FC" stroke="white" stroke-width="4.5896" mask="url(#path-6-inside-3_10_7520)"/>
<g filter="url(#filter0_ddi_10_7520)">
<rect x="154.213" y="208.128" width="136.717" height="55.5376" rx="9.17921" fill="#1E1E1E" shape-rendering="crispEdges"/>
<rect x="154.786" y="208.702" width="135.569" height="54.3902" rx="8.60551" stroke="white" stroke-opacity="0.12" stroke-width="1.1474" shape-rendering="crispEdges"/>
<path d="M172.466 227.027C171.502 227.99 170.322 228.472 168.927 228.472C167.532 228.472 166.352 227.99 165.388 227.027C164.425 226.054 163.943 224.874 163.943 223.488C163.943 222.102 164.425 220.927 165.388 219.963C166.352 218.99 167.532 218.504 168.927 218.504C170.322 218.504 171.502 218.99 172.466 219.963C173.429 220.927 173.911 222.102 173.911 223.488C173.911 224.874 173.429 226.054 172.466 227.027ZM166.063 226.366C166.834 227.146 167.789 227.536 168.927 227.536C170.065 227.536 171.02 227.146 171.791 226.366C172.562 225.585 172.947 224.626 172.947 223.488C172.947 222.368 172.562 221.414 171.791 220.624C171.02 219.835 170.065 219.44 168.927 219.44C167.789 219.44 166.834 219.835 166.063 220.624C165.292 221.414 164.906 222.368 164.906 223.488C164.906 224.626 165.292 225.585 166.063 226.366ZM180.241 221.423V222.304H177.804V228.307H176.895V222.304H174.458V221.423H180.241ZM185.672 221.423H186.581V228.307H185.672V225.691C185.13 225.966 184.474 226.104 183.703 226.104C182.794 226.104 182.106 225.898 181.638 225.485C181.169 225.071 180.935 224.452 180.935 223.626V221.423H181.844V223.626C181.844 224.204 181.996 224.622 182.298 224.879C182.601 225.127 183.06 225.25 183.675 225.25C184.373 225.25 185.038 225.117 185.672 224.851V221.423ZM193.386 221.423H194.157V228.307H193.248V223.006L189.145 228.307H188.374V221.423H189.283V226.724L193.386 221.423ZM199.149 228.472C198.112 228.472 197.249 228.128 196.561 227.44C195.872 226.742 195.528 225.884 195.528 224.865C195.528 223.846 195.872 222.992 196.561 222.304C197.249 221.606 198.112 221.257 199.149 221.257C199.838 221.257 200.448 221.423 200.981 221.753C201.522 222.074 201.917 222.51 202.165 223.061L201.421 223.488C201.238 223.075 200.944 222.749 200.54 222.51C200.136 222.263 199.673 222.139 199.149 222.139C198.387 222.139 197.745 222.405 197.222 222.937C196.698 223.461 196.437 224.103 196.437 224.865C196.437 225.627 196.698 226.274 197.222 226.806C197.745 227.33 198.387 227.591 199.149 227.591C199.673 227.591 200.131 227.472 200.526 227.233C200.93 226.985 201.247 226.655 201.476 226.242L202.234 226.682C201.949 227.233 201.531 227.669 200.981 227.99C200.43 228.312 199.819 228.472 199.149 228.472ZM208.911 221.423V228.307H208.003V222.304H204.891V225.374C204.891 226.531 204.67 227.32 204.23 227.743C203.798 228.174 203.202 228.362 202.44 228.307V227.453C202.963 227.509 203.349 227.385 203.597 227.082C203.854 226.779 203.982 226.21 203.982 225.374V221.423H208.911ZM213.879 221.257C214.907 221.257 215.729 221.62 216.344 222.345C216.977 223.061 217.294 223.91 217.294 224.892C217.294 224.938 217.289 224.998 217.28 225.071C217.28 225.145 217.275 225.228 217.266 225.319H211.222C211.314 226.017 211.607 226.572 212.103 226.985C212.599 227.389 213.218 227.591 213.962 227.591C214.485 227.591 214.935 227.486 215.311 227.274C215.697 227.054 215.986 226.77 216.179 226.421L216.977 226.889C216.674 227.385 216.261 227.775 215.738 228.059C215.215 228.335 214.618 228.472 213.948 228.472C212.865 228.472 211.984 228.133 211.304 227.453C210.625 226.774 210.285 225.911 210.285 224.865C210.285 223.828 210.621 222.969 211.291 222.29C211.961 221.602 212.824 221.257 213.879 221.257ZM213.879 222.139C213.521 222.139 213.191 222.194 212.888 222.304C212.585 222.414 212.314 222.57 212.075 222.772C211.846 222.974 211.658 223.217 211.511 223.502C211.364 223.786 211.268 224.098 211.222 224.438H216.358C216.257 223.704 215.977 223.139 215.518 222.745C215.04 222.341 214.494 222.139 213.879 222.139ZM223.476 221.423H224.385V228.307H223.476V225.306H219.51V228.307H218.602V221.423H219.51V224.424H223.476V221.423ZM231.18 221.423H231.951V228.307H231.043V223.006L226.94 228.307H226.169V221.423H227.077V226.724L231.18 221.423ZM238.692 221.423V228.307H237.784V225.664H236.599L234.479 228.307H233.322L235.498 225.636C234.947 225.553 234.493 225.324 234.135 224.948C233.777 224.571 233.598 224.108 233.598 223.557C233.598 222.942 233.818 222.432 234.259 222.029C234.718 221.625 235.264 221.423 235.897 221.423H238.692ZM237.784 224.81V222.304H235.897C235.512 222.304 235.181 222.419 234.906 222.648C234.64 222.868 234.507 223.171 234.507 223.557C234.507 223.942 234.64 224.25 234.906 224.479C235.181 224.7 235.512 224.81 235.897 224.81H237.784Z" fill="white"/>
<rect x="163.392" y="240.486" width="13.7688" height="13.7688" rx="4.5896" fill="#B1E5FC"/>
<path d="M184.463 241.848H185.84V251.486H184.256V243.541L182.315 244.092L181.929 242.743L184.463 241.848ZM187.162 251.486V250.247L190.522 246.818C191.339 246.002 191.747 245.295 191.747 244.698C191.747 244.23 191.61 243.867 191.334 243.61C191.059 243.344 190.701 243.211 190.26 243.211C189.453 243.211 188.856 243.61 188.47 244.409L187.135 243.624C187.438 242.982 187.865 242.495 188.415 242.165C188.966 241.834 189.576 241.669 190.247 241.669C191.1 241.669 191.825 241.935 192.422 242.468C193.028 243.009 193.331 243.734 193.331 244.643C193.331 245.616 192.785 246.662 191.692 247.782L189.517 249.958H193.51V251.486H187.162ZM204.309 250.302C203.648 251.211 202.721 251.665 201.527 251.665C200.334 251.665 199.402 251.211 198.732 250.302C198.071 249.393 197.741 248.182 197.741 246.667C197.741 245.152 198.071 243.941 198.732 243.032C199.402 242.123 200.334 241.669 201.527 241.669C202.721 241.669 203.648 242.123 204.309 243.032C204.979 243.932 205.314 245.143 205.314 246.667C205.314 248.191 204.979 249.402 204.309 250.302ZM201.527 250.123C202.243 250.123 202.789 249.825 203.166 249.228C203.542 248.631 203.73 247.778 203.73 246.667C203.73 245.556 203.542 244.703 203.166 244.106C202.789 243.509 202.243 243.211 201.527 243.211C200.811 243.211 200.265 243.509 199.889 244.106C199.512 244.703 199.324 245.556 199.324 246.667C199.324 247.778 199.512 248.631 199.889 249.228C200.265 249.825 200.811 250.123 201.527 250.123ZM212.844 250.302C212.183 251.211 211.256 251.665 210.062 251.665C208.869 251.665 207.937 251.211 207.267 250.302C206.606 249.393 206.276 248.182 206.276 246.667C206.276 245.152 206.606 243.941 207.267 243.032C207.937 242.123 208.869 241.669 210.062 241.669C211.256 241.669 212.183 242.123 212.844 243.032C213.514 243.932 213.849 245.143 213.849 246.667C213.849 248.191 213.514 249.402 212.844 250.302ZM210.062 250.123C210.778 250.123 211.325 249.825 211.701 249.228C212.077 248.631 212.265 247.778 212.265 246.667C212.265 245.556 212.077 244.703 211.701 244.106C211.325 243.509 210.778 243.211 210.062 243.211C209.346 243.211 208.8 243.509 208.424 244.106C208.048 244.703 207.859 245.556 207.859 246.667C207.859 247.778 208.048 248.631 208.424 249.228C208.8 249.825 209.346 250.123 210.062 250.123ZM221.379 250.302C220.718 251.211 219.791 251.665 218.597 251.665C217.404 251.665 216.472 251.211 215.802 250.302C215.141 249.393 214.811 248.182 214.811 246.667C214.811 245.152 215.141 243.941 215.802 243.032C216.472 242.123 217.404 241.669 218.597 241.669C219.791 241.669 220.718 242.123 221.379 243.032C222.049 243.932 222.384 245.143 222.384 246.667C222.384 248.191 222.049 249.402 221.379 250.302ZM218.597 250.123C219.313 250.123 219.86 249.825 220.236 249.228C220.612 248.631 220.8 247.778 220.8 246.667C220.8 245.556 220.612 244.703 220.236 244.106C219.86 243.509 219.313 243.211 218.597 243.211C217.881 243.211 217.335 243.509 216.959 244.106C216.583 244.703 216.394 245.556 216.394 246.667C216.394 247.778 216.583 248.631 216.959 249.228C217.335 249.825 217.881 250.123 218.597 250.123ZM233.218 250.302C232.557 251.211 231.63 251.665 230.437 251.665C229.244 251.665 228.312 251.211 227.642 250.302C226.981 249.393 226.651 248.182 226.651 246.667C226.651 245.152 226.981 243.941 227.642 243.032C228.312 242.123 229.244 241.669 230.437 241.669C231.63 241.669 232.557 242.123 233.218 243.032C233.888 243.932 234.223 245.143 234.223 246.667C234.223 248.191 233.888 249.402 233.218 250.302ZM230.437 250.123C231.153 250.123 231.699 249.825 232.075 249.228C232.452 248.631 232.64 247.778 232.64 246.667C232.64 245.556 232.452 244.703 232.075 244.106C231.699 243.509 231.153 243.211 230.437 243.211C229.721 243.211 229.175 243.509 228.798 244.106C228.422 244.703 228.234 245.556 228.234 246.667C228.234 247.778 228.422 248.631 228.798 249.228C229.175 249.825 229.721 250.123 230.437 250.123ZM241.753 250.302C241.092 251.211 240.165 251.665 238.972 251.665C237.779 251.665 236.847 251.211 236.177 250.302C235.516 249.393 235.186 248.182 235.186 246.667C235.186 245.152 235.516 243.941 236.177 243.032C236.847 242.123 237.779 241.669 238.972 241.669C240.165 241.669 241.092 242.123 241.753 243.032C242.423 243.932 242.758 245.143 242.758 246.667C242.758 248.191 242.423 249.402 241.753 250.302ZM238.972 250.123C239.688 250.123 240.234 249.825 240.611 249.228C240.987 248.631 241.175 247.778 241.175 246.667C241.175 245.556 240.987 244.703 240.611 244.106C240.234 243.509 239.688 243.211 238.972 243.211C238.256 243.211 237.71 243.509 237.334 244.106C236.957 244.703 236.769 245.556 236.769 246.667C236.769 247.778 236.957 248.631 237.334 249.228C237.71 249.825 238.256 250.123 238.972 250.123ZM250.288 250.302C249.627 251.211 248.7 251.665 247.507 251.665C246.314 251.665 245.382 251.211 244.712 250.302C244.051 249.393 243.721 248.182 243.721 246.667C243.721 245.152 244.051 243.941 244.712 243.032C245.382 242.123 246.314 241.669 247.507 241.669C248.7 241.669 249.627 242.123 250.288 243.032C250.958 243.932 251.294 245.143 251.294 246.667C251.294 248.191 250.958 249.402 250.288 250.302ZM247.507 250.123C248.223 250.123 248.769 249.825 249.146 249.228C249.522 248.631 249.71 247.778 249.71 246.667C249.71 245.556 249.522 244.703 249.146 244.106C248.769 243.509 248.223 243.211 247.507 243.211C246.791 243.211 246.245 243.509 245.869 244.106C245.492 244.703 245.304 245.556 245.304 246.667C245.304 247.778 245.492 248.631 245.869 249.228C246.245 249.825 246.791 250.123 247.507 250.123ZM262.128 250.302C261.467 251.211 260.54 251.665 259.347 251.665C258.153 251.665 257.222 251.211 256.552 250.302C255.891 249.393 255.56 248.182 255.56 246.667C255.56 245.152 255.891 243.941 256.552 243.032C257.222 242.123 258.153 241.669 259.347 241.669C260.54 241.669 261.467 242.123 262.128 243.032C262.798 243.932 263.133 245.143 263.133 246.667C263.133 248.191 262.798 249.402 262.128 250.302ZM259.347 250.123C260.063 250.123 260.609 249.825 260.985 249.228C261.361 248.631 261.55 247.778 261.55 246.667C261.55 245.556 261.361 244.703 260.985 244.106C260.609 243.509 260.063 243.211 259.347 243.211C258.631 243.211 258.085 243.509 257.708 244.106C257.332 244.703 257.144 245.556 257.144 246.667C257.144 247.778 257.332 248.631 257.708 249.228C258.085 249.825 258.631 250.123 259.347 250.123ZM270.663 250.302C270.002 251.211 269.075 251.665 267.882 251.665C266.688 251.665 265.757 251.211 265.087 250.302C264.426 249.393 264.095 248.182 264.095 246.667C264.095 245.152 264.426 243.941 265.087 243.032C265.757 242.123 266.688 241.669 267.882 241.669C269.075 241.669 270.002 242.123 270.663 243.032C271.333 243.932 271.668 245.143 271.668 246.667C271.668 248.191 271.333 249.402 270.663 250.302ZM267.882 250.123C268.598 250.123 269.144 249.825 269.52 249.228C269.897 248.631 270.085 247.778 270.085 246.667C270.085 245.556 269.897 244.703 269.52 244.106C269.144 243.509 268.598 243.211 267.882 243.211C267.166 243.211 266.62 243.509 266.243 244.106C265.867 244.703 265.679 245.556 265.679 246.667C265.679 247.778 265.867 248.631 266.243 249.228C266.62 249.825 267.166 250.123 267.882 250.123ZM279.198 250.302C278.537 251.211 277.61 251.665 276.417 251.665C275.223 251.665 274.292 251.211 273.622 250.302C272.961 249.393 272.63 248.182 272.63 246.667C272.63 245.152 272.961 243.941 273.622 243.032C274.292 242.123 275.223 241.669 276.417 241.669C277.61 241.669 278.537 242.123 279.198 243.032C279.868 243.932 280.203 245.143 280.203 246.667C280.203 248.191 279.868 249.402 279.198 250.302ZM276.417 250.123C277.133 250.123 277.679 249.825 278.055 249.228C278.432 248.631 278.62 247.778 278.62 246.667C278.62 245.556 278.432 244.703 278.055 244.106C277.679 243.509 277.133 243.211 276.417 243.211C275.701 243.211 275.155 243.509 274.778 244.106C274.402 244.703 274.214 245.556 274.214 246.667C274.214 247.778 274.402 248.631 274.778 249.228C275.155 249.825 275.701 250.123 276.417 250.123Z" fill="#FCFCFC"/>
</g>
<rect x="33.5806" y="397.822" width="20.9286" height="20.9286" rx="5.23215" fill="#B1E5FC"/>
<path d="M76.9682 411.101C75.6863 412.383 74.1175 413.024 72.2618 413.024C70.4062 413.024 68.8313 412.383 67.5372 411.101C66.2553 409.807 65.6144 408.232 65.6144 406.377C65.6144 404.521 66.2553 402.952 67.5372 401.67C68.8313 400.376 70.4062 399.729 72.2618 399.729C74.1175 399.729 75.6863 400.376 76.9682 401.67C78.2622 402.952 78.9093 404.521 78.9093 406.377C78.9093 408.232 78.2622 409.807 76.9682 411.101ZM69.0205 409.673C69.9117 410.54 70.9922 410.973 72.2618 410.973C73.5437 410.973 74.618 410.54 75.4848 409.673C76.3638 408.794 76.8033 407.695 76.8033 406.377C76.8033 405.058 76.3638 403.966 75.4848 403.099C74.618 402.22 73.5437 401.78 72.2618 401.78C70.98 401.78 69.8995 402.22 69.0205 403.099C68.1537 403.966 67.7203 405.058 67.7203 406.377C67.7203 407.683 68.1537 408.782 69.0205 409.673ZM87.5143 403.63V405.534H84.5294V412.786H82.5516V405.534H79.5484V403.63H87.5143ZM94.3795 403.63H96.3572V412.786H94.3795V409.691C93.6592 409.96 92.8901 410.094 92.0721 410.094C90.9245 410.094 90.0211 409.82 89.3619 409.27C88.7148 408.709 88.3913 407.878 88.3913 406.78V403.63H90.3691V406.597C90.3691 407.695 91.0222 408.245 92.3285 408.245C93.0732 408.245 93.7569 408.104 94.3795 407.823V403.63ZM105.112 403.63H106.632V412.786H104.691V406.963L100.003 412.786H98.4831V403.63H100.424V409.435L105.112 403.63ZM113.066 413.024C111.686 413.024 110.532 412.56 109.604 411.632C108.689 410.705 108.231 409.563 108.231 408.208C108.231 406.841 108.689 405.699 109.604 404.784C110.532 403.856 111.686 403.392 113.066 403.392C113.957 403.392 114.769 403.605 115.501 404.033C116.234 404.448 116.783 405.022 117.149 405.754L115.446 406.743C115.239 406.303 114.921 405.962 114.494 405.717C114.079 405.461 113.597 405.333 113.047 405.333C112.242 405.333 111.564 405.608 111.015 406.157C110.477 406.719 110.209 407.402 110.209 408.208C110.209 409.014 110.477 409.697 111.015 410.259C111.564 410.808 112.242 411.083 113.047 411.083C113.597 411.083 114.085 410.955 114.512 410.699C114.94 410.442 115.263 410.1 115.483 409.673L117.186 410.644C116.795 411.376 116.234 411.956 115.501 412.383C114.769 412.811 113.957 413.024 113.066 413.024ZM126.035 403.63V412.786H124.057V405.534H120.999V408.941C120.999 410.393 120.682 411.425 120.047 412.035C119.412 412.646 118.509 412.896 117.337 412.786V410.937C117.898 411.034 118.319 410.924 118.6 410.607C118.881 410.277 119.021 409.691 119.021 408.849V403.63H126.035ZM129.713 409.05C129.86 409.746 130.189 410.283 130.702 410.662C131.227 411.028 131.874 411.211 132.643 411.211C133.681 411.211 134.468 410.833 135.005 410.076L136.635 411.028C135.744 412.359 134.407 413.024 132.625 413.024C131.148 413.024 129.945 412.572 129.017 411.669C128.102 410.753 127.644 409.6 127.644 408.208C127.644 406.853 128.095 405.711 128.999 404.784C129.89 403.856 131.05 403.392 132.478 403.392C133.809 403.392 134.908 403.862 135.775 404.802C136.641 405.742 137.075 406.883 137.075 408.226C137.075 408.324 137.069 408.446 137.056 408.593C137.044 408.727 137.026 408.879 137.001 409.05H129.713ZM135.079 407.439C134.944 406.694 134.639 406.133 134.163 405.754C133.687 405.376 133.119 405.186 132.46 405.186C131.727 405.186 131.117 405.388 130.629 405.791C130.14 406.194 129.829 406.743 129.695 407.439H135.079ZM144.803 403.63H146.781V412.786H144.803V409.142H140.61V412.786H138.632V403.63H140.61V407.274H144.803V403.63ZM155.522 403.63H157.042V412.786H155.101V406.963L150.413 412.786H148.893V403.63H150.834V409.435L155.522 403.63ZM166.24 403.63V412.786H164.299V409.71H163.2L160.875 412.786H158.549L161.021 409.527C160.386 409.319 159.874 408.953 159.483 408.428C159.104 407.903 158.915 407.317 158.915 406.67C158.915 405.827 159.214 405.113 159.813 404.527C160.411 403.929 161.192 403.63 162.157 403.63H166.24ZM164.299 408.007V405.424H162.266C161.864 405.424 161.528 405.54 161.259 405.772C160.991 406.004 160.856 406.322 160.856 406.725C160.856 407.115 160.991 407.427 161.259 407.659C161.528 407.891 161.864 408.007 162.266 408.007H164.299Z" fill="#1A1D1F"/>
<rect x="183.67" y="397.822" width="20.9286" height="20.9286" rx="5.23215" fill="#FFD88D"/>
<path d="M225.776 399.967V412.786H223.67V401.982H218.451V412.786H216.345V399.967H225.776ZM233.216 403.392C234.461 403.392 235.535 403.862 236.439 404.802C237.33 405.73 237.775 406.865 237.775 408.208C237.775 409.563 237.33 410.705 236.439 411.632C235.547 412.56 234.473 413.024 233.216 413.024C231.824 413.024 230.756 412.511 230.011 411.486V416.449H228.033V403.63H230.011V404.948C230.756 403.911 231.824 403.392 233.216 403.392ZM230.835 410.314C231.384 410.863 232.074 411.138 232.904 411.138C233.734 411.138 234.424 410.863 234.974 410.314C235.523 409.752 235.798 409.05 235.798 408.208C235.798 407.366 235.523 406.67 234.974 406.12C234.424 405.559 233.734 405.278 232.904 405.278C232.074 405.278 231.384 405.559 230.835 406.12C230.286 406.67 230.011 407.366 230.011 408.208C230.011 409.05 230.286 409.752 230.835 410.314ZM246.014 403.63H247.534V412.786H245.593V406.963L240.905 412.786H239.385V403.63H241.326V409.435L246.014 403.63ZM253.894 413.024C252.502 413.024 251.355 412.572 250.451 411.669C249.572 410.753 249.133 409.588 249.133 408.171C249.133 406.633 249.365 405.437 249.829 404.582C250.28 403.74 251.22 402.965 252.649 402.256C252.771 402.195 252.911 402.128 253.07 402.055C253.241 401.97 253.442 401.878 253.674 401.78C253.906 401.683 254.101 401.597 254.26 401.524C254.419 401.451 254.541 401.39 254.626 401.341C254.712 401.292 254.803 401.237 254.901 401.176C255.011 401.103 255.133 401.023 255.267 400.938C255.524 400.755 255.713 400.566 255.835 400.37C255.957 400.163 256.055 399.919 256.128 399.638L257.74 400.572C257.703 400.962 257.55 401.322 257.282 401.652C257.013 401.97 256.745 402.226 256.476 402.421C256.342 402.543 256.091 402.69 255.725 402.861L254.938 403.227L254.022 403.612C253.216 403.929 252.624 404.259 252.246 404.6C251.88 404.93 251.623 405.345 251.477 405.846C252.209 405.016 253.204 404.6 254.462 404.6C255.536 404.6 256.47 404.985 257.263 405.754C258.069 406.523 258.472 407.518 258.472 408.739C258.472 409.984 258.045 411.01 257.19 411.816C256.348 412.621 255.249 413.024 253.894 413.024ZM253.876 411.175C254.254 411.175 254.602 411.114 254.919 410.992C255.249 410.869 255.53 410.705 255.762 410.497C255.994 410.277 256.171 410.021 256.293 409.728C256.427 409.423 256.494 409.093 256.494 408.739C256.494 408.373 256.427 408.043 256.293 407.75C256.171 407.445 255.994 407.183 255.762 406.963C255.542 406.743 255.267 406.572 254.938 406.45C254.62 406.328 254.272 406.267 253.894 406.267C253.21 406.267 252.594 406.487 252.044 406.926C251.495 407.353 251.22 407.927 251.22 408.648C251.22 409.38 251.477 409.984 251.989 410.46C252.502 410.937 253.131 411.175 253.876 411.175ZM263.845 406.743C264.834 406.743 265.633 407.024 266.244 407.585C266.866 408.135 267.178 408.861 267.178 409.765C267.178 410.656 266.866 411.382 266.244 411.944C265.633 412.505 264.834 412.786 263.845 412.786H259.853V403.63H261.83V406.743H263.845ZM268.276 403.63H270.254V412.786H268.276V403.63ZM263.863 411.01C264.254 411.01 264.577 410.894 264.834 410.662C265.102 410.43 265.236 410.131 265.236 409.765C265.236 409.386 265.102 409.087 264.834 408.867C264.577 408.635 264.254 408.519 263.863 408.519H261.83V411.01H263.863ZM280.094 403.63V412.786H278.117V405.534H275.058V408.941C275.058 410.393 274.741 411.425 274.106 412.035C273.471 412.646 272.568 412.896 271.396 412.786V410.937C271.958 411.034 272.379 410.924 272.66 410.607C272.94 410.277 273.081 409.691 273.081 408.849V403.63H280.094ZM286.208 406.743C287.197 406.743 287.997 407.024 288.607 407.585C289.23 408.135 289.541 408.861 289.541 409.765C289.541 410.656 289.23 411.382 288.607 411.944C287.997 412.505 287.197 412.786 286.208 412.786H282.216V403.63H284.194V406.743H286.208ZM286.226 411.01C286.617 411.01 286.941 410.894 287.197 410.662C287.466 410.43 287.6 410.131 287.6 409.765C287.6 409.386 287.466 409.087 287.197 408.867C286.941 408.635 286.617 408.519 286.226 408.519H284.194V411.01H286.226Z" fill="#1A1D1F"/>
<rect x="305.759" y="397.822" width="20.9286" height="20.9286" rx="5.23215" fill="#B5E4CA"/>
<path d="M345.979 406.139C346.54 406.432 346.98 406.835 347.297 407.347C347.615 407.86 347.773 408.452 347.773 409.124C347.773 410.174 347.401 411.046 346.656 411.742C345.899 412.438 344.99 412.786 343.928 412.786H338.434V399.967H343.525C344.575 399.967 345.46 400.309 346.18 400.993C346.913 401.677 347.279 402.519 347.279 403.52C347.279 404.619 346.846 405.492 345.979 406.139ZM340.54 401.945V405.315H343.525C343.989 405.315 344.38 405.156 344.697 404.838C345.014 404.509 345.173 404.106 345.173 403.63C345.173 403.154 345.014 402.757 344.697 402.44C344.38 402.11 343.989 401.945 343.525 401.945H340.54ZM343.928 410.808C344.416 410.808 344.825 410.637 345.155 410.296C345.497 409.954 345.667 409.527 345.667 409.014C345.667 408.501 345.497 408.074 345.155 407.732C344.825 407.39 344.416 407.219 343.928 407.219H340.54V410.808H343.928ZM353.292 406.743C354.281 406.743 355.08 407.024 355.691 407.585C356.313 408.135 356.625 408.861 356.625 409.765C356.625 410.656 356.313 411.382 355.691 411.944C355.08 412.505 354.281 412.786 353.292 412.786H349.3V403.63H351.278V406.743H353.292ZM357.724 403.63H359.701V412.786H357.724V403.63ZM353.31 411.01C353.701 411.01 354.024 410.894 354.281 410.662C354.549 410.43 354.684 410.131 354.684 409.765C354.684 409.386 354.549 409.087 354.281 408.867C354.024 408.635 353.701 408.519 353.31 408.519H351.278V411.01H353.31ZM366.996 403.392C368.242 403.392 369.316 403.862 370.219 404.802C371.11 405.73 371.556 406.865 371.556 408.208C371.556 409.563 371.11 410.705 370.219 411.632C369.328 412.56 368.254 413.024 366.996 413.024C365.605 413.024 364.536 412.511 363.792 411.486V416.449H361.814V403.63H363.792V404.948C364.536 403.911 365.605 403.392 366.996 403.392ZM364.616 410.314C365.165 410.863 365.855 411.138 366.685 411.138C367.515 411.138 368.205 410.863 368.754 410.314C369.304 409.752 369.578 409.05 369.578 408.208C369.578 407.366 369.304 406.67 368.754 406.12C368.205 405.559 367.515 405.278 366.685 405.278C365.855 405.278 365.165 405.559 364.616 406.12C364.066 406.67 363.792 407.366 363.792 408.208C363.792 409.05 364.066 409.752 364.616 410.314ZM378.979 403.63H381.085L377.569 413.079C377.142 414.251 376.544 415.118 375.774 415.68C375.017 416.253 374.126 416.51 373.101 416.449V414.599C373.723 414.636 374.224 414.508 374.602 414.215C374.993 413.934 375.304 413.476 375.536 412.841L375.591 412.713L371.746 403.63H373.852L376.635 410.296L378.979 403.63ZM387.706 403.63H389.683V412.786H387.706V409.691C386.985 409.96 386.216 410.094 385.398 410.094C384.251 410.094 383.347 409.82 382.688 409.27C382.041 408.709 381.717 407.878 381.717 406.78V403.63H383.695V406.597C383.695 407.695 384.348 408.245 385.655 408.245C386.399 408.245 387.083 408.104 387.706 407.823V403.63ZM399.903 412.786H397.541L393.787 408.556V412.786H391.809V403.63H393.787V407.677L397.34 403.63H399.757L395.728 408.116L399.903 412.786ZM407.569 403.63H409.547V412.786H407.569V411.468C406.824 412.505 405.756 413.024 404.364 413.024C403.107 413.024 402.033 412.56 401.141 411.632C400.25 410.705 399.805 409.563 399.805 408.208C399.805 406.853 400.25 405.711 401.141 404.784C402.033 403.856 403.107 403.392 404.364 403.392C405.744 403.392 406.812 403.905 407.569 404.93V403.63ZM402.606 410.314C403.156 410.863 403.846 411.138 404.676 411.138C405.506 411.138 406.196 410.863 406.745 410.314C407.294 409.752 407.569 409.05 407.569 408.208C407.569 407.366 407.294 406.67 406.745 406.12C406.196 405.559 405.506 405.278 404.676 405.278C403.846 405.278 403.156 405.559 402.606 406.12C402.057 406.67 401.782 407.366 401.782 408.208C401.782 409.05 402.057 409.752 402.606 410.314Z" fill="#1A1D1F"/>
<defs>
<filter id="filter0_ddi_10_7520" x="145.033" y="203.538" width="155.075" height="73.896" filterUnits="userSpaceOnUse" color-interpolation-filters="sRGB">
<feFlood flood-opacity="0" result="BackgroundImageFix"/>
<feColorMatrix in="SourceAlpha" type="matrix" values="0 0 0 0 0 0 0 0 0 0 0 0 0 0 0 0 0 0 127 0" result="hardAlpha"/>
<feOffset dy="2.2948"/>
<feGaussianBlur stdDeviation="2.2948"/>
<feComposite in2="hardAlpha" operator="out"/>
<feColorMatrix type="matrix" values="0 0 0 0 0 0 0 0 0 0 0 0 0 0 0 0 0 0 0.1 0"/>
<feBlend mode="multiply" in2="BackgroundImageFix" result="effect1_dropShadow_10_7520"/>
<feColorMatrix in="SourceAlpha" type="matrix" values="0 0 0 0 0 0 0 0 0 0 0 0 0 0 0 0 0 0 127 0" result="hardAlpha"/>
<feOffset dy="4.5896"/>
<feGaussianBlur stdDeviation="4.5896"/>
<feComposite in2="hardAlpha" operator="out"/>
<feColorMatrix type="matrix" values="0 0 0 0 0 0 0 0 0 0 0 0 0 0 0 0 0 0 0.1 0"/>
<feBlend mode="multiply" in2="effect1_dropShadow_10_7520" result="effect2_dropShadow_10_7520"/>
<feBlend mode="normal" in="SourceGraphic" in2="effect2_dropShadow_10_7520" result="shape"/>
<feColorMatrix in="SourceAlpha" type="matrix" values="0 0 0 0 0 0 0 0 0 0 0 0 0 0 0 0 0 0 127 0" result="hardAlpha"/>
<feOffset/>
<feGaussianBlur stdDeviation="0.573701"/>
<feComposite in2="hardAlpha" operator="arithmetic" k2="-1" k3="1"/>
<feColorMatrix type="matrix" values="0 0 0 0 0 0 0 0 0 0 0 0 0 0 0 0 0 0 1 0"/>
<feBlend mode="multiply" in2="shape" result="effect3_innerShadow_10_7520"/>
</filter>
</defs>
</svg>
