<svg width="503" height="371" viewBox="0 0 503 371" fill="none" xmlns="http://www.w3.org/2000/svg">
<rect width="798" height="371" rx="9.5" fill="white"/>
<path d="M38.0238 59.8088C35.5221 59.8088 33.4479 58.9854 31.8013 57.3387C30.1546 55.6604 29.3313 53.61 29.3313 51.1875C29.3313 48.7492 30.1546 46.7067 31.8013 45.06C33.4321 43.3975 35.5063 42.5662 38.0238 42.5662C38.7838 42.5662 39.5121 42.6612 40.2088 42.8512C40.9213 43.0254 41.5863 43.2867 42.2038 43.635C42.8213 43.9833 43.3754 44.4029 43.8663 44.8937C44.3729 45.3687 44.8083 45.915 45.1725 46.5325L42.7975 47.91C42.3542 47.0867 41.705 46.4375 40.85 45.9625C40.0108 45.4717 39.0688 45.2262 38.0238 45.2262C36.2663 45.2262 34.8254 45.7883 33.7013 46.9125C32.6088 48.0367 32.0625 49.4617 32.0625 51.1875C32.0625 52.9292 32.6088 54.3542 33.7013 55.4625C34.8254 56.5867 36.2663 57.1487 38.0238 57.1487C39.0688 57.1487 40.0188 56.9112 40.8738 56.4362C41.7288 55.9454 42.37 55.2883 42.7975 54.465L45.1725 55.8187C44.4917 57.0221 43.5021 57.9958 42.2038 58.74C40.9371 59.4525 39.5438 59.8088 38.0238 59.8088ZM53.6375 47.3162C55.2525 47.3162 56.6459 47.9258 57.8175 49.145C58.9734 50.3483 59.5513 51.8208 59.5513 53.5625C59.5513 55.32 58.9734 56.8004 57.8175 58.0037C56.6617 59.2071 55.2684 59.8088 53.6375 59.8088C51.8325 59.8088 50.4471 59.1437 49.4813 57.8137V64.25H46.9163V47.625H49.4813V49.335C50.4471 47.9892 51.8325 47.3162 53.6375 47.3162ZM50.55 56.2937C51.2625 57.0062 52.1571 57.3625 53.2338 57.3625C54.3104 57.3625 55.205 57.0062 55.9175 56.2937C56.63 55.5654 56.9863 54.655 56.9863 53.5625C56.9863 52.47 56.63 51.5675 55.9175 50.855C55.205 50.1267 54.3104 49.7625 53.2338 49.7625C52.1571 49.7625 51.2625 50.1267 50.55 50.855C49.8375 51.5675 49.4813 52.47 49.4813 53.5625C49.4813 54.655 49.8375 55.5654 50.55 56.2937ZM70.806 47.625H73.371V59.5H70.806V57.79C69.8402 59.1358 68.4547 59.8088 66.6497 59.8088C65.0189 59.8088 63.6256 59.2071 62.4697 58.0037C61.3139 56.8004 60.736 55.32 60.736 53.5625C60.736 51.805 61.3139 50.3246 62.4697 49.1212C63.6256 47.9179 65.0189 47.3162 66.6497 47.3162C68.4389 47.3162 69.8243 47.9812 70.806 49.3112V47.625ZM64.3697 56.2937C65.0822 57.0062 65.9768 57.3625 67.0535 57.3625C68.1302 57.3625 69.0247 57.0062 69.7372 56.2937C70.4497 55.5654 70.806 54.655 70.806 53.5625C70.806 52.47 70.4497 51.5675 69.7372 50.855C69.0247 50.1267 68.1302 49.7625 67.0535 49.7625C65.9768 49.7625 65.0822 50.1267 64.3697 50.855C63.6572 51.5675 63.301 52.47 63.301 53.5625C63.301 54.655 63.6572 55.5654 64.3697 56.2937ZM84.1032 53.3963C85.2749 53.9504 85.8607 54.8608 85.8607 56.1275C85.8607 57.125 85.5203 57.9404 84.8395 58.5737C84.1745 59.1912 83.2165 59.5 81.9657 59.5H75.8857V47.625H81.4907C82.7257 47.625 83.6757 47.9337 84.3407 48.5512C85.0057 49.1529 85.3382 49.9367 85.3382 50.9025C85.3382 52.0267 84.9265 52.8579 84.1032 53.3963ZM78.332 49.81V52.4462H81.3007C82.3457 52.4462 82.8682 52.0029 82.8682 51.1162C82.8682 50.2454 82.3457 49.81 81.3007 49.81H78.332ZM81.7282 57.2675C82.8049 57.2675 83.3432 56.8004 83.3432 55.8662C83.3432 55.4546 83.2007 55.1379 82.9157 54.9162C82.6307 54.6787 82.2349 54.56 81.7282 54.56H78.332V57.2675H81.7282ZM95.475 47.625H98.04V59.5H95.475V54.7737H90.0362V59.5H87.4712V47.625H90.0362V52.3512H95.475V47.625ZM102.56 54.655C102.75 55.5575 103.177 56.2542 103.842 56.745C104.523 57.22 105.362 57.4575 106.36 57.4575C107.706 57.4575 108.727 56.9667 109.424 55.985L111.537 57.22C110.382 58.9458 108.648 59.8088 106.336 59.8088C104.42 59.8088 102.861 59.2229 101.657 58.0512C100.47 56.8637 99.8762 55.3675 99.8762 53.5625C99.8762 51.805 100.462 50.3246 101.634 49.1212C102.79 47.9179 104.294 47.3162 106.146 47.3162C107.872 47.3162 109.297 47.9258 110.421 49.145C111.545 50.3642 112.107 51.8446 112.107 53.5862C112.107 53.7129 112.1 53.8712 112.084 54.0612C112.068 54.2354 112.044 54.4333 112.012 54.655H102.56ZM109.519 52.565C109.345 51.5992 108.949 50.8708 108.331 50.38C107.714 49.8892 106.977 49.6437 106.122 49.6437C105.172 49.6437 104.381 49.905 103.747 50.4275C103.114 50.95 102.71 51.6625 102.536 52.565H109.519ZM121.893 47.625H124.458V59.5H121.893V54.7737H116.454V59.5H113.889V47.625H116.454V52.3512H121.893V47.625ZM135.557 47.625H137.528V59.5H135.011V51.9475L128.931 59.5H126.959V47.625H129.477V55.1537L135.557 47.625ZM142.048 54.655C142.238 55.5575 142.666 56.2542 143.331 56.745C144.011 57.22 144.851 57.4575 145.848 57.4575C147.194 57.4575 148.215 56.9667 148.912 55.985L151.026 57.22C149.87 58.9458 148.136 59.8088 145.824 59.8088C143.908 59.8088 142.349 59.2229 141.146 58.0512C139.958 56.8637 139.364 55.3675 139.364 53.5625C139.364 51.805 139.95 50.3246 141.122 49.1212C142.278 47.9179 143.782 47.3162 145.634 47.3162C147.36 47.3162 148.785 47.9258 149.909 49.145C151.033 50.3642 151.596 51.8446 151.596 53.5862C151.596 53.7129 151.588 53.8712 151.572 54.0612C151.556 54.2354 151.532 54.4333 151.501 54.655H142.048ZM149.007 52.565C148.833 51.5992 148.437 50.8708 147.819 50.38C147.202 49.8892 146.466 49.6437 145.611 49.6437C144.661 49.6437 143.869 49.905 143.236 50.4275C142.602 50.95 142.198 51.6625 142.024 52.565H149.007ZM169.337 59.5H166.274L161.405 54.0137V59.5H158.84V47.625H161.405V52.8737L166.013 47.625H169.148L163.923 53.4437L169.337 59.5ZM175.242 59.8088C173.484 59.8088 172.004 59.2071 170.801 58.0037C169.582 56.7846 168.972 55.3042 168.972 53.5625C168.972 51.8208 169.582 50.3404 170.801 49.1212C172.004 47.9179 173.484 47.3162 175.242 47.3162C176.999 47.3162 178.48 47.9179 179.683 49.1212C180.902 50.3404 181.512 51.8208 181.512 53.5625C181.512 55.3042 180.902 56.7846 179.683 58.0037C178.48 59.2071 176.999 59.8088 175.242 59.8088ZM172.606 56.2462C173.318 56.9587 174.197 57.315 175.242 57.315C176.287 57.315 177.166 56.9587 177.878 56.2462C178.591 55.5337 178.947 54.6392 178.947 53.5625C178.947 52.4858 178.591 51.5912 177.878 50.8787C177.166 50.1662 176.287 49.81 175.242 49.81C174.197 49.81 173.318 50.1662 172.606 50.8787C171.893 51.5912 171.537 52.4858 171.537 53.5625C171.537 54.6392 171.893 55.5337 172.606 56.2462ZM191.36 47.625H193.925V59.5H191.36V54.7737H185.921V59.5H183.356V47.625H185.921V52.3512H191.36V47.625ZM205.499 47.625V50.095H201.627V59.5H199.062V50.095H195.167V47.625H205.499ZM215.7 47.625H218.265V59.5H215.7V57.79C214.735 59.1358 213.349 59.8088 211.544 59.8088C209.913 59.8088 208.52 59.2071 207.364 58.0037C206.208 56.8004 205.63 55.32 205.63 53.5625C205.63 51.805 206.208 50.3246 207.364 49.1212C208.52 47.9179 209.913 47.3162 211.544 47.3162C213.333 47.3162 214.719 47.9812 215.7 49.3112V47.625ZM209.264 56.2937C209.977 57.0062 210.871 57.3625 211.948 57.3625C213.025 57.3625 213.919 57.0062 214.632 56.2937C215.344 55.5654 215.7 54.655 215.7 53.5625C215.7 52.47 215.344 51.5675 214.632 50.855C213.919 50.1267 213.025 49.7625 211.948 49.7625C210.871 49.7625 209.977 50.1267 209.264 50.855C208.552 51.5675 208.195 52.47 208.195 53.5625C208.195 54.655 208.552 55.5654 209.264 56.2937ZM228.736 47.625V50.095H223.345V59.5H220.78V47.625H228.736ZM231.555 54.655C231.745 55.5575 232.172 56.2542 232.837 56.745C233.518 57.22 234.357 57.4575 235.355 57.4575C236.701 57.4575 237.722 56.9667 238.419 55.985L240.532 57.22C239.377 58.9458 237.643 59.8088 235.331 59.8088C233.415 59.8088 231.856 59.2229 230.652 58.0512C229.465 56.8637 228.871 55.3675 228.871 53.5625C228.871 51.805 229.457 50.3246 230.629 49.1212C231.784 47.9179 233.289 47.3162 235.141 47.3162C236.867 47.3162 238.292 47.9258 239.416 49.145C240.54 50.3642 241.102 51.8446 241.102 53.5862C241.102 53.7129 241.094 53.8712 241.079 54.0612C241.063 54.2354 241.039 54.4333 241.007 54.655H231.555ZM238.514 52.565C238.339 51.5992 237.944 50.8708 237.326 50.38C236.709 49.8892 235.972 49.6437 235.117 49.6437C234.167 49.6437 233.376 49.905 232.742 50.4275C232.109 50.95 231.705 51.6625 231.531 52.565H238.514ZM250.888 47.625H253.453V59.5H250.888V54.7737H245.449V59.5H242.884V47.625H245.449V52.3512H250.888V47.625ZM265.027 47.625V50.095H261.156V59.5H258.591V50.095H254.696V47.625H265.027ZM271.429 59.8088C269.671 59.8088 268.191 59.2071 266.987 58.0037C265.768 56.7846 265.159 55.3042 265.159 53.5625C265.159 51.8208 265.768 50.3404 266.987 49.1212C268.191 47.9179 269.671 47.3162 271.429 47.3162C273.186 47.3162 274.666 47.9179 275.87 49.1212C277.089 50.3404 277.699 51.8208 277.699 53.5625C277.699 55.3042 277.089 56.7846 275.87 58.0037C274.666 59.2071 273.186 59.8088 271.429 59.8088ZM268.792 56.2462C269.505 56.9587 270.384 57.315 271.429 57.315C272.474 57.315 273.352 56.9587 274.065 56.2462C274.777 55.5337 275.134 54.6392 275.134 53.5625C275.134 52.4858 274.777 51.5912 274.065 50.8787C273.352 50.1662 272.474 49.81 271.429 49.81C270.384 49.81 269.505 50.1662 268.792 50.8787C268.08 51.5912 267.724 52.4858 267.724 53.5625C267.724 54.6392 268.08 55.5337 268.792 56.2462ZM287.76 53.3963C288.932 53.9504 289.518 54.8608 289.518 56.1275C289.518 57.125 289.177 57.9404 288.497 58.5737C287.832 59.1912 286.874 59.5 285.623 59.5H279.543V47.625H285.148C286.383 47.625 287.333 47.9337 287.998 48.5512C288.663 49.1529 288.995 49.9367 288.995 50.9025C288.995 52.0267 288.584 52.8579 287.76 53.3963ZM281.989 49.81V52.4462H284.958C286.003 52.4462 286.525 52.0029 286.525 51.1162C286.525 50.2454 286.003 49.81 284.958 49.81H281.989ZM285.385 57.2675C286.462 57.2675 287 56.8004 287 55.8662C287 55.4546 286.858 55.1379 286.573 54.9162C286.288 54.6787 285.892 54.56 285.385 54.56H281.989V57.2675H285.385Z" fill="#1E1E1E"/>
<rect x="85.5" y="132.312" width="684" height="1.1875" rx="0.59375" fill="#F0F4F9"/>
<rect x="85.5" y="176.25" width="684" height="1.1875" rx="0.59375" fill="#F0F4F9"/>
<rect x="85.5" y="220.188" width="684" height="1.1875" rx="0.59375" fill="#F0F4F9"/>
<rect x="85.5" y="264.125" width="684" height="1.1875" rx="0.59375" fill="#F0F4F9"/>
<rect x="85.5" y="308.062" width="684" height="1.1875" rx="0.59375" fill="#F0F4F9"/>
<path d="M35.7675 133.594C35.7675 134.335 35.5158 134.957 35.0123 135.461C34.5183 135.955 33.8675 136.245 33.06 136.33V137.613H32.205V136.344C31.4355 136.297 30.78 136.092 30.2385 135.731C29.697 135.37 29.3075 134.886 29.07 134.278L29.925 133.779C30.2765 134.748 31.0365 135.28 32.205 135.375V131.442C31.4355 131.176 30.8228 130.872 30.3668 130.53C29.8348 130.131 29.5688 129.518 29.5688 128.692C29.5688 127.951 29.8158 127.348 30.3098 126.882C30.8228 126.398 31.4545 126.122 32.205 126.056V124.787H33.06V126.07C33.63 126.136 34.1288 126.326 34.5563 126.64C34.9933 126.953 35.3258 127.376 35.5538 127.908L34.713 128.378C34.4185 127.628 33.8675 127.186 33.06 127.053V130.758C33.858 131.024 34.4803 131.338 34.9268 131.699C35.4873 132.136 35.7675 132.767 35.7675 133.594ZM30.5663 128.692C30.5663 129.11 30.6898 129.452 30.9368 129.718C31.1933 129.974 31.616 130.217 32.205 130.445V127.039C31.711 127.096 31.312 127.272 31.008 127.566C30.7135 127.861 30.5663 128.236 30.5663 128.692ZM33.06 131.741V135.361C33.592 135.285 34.01 135.09 34.314 134.777C34.618 134.463 34.77 134.069 34.77 133.594C34.77 133.147 34.6323 132.786 34.3568 132.511C34.0908 132.235 33.6585 131.979 33.06 131.741ZM43.1035 136.188H36.7622V135.29L40.3532 131.67C41.3792 130.644 41.8922 129.765 41.8922 129.034C41.8922 128.416 41.6975 127.927 41.308 127.566C40.928 127.196 40.453 127.01 39.883 127.01C38.8665 127.01 38.1207 127.481 37.6457 128.421L36.805 127.922C37.109 127.314 37.5317 126.849 38.0732 126.526C38.6147 126.203 39.218 126.041 39.883 126.041C40.681 126.041 41.3792 126.312 41.9777 126.854C42.5857 127.376 42.8897 128.103 42.8897 129.034C42.8897 129.585 42.7377 130.126 42.4337 130.658C42.1297 131.181 41.6642 131.756 41.0372 132.383L38.1872 135.218H43.1035V136.188ZM45.5617 130.231H47.2432C48.1837 130.231 48.9722 130.506 49.6087 131.057C50.2642 131.599 50.592 132.345 50.592 133.295C50.592 134.235 50.2642 134.986 49.6087 135.546C48.9722 136.088 48.1837 136.359 47.2432 136.359C46.4737 136.359 45.7945 136.173 45.2055 135.803C44.626 135.423 44.2365 134.9 44.037 134.235L44.8777 133.751C45.0202 134.273 45.3005 134.677 45.7185 134.962C46.1365 135.247 46.6447 135.389 47.2432 135.389C47.9462 135.389 48.5115 135.204 48.939 134.834C49.376 134.454 49.5945 133.941 49.5945 133.295C49.5945 132.649 49.376 132.14 48.939 131.77C48.5115 131.39 47.9462 131.2 47.2432 131.2H44.5357L44.892 126.212H50.2357V127.153H45.7755L45.5617 130.231ZM58.0092 134.962C57.3537 135.893 56.4274 136.359 55.2304 136.359C54.0429 136.359 53.1119 135.893 52.4374 134.962C51.7819 134.021 51.4542 132.767 51.4542 131.2C51.4542 129.623 51.7819 128.374 52.4374 127.452C53.1119 126.512 54.0429 126.041 55.2304 126.041C56.4274 126.041 57.3537 126.512 58.0092 127.452C58.6742 128.374 59.0067 129.623 59.0067 131.2C59.0067 132.777 58.6742 134.031 58.0092 134.962ZM53.1784 134.292C53.6819 135.024 54.3659 135.389 55.2304 135.389C56.1044 135.389 56.7837 135.024 57.2682 134.292C57.7622 133.57 58.0092 132.539 58.0092 131.2C58.0092 129.86 57.7622 128.83 57.2682 128.108C56.7837 127.376 56.1044 127.01 55.2304 127.01C54.3659 127.01 53.6819 127.376 53.1784 128.108C52.6939 128.839 52.4517 129.87 52.4517 131.2C52.4517 132.53 52.6939 133.561 53.1784 134.292Z" fill="#65788E"/>
<path d="M35.7675 177.094C35.7675 177.835 35.5158 178.457 35.0123 178.961C34.5183 179.455 33.8675 179.745 33.06 179.83V181.113H32.205V179.844C31.4355 179.797 30.78 179.592 30.2385 179.231C29.697 178.87 29.3075 178.386 29.07 177.778L29.925 177.279C30.2765 178.248 31.0365 178.78 32.205 178.875V174.942C31.4355 174.676 30.8228 174.372 30.3668 174.03C29.8348 173.631 29.5688 173.018 29.5688 172.192C29.5688 171.451 29.8158 170.848 30.3098 170.382C30.8228 169.898 31.4545 169.622 32.205 169.556V168.287H33.06V169.57C33.63 169.636 34.1288 169.826 34.5563 170.14C34.9933 170.453 35.3258 170.876 35.5538 171.408L34.713 171.878C34.4185 171.128 33.8675 170.686 33.06 170.553V174.258C33.858 174.524 34.4803 174.838 34.9268 175.199C35.4873 175.636 35.7675 176.267 35.7675 177.094ZM30.5663 172.192C30.5663 172.61 30.6898 172.952 30.9368 173.218C31.1933 173.474 31.616 173.717 32.205 173.945V170.539C31.711 170.596 31.312 170.772 31.008 171.066C30.7135 171.361 30.5663 171.736 30.5663 172.192ZM33.06 175.241V178.861C33.592 178.785 34.01 178.59 34.314 178.277C34.618 177.963 34.77 177.569 34.77 177.094C34.77 176.647 34.6323 176.286 34.3568 176.011C34.0908 175.735 33.6585 175.479 33.06 175.241ZM43.1035 179.688H36.7622V178.79L40.3532 175.17C41.3792 174.144 41.8922 173.265 41.8922 172.534C41.8922 171.916 41.6975 171.427 41.308 171.066C40.928 170.696 40.453 170.51 39.883 170.51C38.8665 170.51 38.1207 170.981 37.6457 171.921L36.805 171.422C37.109 170.814 37.5317 170.349 38.0732 170.026C38.6147 169.703 39.218 169.541 39.883 169.541C40.681 169.541 41.3792 169.812 41.9777 170.354C42.5857 170.876 42.8897 171.603 42.8897 172.534C42.8897 173.085 42.7377 173.626 42.4337 174.158C42.1297 174.681 41.6642 175.256 41.0372 175.883L38.1872 178.718H43.1035V179.688ZM50.6649 178.462C50.0094 179.393 49.0831 179.859 47.8861 179.859C46.6986 179.859 45.7676 179.393 45.0931 178.462C44.4376 177.521 44.1099 176.267 44.1099 174.7C44.1099 173.123 44.4376 171.874 45.0931 170.952C45.7676 170.012 46.6986 169.541 47.8861 169.541C49.0831 169.541 50.0094 170.012 50.6649 170.952C51.3299 171.874 51.6624 173.123 51.6624 174.7C51.6624 176.277 51.3299 177.531 50.6649 178.462ZM45.8341 177.792C46.3376 178.524 47.0216 178.889 47.8861 178.889C48.7601 178.889 49.4394 178.524 49.9239 177.792C50.4179 177.07 50.6649 176.039 50.6649 174.7C50.6649 173.36 50.4179 172.33 49.9239 171.608C49.4394 170.876 48.7601 170.51 47.8861 170.51C47.0216 170.51 46.3376 170.876 45.8341 171.608C45.3496 172.339 45.1074 173.37 45.1074 174.7C45.1074 176.03 45.3496 177.061 45.8341 177.792ZM59.4982 178.462C58.8427 179.393 57.9165 179.859 56.7195 179.859C55.532 179.859 54.601 179.393 53.9265 178.462C53.271 177.521 52.9432 176.267 52.9432 174.7C52.9432 173.123 53.271 171.874 53.9265 170.952C54.601 170.012 55.532 169.541 56.7195 169.541C57.9165 169.541 58.8427 170.012 59.4982 170.952C60.1632 171.874 60.4957 173.123 60.4957 174.7C60.4957 176.277 60.1632 177.531 59.4982 178.462ZM54.6675 177.792C55.171 178.524 55.855 178.889 56.7195 178.889C57.5935 178.889 58.2727 178.524 58.7572 177.792C59.2512 177.07 59.4982 176.039 59.4982 174.7C59.4982 173.36 59.2512 172.33 58.7572 171.608C58.2727 170.876 57.5935 170.51 56.7195 170.51C55.855 170.51 55.171 170.876 54.6675 171.608C54.183 172.339 53.9407 173.37 53.9407 174.7C53.9407 176.03 54.183 177.061 54.6675 177.792Z" fill="#65788E"/>
<path d="M35.7675 220.594C35.7675 221.335 35.5158 221.957 35.0123 222.461C34.5183 222.955 33.8675 223.245 33.06 223.33V224.613H32.205V223.344C31.4355 223.297 30.78 223.092 30.2385 222.731C29.697 222.37 29.3075 221.886 29.07 221.278L29.925 220.779C30.2765 221.748 31.0365 222.28 32.205 222.375V218.442C31.4355 218.176 30.8228 217.872 30.3668 217.53C29.8348 217.131 29.5688 216.518 29.5688 215.692C29.5688 214.951 29.8158 214.348 30.3098 213.882C30.8228 213.398 31.4545 213.122 32.205 213.056V211.787H33.06V213.07C33.63 213.136 34.1288 213.326 34.5563 213.64C34.9933 213.953 35.3258 214.376 35.5538 214.908L34.713 215.378C34.4185 214.628 33.8675 214.186 33.06 214.053V217.758C33.858 218.024 34.4803 218.338 34.9268 218.699C35.4873 219.136 35.7675 219.767 35.7675 220.594ZM30.5663 215.692C30.5663 216.11 30.6898 216.452 30.9368 216.718C31.1933 216.974 31.616 217.217 32.205 217.445V214.039C31.711 214.096 31.312 214.272 31.008 214.566C30.7135 214.861 30.5663 215.236 30.5663 215.692ZM33.06 218.741V222.361C33.592 222.285 34.01 222.09 34.314 221.777C34.618 221.463 34.77 221.069 34.77 220.594C34.77 220.147 34.6323 219.786 34.3568 219.511C34.0908 219.235 33.6585 218.979 33.06 218.741ZM36.406 214.124L39.0422 213.212H39.8972V223.188H38.8997V214.31L36.6625 214.979L36.406 214.124ZM42.9872 217.231H44.6687C45.6092 217.231 46.3977 217.506 47.0342 218.057C47.6897 218.599 48.0175 219.345 48.0175 220.295C48.0175 221.235 47.6897 221.986 47.0342 222.546C46.3977 223.088 45.6092 223.359 44.6687 223.359C43.8992 223.359 43.22 223.173 42.631 222.803C42.0515 222.423 41.662 221.9 41.4625 221.235L42.3032 220.751C42.4457 221.273 42.726 221.677 43.144 221.962C43.562 222.247 44.0702 222.389 44.6687 222.389C45.3717 222.389 45.937 222.204 46.3645 221.834C46.8015 221.454 47.02 220.941 47.02 220.295C47.02 219.649 46.8015 219.14 46.3645 218.77C45.937 218.39 45.3717 218.2 44.6687 218.2H41.9612L42.3175 213.212H47.6612V214.153H43.201L42.9872 217.231ZM55.4347 221.962C54.7792 222.893 53.853 223.359 52.656 223.359C51.4685 223.359 50.5375 222.893 49.863 221.962C49.2075 221.021 48.8797 219.767 48.8797 218.2C48.8797 216.623 49.2075 215.374 49.863 214.452C50.5375 213.512 51.4685 213.041 52.656 213.041C53.853 213.041 54.7792 213.512 55.4347 214.452C56.0997 215.374 56.4322 216.623 56.4322 218.2C56.4322 219.777 56.0997 221.031 55.4347 221.962ZM50.604 221.292C51.1075 222.024 51.7915 222.389 52.656 222.389C53.53 222.389 54.2092 222.024 54.6937 221.292C55.1877 220.57 55.4347 219.539 55.4347 218.2C55.4347 216.86 55.1877 215.83 54.6937 215.108C54.2092 214.376 53.53 214.01 52.656 214.01C51.7915 214.01 51.1075 214.376 50.604 215.108C50.1195 215.839 49.8772 216.87 49.8772 218.2C49.8772 219.53 50.1195 220.561 50.604 221.292Z" fill="#65788E"/>
<path d="M35.7675 264.094C35.7675 264.835 35.5158 265.457 35.0123 265.961C34.5183 266.455 33.8675 266.745 33.06 266.83V268.113H32.205V266.844C31.4355 266.797 30.78 266.592 30.2385 266.231C29.697 265.87 29.3075 265.386 29.07 264.778L29.925 264.279C30.2765 265.248 31.0365 265.78 32.205 265.875V261.942C31.4355 261.676 30.8228 261.372 30.3668 261.03C29.8348 260.631 29.5688 260.018 29.5688 259.192C29.5688 258.451 29.8158 257.848 30.3098 257.382C30.8228 256.898 31.4545 256.622 32.205 256.556V255.287H33.06V256.57C33.63 256.636 34.1288 256.826 34.5563 257.14C34.9933 257.453 35.3258 257.876 35.5538 258.408L34.713 258.878C34.4185 258.128 33.8675 257.686 33.06 257.553V261.258C33.858 261.524 34.4803 261.838 34.9268 262.199C35.4873 262.636 35.7675 263.267 35.7675 264.094ZM30.5663 259.192C30.5663 259.61 30.6898 259.952 30.9368 260.218C31.1933 260.474 31.616 260.717 32.205 260.945V257.539C31.711 257.596 31.312 257.772 31.008 258.066C30.7135 258.361 30.5663 258.736 30.5663 259.192ZM33.06 262.241V265.861C33.592 265.785 34.01 265.59 34.314 265.277C34.618 264.963 34.77 264.569 34.77 264.094C34.77 263.647 34.6323 263.286 34.3568 263.011C34.0908 262.735 33.6585 262.479 33.06 262.241ZM36.406 257.624L39.0422 256.712H39.8972V266.688H38.8997V257.81L36.6625 258.479L36.406 257.624ZM48.16 265.462C47.5045 266.393 46.5782 266.859 45.3812 266.859C44.1937 266.859 43.2627 266.393 42.5882 265.462C41.9327 264.521 41.605 263.267 41.605 261.7C41.605 260.123 41.9327 258.874 42.5882 257.952C43.2627 257.012 44.1937 256.541 45.3812 256.541C46.5782 256.541 47.5045 257.012 48.16 257.952C48.825 258.874 49.1575 260.123 49.1575 261.7C49.1575 263.277 48.825 264.531 48.16 265.462ZM43.3292 264.792C43.8327 265.524 44.5167 265.889 45.3812 265.889C46.2552 265.889 46.9345 265.524 47.419 264.792C47.913 264.07 48.16 263.039 48.16 261.7C48.16 260.36 47.913 259.33 47.419 258.608C46.9345 257.876 46.2552 257.51 45.3812 257.51C44.5167 257.51 43.8327 257.876 43.3292 258.608C42.8447 259.339 42.6025 260.37 42.6025 261.7C42.6025 263.03 42.8447 264.061 43.3292 264.792ZM56.9933 265.462C56.3378 266.393 55.4116 266.859 54.2146 266.859C53.0271 266.859 52.0961 266.393 51.4216 265.462C50.7661 264.521 50.4383 263.267 50.4383 261.7C50.4383 260.123 50.7661 258.874 51.4216 257.952C52.0961 257.012 53.0271 256.541 54.2146 256.541C55.4116 256.541 56.3378 257.012 56.9933 257.952C57.6583 258.874 57.9908 260.123 57.9908 261.7C57.9908 263.277 57.6583 264.531 56.9933 265.462ZM52.1626 264.792C52.6661 265.524 53.3501 265.889 54.2146 265.889C55.0886 265.889 55.7678 265.524 56.2523 264.792C56.7463 264.07 56.9933 263.039 56.9933 261.7C56.9933 260.36 56.7463 259.33 56.2523 258.608C55.7678 257.876 55.0886 257.51 54.2146 257.51C53.3501 257.51 52.6661 257.876 52.1626 258.608C51.6781 259.339 51.4358 260.37 51.4358 261.7C51.4358 263.03 51.6781 264.061 52.1626 264.792Z" fill="#65788E"/>
<path d="M35.7675 307.594C35.7675 308.335 35.5158 308.957 35.0123 309.461C34.5183 309.955 33.8675 310.245 33.06 310.33V311.613H32.205V310.344C31.4355 310.297 30.78 310.092 30.2385 309.731C29.697 309.37 29.3075 308.886 29.07 308.278L29.925 307.779C30.2765 308.748 31.0365 309.28 32.205 309.375V305.442C31.4355 305.176 30.8228 304.872 30.3668 304.53C29.8348 304.131 29.5688 303.518 29.5688 302.692C29.5688 301.951 29.8158 301.348 30.3098 300.882C30.8228 300.398 31.4545 300.122 32.205 300.056V298.787H33.06V300.07C33.63 300.136 34.1288 300.326 34.5563 300.64C34.9933 300.953 35.3258 301.376 35.5538 301.908L34.713 302.378C34.4185 301.628 33.8675 301.186 33.06 301.053V304.758C33.858 305.024 34.4803 305.338 34.9268 305.699C35.4873 306.136 35.7675 306.767 35.7675 307.594ZM30.5663 302.692C30.5663 303.11 30.6898 303.452 30.9368 303.718C31.1933 303.974 31.616 304.217 32.205 304.445V301.039C31.711 301.096 31.312 301.272 31.008 301.566C30.7135 301.861 30.5663 302.236 30.5663 302.692ZM33.06 305.741V309.361C33.592 309.285 34.01 309.09 34.314 308.777C34.618 308.463 34.77 308.069 34.77 307.594C34.77 307.147 34.6323 306.786 34.3568 306.511C34.0908 306.235 33.6585 305.979 33.06 305.741ZM43.4597 308.962C42.8042 309.893 41.878 310.359 40.681 310.359C39.4935 310.359 38.5625 309.893 37.888 308.962C37.2325 308.021 36.9047 306.767 36.9047 305.2C36.9047 303.623 37.2325 302.374 37.888 301.452C38.5625 300.512 39.4935 300.041 40.681 300.041C41.878 300.041 42.8042 300.512 43.4597 301.452C44.1247 302.374 44.4572 303.623 44.4572 305.2C44.4572 306.777 44.1247 308.031 43.4597 308.962ZM38.629 308.292C39.1325 309.024 39.8165 309.389 40.681 309.389C41.555 309.389 42.2342 309.024 42.7187 308.292C43.2127 307.57 43.4597 306.539 43.4597 305.2C43.4597 303.86 43.2127 302.83 42.7187 302.108C42.2342 301.376 41.555 301.01 40.681 301.01C39.8165 301.01 39.1325 301.376 38.629 302.108C38.1445 302.839 37.9022 303.87 37.9022 305.2C37.9022 306.53 38.1445 307.561 38.629 308.292Z" fill="#65788E"/>
<path d="M113.52 324.525H114.76V334.5H113.763V326.035L110.271 331.878H110.129L106.638 326.035V334.5H105.64V324.525H106.88L110.2 330.082L113.52 324.525ZM122.723 333.602C121.991 334.315 121.108 334.671 120.072 334.671C119.018 334.671 118.13 334.315 117.408 333.602C116.686 332.88 116.325 331.992 116.325 330.938C116.325 329.883 116.686 328.999 117.408 328.287C118.13 327.565 119.018 327.204 120.072 327.204C121.117 327.204 122.001 327.565 122.723 328.287C123.454 328.999 123.82 329.883 123.82 330.938C123.82 331.982 123.454 332.871 122.723 333.602ZM118.077 332.947C118.619 333.488 119.284 333.759 120.072 333.759C120.861 333.759 121.526 333.488 122.067 332.947C122.609 332.386 122.88 331.716 122.88 330.938C122.88 330.149 122.609 329.484 122.067 328.942C121.526 328.391 120.861 328.116 120.072 328.116C119.284 328.116 118.619 328.391 118.077 328.942C117.536 329.484 117.265 330.149 117.265 330.938C117.265 331.716 117.536 332.386 118.077 332.947ZM128.586 327.204C129.441 327.204 130.12 327.47 130.624 328.002C131.127 328.524 131.379 329.232 131.379 330.125V334.5H130.439V330.125C130.439 329.489 130.268 328.995 129.926 328.643C129.593 328.292 129.118 328.116 128.501 328.116C127.788 328.116 127.223 328.339 126.805 328.786C126.396 329.232 126.192 329.892 126.192 330.766V334.5H125.252V327.375H126.192V328.486C126.724 327.631 127.522 327.204 128.586 327.204Z" fill="#65788E"/>
<path d="M215.618 324.525H222.743V325.465H219.68V334.5H218.682V325.465H215.618V324.525ZM227.759 331.108V327.375H228.699V334.5H227.759V333.388C227.227 334.243 226.429 334.671 225.365 334.671C224.51 334.671 223.831 334.41 223.327 333.887C222.824 333.355 222.572 332.643 222.572 331.75V327.375H223.512V331.75C223.512 332.386 223.679 332.88 224.011 333.232C224.353 333.583 224.833 333.759 225.45 333.759C226.163 333.759 226.723 333.536 227.132 333.089C227.55 332.643 227.759 331.982 227.759 331.108ZM233.838 327.204C234.902 327.204 235.752 327.579 236.389 328.33C237.044 329.071 237.372 329.949 237.372 330.966C237.372 331.013 237.363 331.161 237.344 331.408H231.088C231.183 332.12 231.487 332.69 232 333.118C232.513 333.545 233.154 333.759 233.924 333.759C235.007 333.759 235.771 333.355 236.218 332.548L237.044 333.032C236.731 333.545 236.299 333.949 235.748 334.243C235.206 334.528 234.593 334.671 233.909 334.671C232.788 334.671 231.876 334.319 231.173 333.616C230.47 332.913 230.119 332.02 230.119 330.938C230.119 329.864 230.466 328.976 231.159 328.273C231.853 327.56 232.746 327.204 233.838 327.204ZM233.838 328.116C233.097 328.116 232.475 328.334 231.971 328.771C231.477 329.208 231.183 329.783 231.088 330.496H236.403C236.299 329.736 236.009 329.151 235.534 328.743C235.04 328.325 234.475 328.116 233.838 328.116Z" fill="#65788E"/>
<path d="M325.684 334.5H324.487L321.594 324.525H322.649L325.114 333.146L327.707 324.525H328.876L331.469 333.146L333.935 324.525H334.989L332.096 334.5H330.899L328.292 325.836L325.684 334.5ZM338.714 327.204C339.778 327.204 340.629 327.579 341.265 328.33C341.921 329.071 342.248 329.949 342.248 330.966C342.248 331.013 342.239 331.161 342.22 331.408H335.964C336.059 332.12 336.363 332.69 336.876 333.118C337.389 333.545 338.03 333.759 338.8 333.759C339.883 333.759 340.648 333.355 341.094 332.548L341.921 333.032C341.607 333.545 341.175 333.949 340.624 334.243C340.082 334.528 339.47 334.671 338.786 334.671C337.665 334.671 336.753 334.319 336.05 333.616C335.347 332.913 334.995 332.02 334.995 330.938C334.995 329.864 335.342 328.976 336.035 328.273C336.729 327.56 337.622 327.204 338.714 327.204ZM338.714 328.116C337.973 328.116 337.351 328.334 336.848 328.771C336.354 329.208 336.059 329.783 335.964 330.496H341.279C341.175 329.736 340.885 329.151 340.41 328.743C339.916 328.325 339.351 328.116 338.714 328.116ZM349.73 328.771V324.525H350.67V334.5H349.73V333.103C349.074 334.148 348.115 334.671 346.851 334.671C345.835 334.671 344.965 334.31 344.243 333.588C343.531 332.866 343.175 331.982 343.175 330.938C343.175 329.892 343.531 329.009 344.243 328.287C344.965 327.565 345.835 327.204 346.851 327.204C348.115 327.204 349.074 327.726 349.73 328.771ZM344.927 332.947C345.469 333.488 346.134 333.759 346.922 333.759C347.711 333.759 348.376 333.488 348.917 332.947C349.459 332.386 349.73 331.716 349.73 330.938C349.73 330.149 349.459 329.484 348.917 328.942C348.376 328.391 347.711 328.116 346.922 328.116C346.134 328.116 345.469 328.391 344.927 328.942C344.386 329.484 344.115 330.149 344.115 330.938C344.115 331.716 344.386 332.386 344.927 332.947Z" fill="#65788E"/>
<path d="M435.285 324.525H442.41V325.465H439.346V334.5H438.349V325.465H435.285V324.525ZM446.885 327.204C447.74 327.204 448.419 327.47 448.923 328.002C449.426 328.524 449.678 329.232 449.678 330.125V334.5H448.738V330.125C448.738 329.489 448.567 328.995 448.225 328.643C447.892 328.292 447.417 328.116 446.8 328.116C446.087 328.116 445.522 328.339 445.104 328.786C444.695 329.232 444.491 329.892 444.491 330.766V334.5H443.551V324.525H444.491V328.486C445.023 327.631 445.821 327.204 446.885 327.204ZM456.37 331.108V327.375H457.311V334.5H456.37V333.388C455.838 334.243 455.04 334.671 453.976 334.671C453.121 334.671 452.442 334.41 451.938 333.887C451.435 333.355 451.183 332.643 451.183 331.75V327.375H452.124V331.75C452.124 332.386 452.29 332.88 452.622 333.232C452.964 333.583 453.444 333.759 454.062 333.759C454.774 333.759 455.335 333.536 455.743 333.089C456.161 332.643 456.37 331.982 456.37 331.108Z" fill="#65788E"/>
<path d="M104.5 255.65C104.5 255.65 143.015 281.938 170.399 281.938C216.528 281.938 199.154 216.778 236.297 216.778C269.846 216.778 263.835 258.613 301.597 258.613C345.006 258.613 327.57 184.562 368.095 184.562C409.943 184.563 375.394 242.691 438.202 242.691C475.481 242.691 460.449 204.926 496.525 204.926C532.601 204.926 528.033 249.726 563.867 249.726" stroke="#B1E5FC" stroke-width="4.75" stroke-linecap="round"/>
<path d="M104.5 255.65C104.5 255.65 133.116 164 160.5 164C206.629 164 200.357 258.613 237.5 258.613C271.048 258.613 261.238 211.5 299 211.5C342.409 211.5 328.475 255.65 369 255.65C410.848 255.65 380.692 136.5 443.5 136.5C480.778 136.5 460.449 204.926 496.525 204.926C532.601 204.926 528.033 249.726 563.867 249.726" stroke="#FCB1B1" stroke-width="4.75" stroke-linecap="round"/>
<circle cx="369.312" cy="184.562" r="7.125" fill="#B1E5FC"/>
<circle cx="369.312" cy="184.562" r="1.1875" fill="#FCFCFC" stroke="#EDF2F7" stroke-width="2.375"/>
<g filter="url(#filter0_ddi_10_7675)">
<rect x="324" y="156.062" width="147" height="58.5" rx="9.5" fill="#1E1E1E" shape-rendering="crispEdges"/>
<rect x="324.594" y="156.656" width="145.812" height="57.3125" rx="8.90625" stroke="white" stroke-opacity="0.12" stroke-width="1.1875" shape-rendering="crispEdges"/>
<path d="M341.623 176.562H340.312L335.638 171.732V176.562H334.64V166.587H335.638V171.147L340.169 166.587H341.48L336.692 171.432L341.623 176.562ZM347.952 175.665C347.22 176.377 346.337 176.734 345.301 176.734C344.247 176.734 343.358 176.377 342.636 175.665C341.914 174.943 341.553 174.054 341.553 173C341.553 171.945 341.914 171.062 342.636 170.349C343.358 169.627 344.247 169.266 345.301 169.266C346.346 169.266 347.23 169.627 347.952 170.349C348.683 171.062 349.049 171.945 349.049 173C349.049 174.045 348.683 174.933 347.952 175.665ZM343.306 175.009C343.848 175.551 344.513 175.821 345.301 175.821C346.09 175.821 346.755 175.551 347.296 175.009C347.838 174.458 348.108 173.788 348.108 173C348.108 172.211 347.838 171.546 347.296 171.005C346.755 170.454 346.09 170.178 345.301 170.178C344.513 170.178 343.848 170.454 343.306 171.005C342.765 171.546 342.494 172.211 342.494 173C342.494 173.788 342.765 174.458 343.306 175.009ZM357.463 169.438V176.562H356.522V170.877L354.029 174.924H353.915L351.421 170.877V176.562H350.48V169.438H351.563L353.972 173.342L356.38 169.438H357.463ZM365.299 169.438V176.562H364.358V170.349H360.254V176.562H359.314V169.438H365.299ZM373.273 169.438H374.213V176.562H373.273V175.166C372.617 176.211 371.658 176.734 370.394 176.734C369.378 176.734 368.508 176.372 367.786 175.65C367.074 174.928 366.718 174.045 366.718 173C366.718 171.964 367.074 171.081 367.786 170.349C368.508 169.627 369.378 169.266 370.394 169.266C371.658 169.266 372.617 169.789 373.273 170.834V169.438ZM368.47 175.009C369.012 175.551 369.677 175.821 370.465 175.821C371.254 175.821 371.919 175.551 372.46 175.009C373.002 174.458 373.273 173.788 373.273 173C373.273 172.211 373.002 171.546 372.46 171.005C371.919 170.454 371.254 170.178 370.465 170.178C369.677 170.178 369.012 170.454 368.47 171.005C367.929 171.546 367.658 172.211 367.658 173C367.658 173.788 367.929 174.458 368.47 175.009ZM381.106 169.438H382.047V176.562H381.106V173.456H377.002V176.562H376.062V169.438H377.002V172.544H381.106V169.438ZM389.08 169.438H389.878V176.562H388.938V171.076L384.691 176.562H383.893V169.438H384.834V174.924L389.08 169.438ZM396.855 169.438V176.562H395.914V173.826H394.689L392.494 176.562H391.297L393.549 173.798C392.979 173.712 392.508 173.475 392.138 173.085C391.767 172.696 391.582 172.216 391.582 171.646C391.582 171.01 391.81 170.482 392.266 170.064C392.741 169.646 393.306 169.438 393.962 169.438H396.855ZM395.914 172.943V170.349H393.962C393.563 170.349 393.221 170.468 392.936 170.706C392.66 170.934 392.523 171.247 392.523 171.646C392.523 172.045 392.66 172.363 392.936 172.601C393.221 172.829 393.563 172.943 393.962 172.943H395.914Z" fill="white"/>
<rect x="333.5" y="190.062" width="14.25" height="14.25" rx="4.75" fill="#B1E5FC"/>
<path d="M359.981 191.087V192.655H357.174V201.062H355.535V192.655H352.714V191.087H359.981ZM368.816 199.751C367.819 200.749 366.598 201.248 365.154 201.248C363.71 201.248 362.485 200.749 361.478 199.751C360.48 198.744 359.981 197.519 359.981 196.075C359.981 194.631 360.48 193.41 361.478 192.413C362.485 191.406 363.71 190.902 365.154 190.902C366.598 190.902 367.819 191.406 368.816 192.413C369.823 193.41 370.327 194.631 370.327 196.075C370.327 197.519 369.823 198.744 368.816 199.751ZM362.632 198.64C363.325 199.314 364.166 199.652 365.154 199.652C366.152 199.652 366.988 199.314 367.662 198.64C368.346 197.956 368.688 197.101 368.688 196.075C368.688 195.049 368.346 194.199 367.662 193.524C366.988 192.84 366.152 192.498 365.154 192.498C364.157 192.498 363.316 192.84 362.632 193.524C361.957 194.199 361.62 195.049 361.62 196.075C361.62 197.091 361.957 197.946 362.632 198.64ZM380.015 199.751C379.018 200.749 377.797 201.248 376.353 201.248C374.909 201.248 373.684 200.749 372.677 199.751C371.679 198.744 371.18 197.519 371.18 196.075C371.18 194.631 371.679 193.41 372.677 192.413C373.684 191.406 374.909 190.902 376.353 190.902C377.797 190.902 379.018 191.406 380.015 192.413C381.022 193.41 381.526 194.631 381.526 196.075C381.526 197.519 381.022 198.744 380.015 199.751ZM373.831 198.64C374.524 199.314 375.365 199.652 376.353 199.652C377.351 199.652 378.187 199.314 378.861 198.64C379.545 197.956 379.887 197.101 379.887 196.075C379.887 195.049 379.545 194.199 378.861 193.524C378.187 192.84 377.351 192.498 376.353 192.498C375.356 192.498 374.515 192.84 373.831 193.524C373.156 194.199 372.819 195.049 372.819 196.075C372.819 197.091 373.156 197.946 373.831 198.64ZM386.042 194.792L387.039 191.087H388.322L387.752 194.792H386.042ZM388.464 194.792L389.462 191.087H390.744L390.174 194.792H388.464ZM397.065 201.248C395.564 201.248 394.319 200.754 393.331 199.766C392.343 198.759 391.849 197.528 391.849 196.075C391.849 194.612 392.343 193.386 393.331 192.398C394.31 191.401 395.554 190.902 397.065 190.902C397.521 190.902 397.958 190.959 398.376 191.073C398.803 191.178 399.202 191.334 399.573 191.543C399.943 191.752 400.276 192.004 400.57 192.299C400.874 192.584 401.136 192.911 401.354 193.282L399.929 194.108C399.663 193.614 399.274 193.225 398.761 192.94C398.257 192.645 397.692 192.498 397.065 192.498C396.01 192.498 395.146 192.835 394.471 193.51C393.816 194.184 393.488 195.039 393.488 196.075C393.488 197.12 393.816 197.975 394.471 198.64C395.146 199.314 396.01 199.652 397.065 199.652C397.692 199.652 398.262 199.509 398.775 199.224C399.288 198.93 399.673 198.535 399.929 198.041L401.354 198.854C400.946 199.576 400.352 200.16 399.573 200.606C398.813 201.034 397.977 201.248 397.065 201.248ZM405.822 201.248C404.768 201.248 403.88 200.887 403.158 200.165C402.426 199.433 402.06 198.545 402.06 197.5C402.06 196.455 402.426 195.567 403.158 194.835C403.88 194.113 404.768 193.752 405.822 193.752C406.877 193.752 407.765 194.113 408.487 194.835C409.219 195.567 409.584 196.455 409.584 197.5C409.584 198.545 409.219 199.433 408.487 200.165C407.765 200.887 406.877 201.248 405.822 201.248ZM404.241 199.11C404.668 199.538 405.195 199.751 405.822 199.751C406.449 199.751 406.977 199.538 407.404 199.11C407.832 198.683 408.045 198.146 408.045 197.5C408.045 196.854 407.832 196.317 407.404 195.89C406.977 195.462 406.449 195.248 405.822 195.248C405.195 195.248 404.668 195.462 404.241 195.89C403.813 196.317 403.599 196.854 403.599 197.5C403.599 198.146 403.813 198.683 404.241 199.11ZM418.614 193.752C419.013 193.752 419.379 193.823 419.711 193.966C420.044 194.099 420.329 194.289 420.566 194.536C420.804 194.783 420.984 195.087 421.108 195.448C421.241 195.809 421.307 196.208 421.307 196.645V201.062H419.768V196.745C419.768 196.251 419.645 195.871 419.398 195.605C419.151 195.329 418.814 195.191 418.386 195.191C417.902 195.191 417.522 195.348 417.246 195.662C416.971 195.975 416.833 196.445 416.833 197.072V201.062H415.294V196.745C415.294 196.251 415.175 195.871 414.938 195.605C414.71 195.329 414.382 195.191 413.954 195.191C413.489 195.191 413.109 195.348 412.814 195.662C412.52 195.975 412.373 196.445 412.373 197.072V201.062H410.834V193.938H412.373V194.792C412.829 194.099 413.508 193.752 414.41 193.752C415.322 193.752 415.997 194.127 416.434 194.878C416.899 194.127 417.626 193.752 418.614 193.752ZM426.845 193.752C427.814 193.752 428.65 194.118 429.353 194.849C430.046 195.571 430.393 196.455 430.393 197.5C430.393 198.554 430.046 199.443 429.353 200.165C428.659 200.887 427.823 201.248 426.845 201.248C425.762 201.248 424.93 200.849 424.351 200.051V203.913H422.812V193.938H424.351V194.963C424.93 194.156 425.762 193.752 426.845 193.752ZM424.992 199.139C425.42 199.566 425.956 199.78 426.602 199.78C427.248 199.78 427.785 199.566 428.213 199.139C428.64 198.702 428.854 198.155 428.854 197.5C428.854 196.844 428.64 196.303 428.213 195.875C427.785 195.438 427.248 195.22 426.602 195.22C425.956 195.22 425.42 195.438 424.992 195.875C424.565 196.303 424.351 196.844 424.351 197.5C424.351 198.155 424.565 198.702 424.992 199.139ZM437.288 193.938H438.827V201.062H437.288V200.036C436.709 200.844 435.878 201.248 434.795 201.248C433.816 201.248 432.98 200.887 432.287 200.165C431.593 199.443 431.246 198.554 431.246 197.5C431.246 196.445 431.593 195.557 432.287 194.835C432.98 194.113 433.816 193.752 434.795 193.752C435.868 193.752 436.699 194.151 437.288 194.949V193.938ZM433.427 199.139C433.854 199.566 434.391 199.78 435.037 199.78C435.683 199.78 436.22 199.566 436.647 199.139C437.075 198.702 437.288 198.155 437.288 197.5C437.288 196.844 437.075 196.303 436.647 195.875C436.22 195.438 435.683 195.22 435.037 195.22C434.391 195.22 433.854 195.438 433.427 195.875C432.999 196.303 432.785 196.844 432.785 197.5C432.785 198.155 432.999 198.702 433.427 199.139ZM444.226 193.752C445.053 193.752 445.713 194.013 446.207 194.536C446.711 195.049 446.962 195.766 446.962 196.688V201.062H445.423V196.844C445.423 196.303 445.281 195.894 444.996 195.619C444.711 195.334 444.321 195.191 443.827 195.191C443.286 195.191 442.849 195.362 442.516 195.704C442.184 196.037 442.018 196.55 442.018 197.243V201.062H440.479V193.938H442.018V194.849C442.493 194.118 443.229 193.752 444.226 193.752ZM453.14 193.938H454.779L452.043 201.291C451.359 203.134 450.2 204.008 448.566 203.913V202.473C449.05 202.502 449.44 202.397 449.734 202.16C450.029 201.932 450.271 201.571 450.461 201.077L450.532 200.934L447.511 193.938H449.193L451.316 199.11L453.14 193.938ZM457.736 191.087L456.739 194.792H455.456L456.026 191.087H457.736ZM460.159 191.087L459.161 194.792H457.879L458.449 191.087H460.159Z" fill="#FCFCFC"/>
</g>
<defs>
<filter id="filter0_ddi_10_7675" x="314.5" y="151.312" width="166" height="77.5" filterUnits="userSpaceOnUse" color-interpolation-filters="sRGB">
<feFlood flood-opacity="0" result="BackgroundImageFix"/>
<feColorMatrix in="SourceAlpha" type="matrix" values="0 0 0 0 0 0 0 0 0 0 0 0 0 0 0 0 0 0 127 0" result="hardAlpha"/>
<feOffset dy="2.375"/>
<feGaussianBlur stdDeviation="2.375"/>
<feComposite in2="hardAlpha" operator="out"/>
<feColorMatrix type="matrix" values="0 0 0 0 0 0 0 0 0 0 0 0 0 0 0 0 0 0 0.1 0"/>
<feBlend mode="multiply" in2="BackgroundImageFix" result="effect1_dropShadow_10_7675"/>
<feColorMatrix in="SourceAlpha" type="matrix" values="0 0 0 0 0 0 0 0 0 0 0 0 0 0 0 0 0 0 127 0" result="hardAlpha"/>
<feOffset dy="4.75"/>
<feGaussianBlur stdDeviation="4.75"/>
<feComposite in2="hardAlpha" operator="out"/>
<feColorMatrix type="matrix" values="0 0 0 0 0 0 0 0 0 0 0 0 0 0 0 0 0 0 0.1 0"/>
<feBlend mode="multiply" in2="effect1_dropShadow_10_7675" result="effect2_dropShadow_10_7675"/>
<feBlend mode="normal" in="SourceGraphic" in2="effect2_dropShadow_10_7675" result="shape"/>
<feColorMatrix in="SourceAlpha" type="matrix" values="0 0 0 0 0 0 0 0 0 0 0 0 0 0 0 0 0 0 127 0" result="hardAlpha"/>
<feOffset/>
<feGaussianBlur stdDeviation="0.59375"/>
<feComposite in2="hardAlpha" operator="arithmetic" k2="-1" k3="1"/>
<feColorMatrix type="matrix" values="0 0 0 0 0 0 0 0 0 0 0 0 0 0 0 0 0 0 1 0"/>
<feBlend mode="multiply" in2="shape" result="effect3_innerShadow_10_7675"/>
</filter>
</defs>
</svg>
