<svg width="24" height="24" viewBox="0 0 24 24"  xmlns="http://www.w3.org/2000/svg">
<path d="M13.4925 1.66675H6.50833C3.975 1.66675 2.5 3.15008 2.5 5.69175V14.3001C2.5 16.8834 3.975 18.3334 6.50833 18.3334H13.4925C16.0667 18.3334 17.5 16.8834 17.5 14.3001V5.69175C17.5 3.15008 16.0667 1.66675 13.4925 1.66675Z" fill="#2f2f2d"/>
<path fill-rule="evenodd" clip-rule="evenodd" d="M6.7333 5.54175V5.55008C6.37413 5.55008 6.0833 5.84175 6.0833 6.20008C6.0833 6.55841 6.37413 6.85008 6.7333 6.85008H9.22413C9.5833 6.85008 9.87497 6.55841 9.87497 6.19091C9.87497 5.83341 9.5833 5.54175 9.22413 5.54175H6.7333ZM13.2666 10.6167H6.7333C6.37413 10.6167 6.0833 10.3251 6.0833 9.96675C6.0833 9.60841 6.37413 9.31591 6.7333 9.31591H13.2666C13.625 9.31591 13.9166 9.60841 13.9166 9.96675C13.9166 10.3251 13.625 10.6167 13.2666 10.6167ZM13.2666 14.4251H6.7333C6.4833 14.4584 6.24163 14.3334 6.1083 14.1251C5.97497 13.9084 5.97497 13.6334 6.1083 13.4251C6.24163 13.2084 6.4833 13.0917 6.7333 13.1167H13.2666C13.5991 13.1501 13.85 13.4334 13.85 13.7751C13.85 14.1076 13.5991 14.3917 13.2666 14.4251Z" fill="white"/>
</svg>
