<svg width="20" height="20" viewBox="0 0 20 20" fill="none" xmlns="http://www.w3.org/2000/svg">
<path fill-rule="evenodd" clip-rule="evenodd" d="M2.5 14.0585V7.71436H17.5V14.1094C17.5 16.7252 15.8535 18.3335 13.219 18.3335H6.77278C4.16301 18.3335 2.5 16.6919 2.5 14.0585ZM6.63282 12.0085C6.25412 12.026 5.94127 11.7252 5.92481 11.3427C5.92481 10.9594 6.22119 10.6427 6.59989 10.6252C6.97036 10.6252 7.27497 10.9177 7.28321 11.2919C7.29967 11.676 7.00329 11.9927 6.63282 12.0085ZM10.0165 12.0085C9.63776 12.026 9.32492 11.7252 9.30845 11.3427C9.30845 10.9594 9.60483 10.6427 9.98353 10.6252C10.354 10.6252 10.6586 10.9177 10.6669 11.2919C10.6833 11.676 10.3869 11.9927 10.0165 12.0085ZM13.3754 15.0752C12.9967 15.0669 12.6921 14.7502 12.6921 14.3669C12.6839 13.9835 12.9885 13.6677 13.3672 13.6594H13.3754C13.7623 13.6594 14.0752 13.976 14.0752 14.3669C14.0752 14.7585 13.7623 15.0752 13.3754 15.0752ZM9.30845 14.3669C9.32492 14.7502 9.63776 15.051 10.0165 15.0335C10.3869 15.0177 10.6833 14.701 10.6669 14.3177C10.6586 13.9427 10.354 13.6502 9.98353 13.6502C9.60483 13.6677 9.30845 13.9835 9.30845 14.3669ZM5.91658 14.3669C5.93304 14.7502 6.24588 15.051 6.62459 15.0335C6.99506 15.0177 7.29144 14.701 7.27497 14.3177C7.26674 13.9427 6.96213 13.6502 6.59166 13.6502C6.21295 13.6677 5.91658 13.9835 5.91658 14.3669ZM12.7003 11.3344C12.7003 10.951 12.9967 10.6427 13.3754 10.6344C13.7459 10.6344 14.0423 10.9335 14.0587 11.301C14.067 11.6844 13.7706 12.001 13.4001 12.0085C13.0214 12.0169 12.7086 11.7252 12.7003 11.3427V11.3344Z" fill="black"/>
<path opacity="0.4" d="M2.50269 7.71428C2.51339 7.22511 2.55455 6.25428 2.63194 5.94178C3.02711 4.18428 4.36904 3.06761 6.28726 2.90845H13.7132C15.6149 3.07595 16.9733 4.20011 17.3685 5.94178C17.4451 6.24595 17.4862 7.22428 17.4969 7.71428H2.50269Z" fill="black"/>
<path d="M6.92078 5.49175C7.28302 5.49175 7.5547 5.21758 7.5547 4.85008V2.30925C7.5547 1.94175 7.28302 1.66675 6.92078 1.66675C6.55854 1.66675 6.28687 1.94175 6.28687 2.30925V4.85008C6.28687 5.21758 6.55854 5.49175 6.92078 5.49175Z" fill="black"/>
<path d="M13.0792 5.49175C13.4332 5.49175 13.7132 5.21758 13.7132 4.85008V2.30925C13.7132 1.94175 13.4332 1.66675 13.0792 1.66675C12.717 1.66675 12.4453 1.94175 12.4453 2.30925V4.85008C12.4453 5.21758 12.717 5.49175 13.0792 5.49175Z" fill="black"/>
</svg>
