<svg width="24" height="24" viewBox="0 0 24 24" fill="none" xmlns="http://www.w3.org/2000/svg">
<g clip-path="url(#clip0_2029_616)">
<path d="M23.9873 12.2244C23.9873 11.2412 23.9057 10.5236 23.729 9.77954H12.239V14.2175H18.9833C18.8474 15.3204 18.1132 16.9814 16.4814 18.0975L16.4585 18.246L20.0915 20.9962L20.3431 21.0208C22.6547 18.9346 23.9873 15.8652 23.9873 12.2244Z" fill="#4285F4"/>
<path d="M12.2391 23.9176C15.5433 23.9176 18.3172 22.8545 20.3433 21.0209L16.4815 18.0976C15.4481 18.8018 14.0612 19.2934 12.2391 19.2934C9.00292 19.2934 6.25623 17.2074 5.27711 14.324L5.13359 14.3359L1.35604 17.1927L1.30664 17.3269C3.31906 21.2334 7.45273 23.9176 12.2391 23.9176Z" fill="#34A853"/>
<path d="M5.27702 14.324C5.01867 13.58 4.86916 12.7826 4.86916 11.9589C4.86916 11.135 5.01867 10.3378 5.26343 9.59366L5.25658 9.43519L1.4317 6.53247L1.30655 6.59064C0.47714 8.21174 0.0012207 10.0322 0.0012207 11.9589C0.0012207 13.8855 0.47714 15.7059 1.30655 17.327L5.27702 14.324Z" fill="#FBBC05"/>
<path d="M12.2391 4.62403C14.5371 4.62403 16.0871 5.59401 16.971 6.40461L20.4248 3.10928C18.3036 1.1826 15.5433 0 12.2391 0C7.45273 0 3.31906 2.68406 1.30664 6.59056L5.26351 9.59359C6.25622 6.7102 9.00291 4.62403 12.2391 4.62403Z" fill="#EB4335"/>
</g>
<defs>
<clipPath id="clip0_2029_616">
<rect width="24" height="24" fill="white"/>
</clipPath>
</defs>
</svg>
