<svg width="19" height="20" viewBox="0 0 19 20" fill="none" xmlns="http://www.w3.org/2000/svg">
<path d="M6.52718 18.7821V15.7152C6.52716 14.9381 7.14803 14.3067 7.91706 14.3018H10.7408C11.5133 14.3018 12.1395 14.9346 12.1395 15.7152V18.7732C12.1395 19.4472 12.6776 19.9951 13.3446 20H15.2711C16.1709 20.0023 17.0346 19.6428 17.6716 19.0007C18.3086 18.3586 18.6667 17.4867 18.6667 16.5775V7.86583C18.6667 7.13138 18.3445 6.4347 17.787 5.96349L11.2422 0.674267C10.0982 -0.250877 8.46423 -0.220991 7.35407 0.745383L0.950047 5.96349C0.366201 6.42081 0.0172444 7.11955 0 7.86583V16.5686C0 18.4637 1.52023 20 3.39554 20H5.27804C5.59919 20.0023 5.90799 19.875 6.1359 19.6464C6.36382 19.4177 6.492 19.1066 6.49199 18.7821H6.52718Z" fill="#2f2f2d"/>
</svg>
