<svg width="16" height="16" viewBox="0 0 16 16" fill="none" xmlns="http://www.w3.org/2000/svg">
<path fill-rule="evenodd" clip-rule="evenodd" d="M5.68767 1.95777C7.14424 1.11143 8.9346 1.12623 10.3775 1.99651C11.8062 2.88453 12.6746 4.46937 12.6665 6.17421C12.6332 7.86788 11.7021 9.45992 10.5382 10.6906C9.86648 11.4042 9.115 12.0351 8.29915 12.5706C8.21512 12.6192 8.12309 12.6517 8.02758 12.6666C7.93565 12.6627 7.84613 12.6355 7.76709 12.5875C6.52154 11.783 5.42881 10.7559 4.54147 9.55589C3.79898 8.55416 3.37714 7.34392 3.33325 6.08953C3.33229 4.38142 4.2311 2.8041 5.68767 1.95777ZM6.52936 6.79644C6.77438 7.40048 7.35271 7.79448 7.99432 7.79448C8.41465 7.7975 8.81871 7.62914 9.11646 7.3269C9.41421 7.02467 9.58091 6.61368 9.57942 6.18551C9.58166 5.53194 9.19689 4.94146 8.60476 4.68977C8.01263 4.43808 7.32995 4.57482 6.87546 5.03615C6.42098 5.49748 6.28435 6.1924 6.52936 6.79644Z" fill="#2f2f2d"/>
<ellipse opacity="0.4" cx="7.99984" cy="13.9999" rx="3.33333" ry="0.666667" fill="#2f2f2d"/>
</svg>
