<svg width="44" height="44" viewBox="0 0 44 44" fill="none" xmlns="http://www.w3.org/2000/svg">
<path fill-rule="evenodd" clip-rule="evenodd" d="M0 19.0738C0 8.53965 8.44875 0 18.8708 0C23.8757 0 28.6755 2.00956 32.2145 5.5866C35.7534 9.16364 37.7416 14.0151 37.7416 19.0738C37.7416 29.608 29.2929 38.1477 18.8708 38.1477C8.44875 38.1477 0 29.608 0 19.0738ZM37.4293 34.4394L43.0496 38.9761H43.1472C44.2842 40.1254 44.2842 41.9887 43.1472 43.138C42.0101 44.2873 40.1666 44.2873 39.0296 43.138L34.3655 37.7926C33.9246 37.3485 33.6768 36.7452 33.6768 36.116C33.6768 35.4868 33.9246 34.8835 34.3655 34.4394C35.2159 33.5948 36.579 33.5948 37.4293 34.4394Z" fill="#DBDBDB"/>
</svg>
